/* XPM */
static char *_af77cdd6f1d4ee6a7d99c2c2d201ffcEZY5pXcRYmXOUDlk[] = {
/* columns rows colors chars-per-pixel */
"50 50 137 2 ",
"   c None",
".  c #516900",
"X  c #5A6B00",
"o  c #5D7400",
"O  c #5E7E02",
"+  c #606C00",
"@  c #627501",
"#  c #647802",
"$  c #63741B",
"%  c #0B2F47",
"&  c #A67803",
"*  c #AC7A03",
"=  c #A77E09",
"-  c #B37C02",
";  c #D56502",
":  c #ED7A04",
">  c #F17C05",
",  c #5F8000",
"<  c #6C8E00",
"1  c #708102",
"2  c #759903",
"3  c #7C9C03",
"4  c #779110",
"5  c #829F11",
"6  c #89981D",
"7  c #B38501",
"8  c #BE8500",
"9  c #BD8E02",
"0  c #83A802",
"q  c #83A60D",
"w  c #8AB400",
"e  c #89B10A",
"r  c #849828",
"t  c #8FAF24",
"y  c #CC8000",
"u  c #C78A00",
"i  c #C28E0A",
"p  c #C69401",
"a  c #CC9201",
"s  c #CE9C00",
"d  c #D09100",
"f  c #D39903",
"g  c #DA9B01",
"h  c #E48400",
"j  c #F08502",
"k  c #FA8200",
"l  c #F48C01",
"z  c #FD8D02",
"x  c #EF9601",
"c  c #E79C05",
"v  c #EA9905",
"b  c #F59602",
"n  c #FE9402",
"m  c #FE9C01",
"M  c #E4A204",
"N  c #EDA302",
"B  c #EDA901",
"V  c #FEA502",
"C  c #F6AC01",
"Z  c #FEAB01",
"A  c #F7B102",
"S  c #FEB400",
"D  c #FFBB01",
"F  c #F7B809",
"G  c #FCBE0A",
"H  c #FDB715",
"J  c #C89425",
"K  c #F8B020",
"L  c #F2BC27",
"P  c #F8BA2E",
"I  c #F9BA33",
"U  c #FFC401",
"Y  c #FECB01",
"T  c #F6C608",
"R  c #FDC70B",
"E  c #F5CC0D",
"W  c #FCCC0B",
"Q  c #FDD202",
"!  c #F5C61A",
"~  c #FCCB1B",
"^  c #FBD311",
"/  c #FED41E",
"(  c #F6D91E",
")  c #FACE24",
"_  c #FCD422",
"`  c #FDDA22",
"'  c #FAD928",
"]  c #FAC731",
"[  c #FDD536",
"{  c #FFDB31",
"}  c #FDD93A",
"|  c #FBE526",
" . c #FEE233",
".. c #90A046",
"X. c #9BAF42",
"o. c #C39F63",
"O. c #CBAA76",
"+. c #CDB875",
"@. c #A7C14E",
"#. c #A3C057",
"$. c #FFDB45",
"%. c #FBDF4D",
"&. c #FEDE5F",
"*. c #F9E456",
"=. c #FEE45D",
"-. c #F3EB5D",
";. c #FBE85B",
":. c #DBCE70",
">. c #F6E064",
",. c #FEE363",
"<. c #F7EA66",
"1. c #FEE66A",
"2. c #E7E17E",
"3. c #F7E376",
"4. c #FBE675",
"5. c #F6EF73",
"6. c #F9EA75",
"7. c #FCE77A",
"8. c #FDE87C",
"9. c #FAEE7C",
"0. c #FAEA7A",
"q. c #FAF57D",
"w. c #D1B587",
"e. c #D7BE96",
"r. c #D6C09A",
"t. c #D8CA9F",
"y. c #FDD387",
"u. c #F3EB81",
"i. c #FBEA81",
"p. c #F7EC89",
"a. c #FAE889",
"s. c #FBEF94",
"d. c #F7F096",
"f. c #FAF092",
"g. c #FEEDAD",
"h. c #F9F7A3",
"j. c #F1E1C3",
/* pixels */
"% % % % % % % % % % % % % % % % % % % % % % % % % % % % % % % % % % % % % % % % % % % % % % % % % % ",
"% % % % % % % % % % % % % % % % % % % % % % % % % % % % % % % % % % % % % % % % % % % % % % % % % % ",
"% % % % % % % % % % % % % % % % % % % % % % % % % % % % % % % % % % % % % % % % % % % % % % % % % % ",
"% % % % % % % % % % % % % % % % % % % % % % % % % % % % % % % % % % % % % % % % % % % % % % % % % % ",
"% % % % % % % % % % % % % % % % % % % % % % % % % % % % % % % % % % % % % % % % % % % % % % % % % % ",
"% % % % % % % % % % % % % % % % % % % % % % % % % % % % % % % % % % % % % % % % % % % % % % % % % % ",
"% % % % % % % % % % % % % % % % % % % % % % % % % % % % % % % % % % % % % % % % % % % % % % % % % % ",
"% % % % % % % % % % % % % % % % % % % % % % % % % % % % % % % % % % % % % % % % % % % % % % % % % % ",
"% % % % % % % % % % % % % % % % % % % % % % % e w @.% % % % % % % % % % % % % % % % % % % % % % % % ",
"% % % % % % % % % % % % % % % % % % % % % % 0 t $ q 3 % % % % % % % % % % % % % % % % % % % % % % % ",
"% % % % % % % % % % % % % % % % % % % % % % 3 # o # 5 % % % % % % % % % % % % % % % % % % % % % % % ",
"% % % % % % % % % % % % % % % % % % % % % % :.1 % % 2 % % % % % % % % % % % % % % % % % % % % % % % ",
"% % % % % % % % % % % % % % % % % % % % % %   #.% % < % % % % % % % % % % % % % % % % % % % % % % % ",
"% % % % % % % % % % % % % % % % % % % % % % % % % % X...% % % % % % % % % % % % % % % % % % % % % % ",
"% % % % % % % % % % % % % % % % % % % % % % % % % % r     % % % % % % % % % % % % % % % % % % % % % ",
"% % % % % % % % % % % % % % % % % % % % % % I l z X.# k b Q % % % % % % % % % % % % % % % % % % % % ",
"% % % % % % % % % % % % % % % % % % % 3.4.6.h l n O @ j b C Y % % % % % % % % % % % % % % % % % % % ",
"% % % % % % % % % % % % % % % % % %   L m z -.l 6 # o : b V D % % % % % % % % % % % % % % % % % % % ",
"% % % % % % % % % % % % % % % % % % } H m n : 4 , O o X ; 7.9.1.% % % % % % % % % % % % % % % % % % ",
"% % % % % % % % % % % % % % % % % h.S Z m z d.s.o , X X <.V S [ =.% % % % % % % % % % % % % % % % % ",
"% % % % % % % % % % % % % % % % % { F Z m i._ &.p.o . 2.u.P Z D >.% % % % % % % % % % % % % % % % % ",
"% % % % % % % % % % % % % % % % % Y D V m ^ ! D D 6.8.a.7.9.A D U % % % % % % % % % % % % % % % % % ",
"% % % % % % % % % % % % % % % % % Y S V K Y T U D S D D R U Z D Y % % % % % % % % % % % % % % % % % ",
"% % % % % % % % % % % % % % % % % U S Z *.U U D D S D D U R %.D Y ;.% % % % % % % % % % % % % % % % ",
"% % % % % % % % % % % % % % % % % Y S V Y Y U D D S D U U $.%.D U _ % % % % % % % % % % % % % % % % ",
"% % % % % % % % % % % % % % % %   U S Z Q U U D D D D U U ~ / D Y / % % % % % % % % % % % % % % % % ",
"% % % % % % % % % % % % % % % % 1.U S Z Y U D D S D D U U Y Y D U Q % % % % % % % % % % % % % % % % ",
"% % % % % % % % % % % % % % % % ,.U S Z Y U U D S D D U Y Y Y D Y Q % % % % % % % % % % % % % % % % ",
"% % % % % % % % % % % % % % % %   Y S V Y U D D S D D D U Y Y D U E % % % % % % % % % % % % % % % % ",
"% % % % % % % % % % % % % % % % % Y S V Y U D D D D U U Y Y Q D Y   % % % % % % % % % % % % % % % % ",
"% % % % % % % % % % % % % % % % % S S Z U U D S D D U U Y W R D Y % % % % % % % % % % % % % % % % % ",
"% % % % % % % % % % % % % % % % % Z V m U U D D D D U U Y 5.C D _ % % % % % % % % % % % % % % % % % ",
"% % % % % % % % % % % % % % % % % ^ V V W U D D D D U U U ` V S ' % % % % % % % % % % % % % % % % % ",
"% % % % % % % % % % % % % % % % % q.V m *.V S S D D U U V  .C Z A % % % % % % % % % % % % % % % % % ",
"% % % % % % % % % % % % % % % % % / V m s.C Z Z S S S Z ] c V G y.% % % % % % % % % % % % % % % % % ",
"% % % % % % % % % % % % % % % % % N V m F V Z Z Z S S Z | g V g.% % % % % % % % % % % % % % % % % % ",
"% % % % % % % % % % % % % % % % % % W m d C Z Z S S A Z p m V V % % % % % % % % % % % % % % % % % % ",
"% % % % % % % % % % % % % % % % % % N m u | Z Z S S D ^ n V ( % % % % % % % % % % % % % % % % % % % ",
"% % % % % % % % % % % % % % % % % % f m n ! V S Z S B 7 m m f % % % % % % % % % % % % % % % % % % % ",
"% % % % % % % % % % % % % % % % % % t.a a - c C S S S ; n c r.% % % % % % % % % % % % % % % % % % % ",
"% % % % % % % % % % % % % % % % % % % O.i - & p M 9 8 u a J % % % % % % % % % % % % % % % % % % % % ",
"% % % % % % % % % % % % % % % % % % % % e.o.& * * - & i w.% % % % % % % % % % % % % % % % % % % % % ",
"% % % % % % % % % % % % % % % % % % % % % % % j.= +.% % % % % % % % % % % % % % % % % % % % % % % % ",
"% % % % % % % % % % % % % % % % % % % % % % % % % % % % % % % % % % % % % % % % % % % % % % % % % % ",
"% % % % % % % % % % % % % % % % % % % % % % % % % % % % % % % % % % % % % % % % % % % % % % % % % % ",
"% % % % % % % % % % % % % % % % % % % % % % % % % % % % % % % % % % % % % % % % % % % % % % % % % % ",
"% % % % % % % % % % % % % % % % % % % % % % % % % % % % % % % % % % % % % % % % % % % % % % % % % % ",
"% % % % % % % % % % % % % % % % % % % % % % % % % % % % % % % % % % % % % % % % % % % % % % % % % % ",
"% % % % % % % % % % % % % % % % % % % % % % % % % % % % % % % % % % % % % % % % % % % % % % % % % % ",
"% % % % % % % % % % % % % % % % % % % % % % % % % % % % % % % % % % % % % % % % % % % % % % % % % % "
};
