/* XPM */
static char *_61a22e557744d1ef0689aa3e8689216xX0BN5tPWpkkWMhN[] = {
/* columns rows colors chars-per-pixel */
"50 50 200 2 ",
"   c #21313E",
".  c #173F59",
"X  c #1A3749",
"o  c #2A3E49",
"O  c #28475A",
"+  c #384955",
"@  c #0E496B",
"#  c #1E5069",
"$  c #145074",
"%  c #2F4E62",
"&  c #2A4E68",
"*  c #2A536C",
"=  c #2A5065",
"-  c #34566B",
";  c #38586D",
":  c #255674",
">  c #2A5673",
",  c #265A7D",
"<  c #2D5879",
"1  c #235578",
"2  c #3A5C73",
"3  c #365E78",
"4  c #2C6179",
"5  c #376175",
"6  c #35617B",
"7  c #3F687E",
"8  c #39627E",
"9  c #41494B",
"0  c #4F565E",
"q  c #505558",
"w  c #435665",
"e  c #4A596A",
"r  c #4D5963",
"t  c #565E64",
"y  c #5C6167",
"u  c #4E6573",
"i  c #4C6B7D",
"p  c #46657C",
"a  c #546773",
"s  c #687277",
"d  c #757678",
"f  c #1E5E81",
"g  c #255D80",
"h  c #385F80",
"j  c #1E668A",
"k  c #276483",
"l  c #2C6382",
"z  c #2E628A",
"x  c #306084",
"c  c #3C6B83",
"v  c #34668B",
"b  c #306C8C",
"n  c #3B6B8C",
"m  c #3E6688",
"M  c #39728D",
"N  c #2B6F94",
"B  c #366D90",
"V  c #2B7297",
"C  c #29729B",
"Z  c #3C7292",
"A  c #31759A",
"S  c #3F7798",
"D  c #3A7C9F",
"F  c #446782",
"G  c #426B84",
"H  c #4D6A85",
"J  c #506F81",
"K  c #586D80",
"L  c #43728A",
"P  c #4A7387",
"I  c #547485",
"U  c #57758A",
"Y  c #416F93",
"T  c #4B7993",
"R  c #42759B",
"E  c #487A9B",
"W  c #587D90",
"Q  c #637783",
"!  c #617D95",
"~  c #4B7EA3",
"^  c #467EA1",
"/  c #3981A7",
"(  c #3E8CB3",
")  c #5A8399",
"_  c #62828F",
"`  c #7A8388",
"'  c #688799",
"]  c #75919B",
"[  c #4A82A5",
"{  c #4686A9",
"}  c #4B87A9",
"|  c #5887A3",
" . c #5087AE",
".. c #558AAD",
"X. c #588DAF",
"o. c #5A89A1",
"O. c #5B91AE",
"+. c #5490AC",
"@. c #448EB6",
"#. c #4A8FB2",
"$. c #498EB8",
"%. c #548EB2",
"&. c #4F9EBF",
"*. c #4F92BC",
"=. c #5C93B3",
"-. c #5C96BB",
";. c #559BBD",
":. c #5B9CBC",
">. c #5794B8",
",. c #668CA1",
"<. c #6391A9",
"1. c #6095B7",
"2. c #6499B6",
"3. c #6C9BB4",
"4. c #659BBC",
"5. c #6996B3",
"6. c #7895A3",
"7. c #63A0BF",
"8. c #4A97C3",
"9. c #439BC5",
"0. c #4C9CC5",
"q. c #459DCC",
"w. c #4D9ECB",
"e. c #4694C4",
"r. c #5097C1",
"t. c #5996C1",
"y. c #549DC4",
"u. c #5A9DC3",
"i. c #539ECB",
"p. c #5A9EC9",
"a. c #4E9FD1",
"s. c #449ED2",
"d. c #539ED0",
"f. c #639EC4",
"g. c #4FA2C5",
"h. c #46A2CE",
"j. c #4FA0CB",
"k. c #54A1C5",
"l. c #5CA2C5",
"z. c #50A1CC",
"x. c #5AA3CC",
"c. c #5CAACF",
"v. c #46A4D3",
"b. c #4CA3D2",
"n. c #4BA7DC",
"m. c #4BAADA",
"M. c #49A9DA",
"N. c #53A1D1",
"B. c #51A1D2",
"V. c #51A6D1",
"C. c #55A5D1",
"Z. c #53A4D4",
"A. c #5BA6D1",
"S. c #54AAD6",
"D. c #5AA9D3",
"F. c #53A9D9",
"G. c #5BABDA",
"H. c #60A4C7",
"J. c #63A2C3",
"K. c #6AA3C5",
"L. c #62A2CC",
"P. c #6BA4CA",
"I. c #6EABCC",
"U. c #64A8CD",
"Y. c #71ACCE",
"T. c #64AAD7",
"R. c #6AACD4",
"E. c #60AFDA",
"W. c #61A6D0",
"Q. c #73AFD3",
"!. c #8D9194",
"~. c #83969C",
"^. c #8F9AA0",
"/. c #919EA6",
"(. c #85A0AB",
"). c #9FA8AF",
"_. c #9CA6A7",
"`. c #91A5B0",
"'. c #9CB1BB",
"]. c #A2B3BB",
"[. c #B0B9B8",
"{. c #87ADC2",
"}. c #A9B7C0",
"|. c #BEBFC1",
" X c #9DC0D3",
".X c #B0C7CD",
"XX c #ABC7D3",
"oX c #B3C8D4",
"OX c #BCD2DD",
"+X c #A9CDE5",
"@X c #BAD5E8",
"#X c #C7D4DC",
"$X c #C7D8E0",
"%X c #D0DFE6",
"&X c #CEE2E9",
"*X c #DBE4E6",
"=X c #D8EAF4",
"-X c #E6E9ED",
";X c #E9F3F7",
":X c #F2FCFE",
/* pixels */
"w.j.z.z.z.z.z.z.z.j.z.z.j.z.z.j.z.z.j.z.z.z.j.z.z.j.z.z.j.z.z.j.z.z.z.z.z.z.z.z.j.j.j.z.j.j.j.j.w.w.",
"w.z.z.z.z.z.z.z.z.z.z.z.z.z.z.z.z.z.z.z.z.z.z.z.z.z.z.z.z.z.z.z.j.z.z.j.j.z.j.z.j.j.z.w.z.j.j.i.w.g.",
"w.z.z.z.z.C.z.z.j.z.z.j.z.z.z.z.j.z.z.j.z.j.j.z.z.z.z.j.z.z.z.z.z.z.z.z.z.z.j.z.z.w.j.j.j.j.z.z.w.w.",
"w.z.z.z.z.z.z.z.z.z.z.z.j.z.z.j.z.z.z.z.z.z.z.z.z.j.z.z.z.j.V.j.z.j.z.z.z.z.z.z.z.z.z.z.z.z.z.z.j.z.",
"j.j.z.C.z.z.z.z.z.z.j.z.z.z.z.z.z.z.j.z.z.z.z.z.j.z.z.j.z.z.z.z.j.z.z.j.z.z.j.z.z.z.z.z.z.z.z.z.w.j.",
"j.j.z.z.z.V.z.z.z.z.z.z.z.j.z.z.j.z.z.z.j.z.j.z.z.z.z.z.j.z.z.j.z.z.z.z.j.z.z.z.z.z.z.V.z.z.z.V.z.z.",
"j.j.z.z.z.C.z.z.z.j.j.z.z.j.z.j.z.z.j.z.z.z.j.z.z.z.z.z.z.z.z.z.z.z.z.z.z.z.z.z.z.N.z.z.z.z.z.z.z.z.",
"j.j.z.z.z.z.z.z.z.z.z.z.z.z.z.z.z.z.V.j.z.z.z.z.j.z.z.j.z.z.j.z.j.z.z.j.z.z.j.z.z.z.z.z.z.C.z.z.z.z.",
"w.z.z.z.z.z.V.z.z.z.z.z.z.z.z.z.z.z.z.z.z.z.z.z.z.z.j.z.z.j.z.z.z.z.z.z.z.z.z.z.j.z.z.j.z.z.j.z.j.z.",
"g.w.z.z.z.z.z.z.z.z.z.z.j.z.z.j.z.z.j.z.z.j.z.z.z.z.z.z.z.z.z.z.z.j.j.z.z.j.z.j.z.z.z.z.j.z.z.z.z.w.",
"w.j.z.z.z.C.z.z.z.z.z.z.z.z.z.z.j.z.j.z.z.j.z.j.j.z.z.z.z.j.j.z.z.z.z.z.z.j.z.z.z.z.z.z.z.z.z.z.g.z.",
"w.z.z.z.z.z.z.z.z.z.z.z.z.j.z.z.z.z.z.z.z.z.z.z.z.z.j.z.z.z.z.z.z.z.j.z.z.z.z.z.j.z.z.j.z.z.j.z.i.w.",
"j.z.z.z.z.N.V.z.j.z.z.j.z.z.z.j.z.z.z.z.z.z.z.z.z.z.z.z.z.N.j.j.z.z.z.z.j.z.z.j.z.z.j.z.z.z.j.z.j.w.",
"w.j.z.z.z.z.z.z.z.z.z.z.z.z.z.z.j.z.z.j.j.z.z.j.z.j.z.z.z.j.z.z.j.z.z.j.z.z.z.z.z.z.z.z.z.z.z.z.j.j.",
"w.z.z.z.z.z.z.z.z.z.z.z.j.j.j.z.j.j.z.z.j.z.z.z.z.j.z.z.z.z.z.z.z.z.j.j.z.z.w.j.z.z.z.j.z.j.i.w.j.w.",
"w.z.z.z.V.z.z.z.j.z.z.j.z.k.j.j.j.V.j.b.j.V.j.j.z.j.z.b.j.j.b.j.z.g.z.k.z.k.x.z.z.z.j.N.z.d.b.d.j.z.",
"a.a.d.B.N.N.x.z.z.k.k.j.g.g.j.j.v.m.v.h.h.j.j.V.V.9.h.S.h.h.m.h.g.k.k.k.k.g.&.g.c.&.8.F.Z.B.a.d.z.w.",
"a.d.b.b.N.z.N.z.0.w.z.k.V.V.g.j.h.v.V.V.z.z.j.g.w.w.j.j.q.b.m.h.g.k.g.k.k.k.c.g.c.g.x.z.w.a.F.s.j.j.",
"d.a.d.N.N.z.x.a.D.z.j.9.0.g.Z.S.g.k.k.k.x.H.H.l.V #.y.k.k.C.g.9.h.h.h.j.c.V.g.g.w.y.N.w.e.N.F.w.w.z.",
"a.d.d.x.N.N.N.N.8.w.z.V.F.j.a.8.k.;.;.;.:.-.%.} $ [ J.u.c.k.&.9.b.v.v.v.h.g.g.g.z.w.x.i.y.N.G.i.i.j.",
"i.i.z.x.N.z.N.i.i.i.i.i.i.d.d.C.H.J.K.I.K.=.R l g >.L.t.y.y.i.E.s.n.n.s.q.h.V.z.c.0.k.D.x.k.x.w.z.j.",
"i.j.z.z.z.i.x.i.A.x.N.p.p.p.f.f.7.:.X.X.| [ Y v z %.P.L.u.y.d.G.s.n.n.v.s.V.C.z.( / @.k.x.k.k.k.k.w.",
"a.j.b.N.z.x.x.p.*.t.f.P.f...R n Z b , : , z v n z R t.W.p.d.d.e.a.b.B.i.x.C.k.@.j N @.l.k.0.k.k.j.j.",
"b.j.b.z.d.x.y.u.R.-.E h * & - 2 > > > < 3 m m n Y v ~ t.t.L.T.p.p.p.u.u.l.l.#.C j / k.c.y.z.C.g.j.j.",
"v.b.b.N.N.i.i.u.^ 1 . ; U U a u H e O % o ; ! p H m h < Y ~ ~ P.4.O.K.4.2.O.b 4 k l.l.y.C.j.j.j.j.j.",
"v.v.b.b.b.x.k.-., 5.+X@XoX[.).^.Q a o o X + r 0 e K ! H F F h m c 5 ) 3.<.L : M M :.;.y.V.j.b.b.j.j.",
"b.b.b.b.N.i.k.f.S | ' ' `.%X:X;X:X_.9 q y ` s !.y 0 0 e w - u K i 3 - & * 5 4 M +.l.;.k.g.g.Z.b.j.j.",
"b.h.b.b.z.z.i.u.I.=.T I ' '.#X;X:X%X[.!.d d d #X-X-X*X#X].}.oXoX X{.' 7 5 L c 4 7.H.k.c.j.9.F.a.j.j.",
"z.z.z.z.V.N.z.z.p.;.-.5.' T I _ ] .X&X~.` s e s /.$X=XOX/.] 6.F P T | 3.O.S l 4 7.l.u.c.x.w.F.q.w.j.",
"k.k.z.z.z.j.N.j.Z.x.u.u.J.7.=.) H 5 ; O ' J O X o % - W W c c # [ -.J.Y.P.} b @ { ;.r.l.N.w.C.d.j.j.",
":.k.k.k.j.b.b.b.q.F.G.z.0.k.x.l.U.D , V P...%.4.-.Z @ ~ Q.-.l.l.8.T.r.$.;.U.p.N A u.u.y.x.i.i.x.z.z.",
":.k.k.k.z.j.b.b.n.b.v.q.j.V.z.w.0.E.8.&.N.t.W.t.p.T./ @.A.i.G.0.w.D.w.C.x.0.i.@.C A.c.r.x.i.i.N.z.w.",
"k.k.j.z.z.V.z.V.b.z.j.b.z.z.z.z.j.z.z.z.x.z.z.i.x.z.x.i.z.z.z.z.z.z.z.z.z.z.x.z.z.z.i.z.z.x.w.z.j.j.",
"j.j.z.z.z.z.z.z.z.z.j.z.z.z.z.z.z.z.z.z.z.j.z.z.w.j.j.j.z.z.z.z.z.z.z.z.j.z.w.j.z.z.z.z.z.z.z.z.j.j.",
"g.j.z.z.C.z.z.z.z.z.z.z.z.z.z.z.z.z.z.z.j.z.z.z.j.z.j.j.j.z.z.j.z.z.z.z.z.z.z.z.z.z.z.z.j.z.z.z.j.i.",
"w.z.z.z.z.z.z.z.z.z.z.z.j.z.z.z.j.z.z.j.z.z.j.z.z.z.z.z.z.z.z.z.z.j.z.z.z.j.z.z.z.z.z.z.z.z.z.z.z.w.",
"j.j.z.z.z.z.z.z.z.z.z.z.z.z.j.z.z.j.z.z.z.j.z.z.z.z.z.z.z.z.z.z.z.j.z.z.j.z.z.z.z.z.z.z.z.j.z.z.w.z.",
"w.j.z.z.z.z.C.z.z.j.z.z.z.z.z.z.z.z.z.z.z.z.z.j.j.z.j.z.z.j.z.j.z.z.z.z.z.z.z.z.z.z.j.z.z.z.z.z.z.j.",
"w.z.z.z.z.z.z.z.z.j.z.j.j.z.z.j.j.z.z.z.z.z.z.z.z.z.j.z.z.j.z.z.z.z.z.j.z.z.z.z.j.z.j.z.z.j.j.z.j.j.",
"w.z.z.z.z.z.z.z.z.z.z.z.z.z.z.z.j.N.j.z.z.j.z.z.z.z.z.z.z.z.z.z.z.j.z.z.j.z.z.w.z.z.z.z.z.z.z.z.w.j.",
"j.z.z.z.V.z.z.z.z.z.z.z.z.z.z.z.z.j.z.z.j.z.z.j.z.z.z.z.z.z.z.z.j.z.z.j.z.z.j.z.z.j.z.z.j.z.z.j.i.j.",
"j.z.z.z.z.z.z.z.z.j.z.j.j.z.z.j.z.z.z.z.z.z.z.z.z.z.j.z.z.j.z.z.z.z.z.z.j.z.z.z.z.z.z.z.z.z.z.z.g.z.",
"w.j.z.z.z.z.z.z.z.j.z.z.z.z.z.z.j.z.z.j.z.z.z.z.j.z.j.z.z.j.z.j.z.z.z.z.z.z.z.z.z.z.z.j.z.z.z.z.z.w.",
"w.j.z.z.C.z.z.z.z.z.z.z.z.z.j.z.z.z.z.z.j.z.z.j.z.z.z.z.z.z.z.z.j.z.z.j.z.z.j.z.z.j.z.z.j.z.z.j.w.z.",
"w.j.z.z.z.z.z.z.z.z.z.z.j.j.z.z.N.j.j.z.j.z.z.j.z.z.z.z.z.z.z.z.z.z.j.z.z.z.j.z.z.z.z.z.z.z.j.z.j.j.",
"j.z.z.z.z.z.C.z.z.z.j.z.N.j.z.z.j.z.z.z.z.z.z.z.j.z.z.j.j.z.z.j.z.z.z.z.z.z.z.z.z.j.z.z.z.z.z.z.j.w.",
"w.j.z.z.z.V.V.j.j.z.j.z.z.j.j.z.z.z.z.z.z.z.z.z.z.z.z.z.z.z.z.z.j.z.z.j.z.j.j.z.z.j.z.j.j.z.z.j.w.j.",
"w.z.z.z.z.z.z.z.z.z.z.z.z.z.z.z.z.j.z.z.j.z.z.j.z.z.j.z.j.j.i.z.z.z.z.z.z.z.z.z.z.z.z.z.z.z.z.z.k.w.",
"g.w.j.j.j.z.z.z.w.z.z.w.j.j.j.w.z.z.j.i.j.g.w.j.z.j.i.j.j.w.z.g.w.z.j.j.j.w.z.j.w.z.w.i.j.j.z.j.w.w.",
"i.w.w.j.w.z.z.z.j.j.w.k.j.j.z.w.z.w.z.w.j.j.w.z.w.z.j.j.z.j.w.j.z.w.i.j.j.j.z.w.z.j.z.j.j.j.j.w.w.w."
};
