/* XPM */
static char *ac5b6e99d8534d4de0b0720bbf4a8d05ghUgjcKVpmHdaMnP[] = {
/* columns rows colors chars-per-pixel */
"50 50 245 2 ",
"   c #1B1F6F",
".  c #193269",
"X  c #2B3177",
"o  c #344B78",
"O  c #151586",
"+  c #231D88",
"@  c #172099",
"#  c #26288B",
"$  c #28328B",
"%  c #31289A",
"&  c #353A9A",
"*  c #2E2991",
"=  c #221FA2",
"-  c #262BAF",
";  c #3737A7",
":  c #3B35B9",
">  c #2C32BC",
",  c #453ABA",
"<  c #3B4695",
"1  c #404294",
"2  c #4B519B",
"3  c #464BA9",
"4  c #4C47B7",
"5  c #534EBC",
"6  c #4E51BA",
"7  c #5956AF",
"8  c #5561B3",
"9  c #6161BB",
"0  c #7176BD",
"q  c #7071B2",
"w  c #51779C",
"e  c #3B34C5",
"r  c #3B2CD3",
"t  c #443CC5",
"y  c #483AE9",
"u  c #4D49C8",
"i  c #5754C8",
"p  c #584ADD",
"a  c #5B55D7",
"s  c #5646CB",
"d  c #635DDB",
"f  c #5D61C2",
"g  c #6C68D7",
"h  c #7378D9",
"j  c #6D6EC9",
"k  c #584BE9",
"l  c #5D58F0",
"z  c #625EE9",
"x  c #7372ED",
"c  c #6C66F9",
"v  c #7069F1",
"b  c #7395C8",
"n  c #7A87D9",
"m  c #7587CA",
"M  c #7E94EC",
"N  c #778EEB",
"B  c #8E8CBE",
"V  c #86AAB6",
"C  c #8D94CE",
"Z  c #8CB2CB",
"A  c #98B8CB",
"S  c #8AABD7",
"D  c #97ABDA",
"F  c #8BBBDD",
"G  c #8AB5D9",
"H  c #94BCD6",
"J  c #94BCDC",
"K  c #9BBBDC",
"L  c #96B4D8",
"P  c #92AFC8",
"I  c #A3BCDB",
"U  c #A4BBD2",
"Y  c #AAB7D6",
"T  c #888EE4",
"R  c #8395E4",
"E  c #9396EC",
"W  c #9696FB",
"Q  c #A19AE0",
"!  c #9FA8EE",
"~  c #82B5E4",
"^  c #84B9E6",
"/  c #8CBBE4",
"(  c #8CB5EB",
")  c #84B9EA",
"_  c #8DBCEC",
"`  c #88B6E6",
"'  c #94BDE3",
"]  c #9CBDE4",
"[  c #93BCEC",
"{  c #9BBDEB",
"}  c #95B5E9",
"|  c #8EBEF1",
" . c #8FBFFE",
".. c #8CB5F7",
"X. c #92BEF4",
"o. c #9CBCF3",
"O. c #91BFFB",
"+. c #9EB7F5",
"@. c #9EA5F3",
"#. c #A2BEE4",
"$. c #ABB9ED",
"%. c #A6ABFA",
"&. c #ACBDFE",
"*. c #A6B6FD",
"=. c #B5BDFC",
"-. c #BBB8FF",
";. c #B1B1F0",
":. c #8BC2DD",
">. c #9CC2DD",
",. c #A2C4DC",
"<. c #A9C6D5",
"1. c #B3CBDC",
"2. c #B6C8DA",
"3. c #BDD8DC",
"4. c #AAC9CE",
"5. c #BCE2DE",
"6. c #8CC2E3",
"7. c #8DC2EB",
"8. c #8DC8E8",
"9. c #93C3E5",
"0. c #9BC2E5",
"q. c #9BCAE3",
"w. c #93C3EB",
"e. c #9BC3EB",
"r. c #9BCBEC",
"t. c #92CBE5",
"y. c #8BC2F2",
"u. c #8EC0FC",
"i. c #88C4F7",
"p. c #93C3F4",
"a. c #9BC3F3",
"s. c #9DC9F3",
"d. c #93C2F9",
"f. c #9BC4F9",
"g. c #9CCBFD",
"h. c #95CBF8",
"j. c #9CD0F8",
"k. c #A3C3E4",
"l. c #A4C4EA",
"z. c #A5CBEC",
"x. c #ABCCEA",
"c. c #A9C7E6",
"v. c #B5CCE5",
"b. c #B9CBE8",
"n. c #AAD1EC",
"m. c #BDD2E4",
"M. c #BCDBE4",
"N. c #BCD4EA",
"B. c #BCDAEC",
"V. c #B4D5EB",
"C. c #A3CBF4",
"Z. c #ACCCF3",
"A. c #A4CCFD",
"S. c #AACEFD",
"D. c #A7C5F9",
"F. c #B3C5FE",
"G. c #BBC2FF",
"H. c #B5CAFD",
"J. c #BCCAFF",
"K. c #B8C8F3",
"L. c #A5D3F6",
"P. c #ACD3F4",
"I. c #A5D2FB",
"U. c #AAD4FB",
"Y. c #AED8FF",
"T. c #B4D4F5",
"R. c #BBD6F4",
"E. c #B7DAF6",
"W. c #BDDBF4",
"Q. c #B3D5FC",
"!. c #BBD5FD",
"~. c #B5DDFE",
"^. c #BCDCFC",
"/. c #BEE1E5",
"(. c #B5E0FF",
"). c #BBE1FE",
"_. c #BBE8FF",
"`. c #C3D3DD",
"'. c #CADBDC",
"]. c #C6D7DE",
"[. c #D5DBD7",
"{. c #C8D1D5",
"}. c #C7E2DD",
"|. c #D9E4DA",
" X c #E8EADB",
".X c #C3D5E5",
"XX c #CAD6E4",
"oX c #C4DBE5",
"OX c #CBDAE5",
"+X c #C2D6EC",
"@X c #CAD6EB",
"#X c #C4DAEC",
"$X c #C9DBEB",
"%X c #C2CDFE",
"&X c #C6C8FD",
"*X c #C5D6F4",
"=X c #C9D6F2",
"-X c #C3DBF2",
";X c #C9DCF3",
":X c #C4D5FE",
">X c #CAD3FE",
",X c #C3DCFC",
"<X c #CBDDFE",
"1X c #D3D4FF",
"2X c #D2DAFF",
"3X c #DBDAFC",
"4X c #CBCFF5",
"5X c #E1DFF6",
"6X c #C5E3E3",
"7X c #C3E1EB",
"8X c #CBE3ED",
"9X c #CDE9EA",
"0X c #D8E3ED",
"qX c #C4E1F4",
"wX c #CCE2F3",
"eX c #C3E2FD",
"rX c #CBE3FD",
"tX c #C5E9FF",
"yX c #CBEAFD",
"uX c #D3E3F3",
"iX c #DAE4F5",
"pX c #D4E3FD",
"aX c #D9E4FF",
"sX c #D4EBFC",
"dX c #DDEBFF",
"fX c #DAEDF3",
"gX c #CBF1FF",
"hX c #DEF1FC",
"jX c #D6F6FF",
"kX c #DCF1EA",
"lX c #E9E9E8",
"zX c #E8F4EB",
"xX c #F7FEEE",
"cX c #E5EBF6",
"vX c #E5ECFB",
"bX c #EAEDFC",
"nX c #E7E3FB",
"mX c #F2EDFF",
"MX c #EEF5FF",
"NX c #E5FDFF",
"BX c #ECFEFF",
"VX c #E7F5F6",
"CX c #F3FDFF",
"ZX c #FDFBFF",
"AX c #F5F5FB",
/* pixels */
") | ) ^ F F G J / / } / ` / F F F 9.9.` / ' / F F F 9./ ( | ..O.) / 6.^ :.^ / / / / / / / / ` / 9.~ ",
"d.g.I.I.U.P.n.P.U.S.S.S.A.P.L.L.L.r.s.U.I.s.r.C.Y.6.e.C.Y.A.C.f.I.L.j.L.I.L.I.I.L.I.L.I.L.U.U.S.I./ ",
"s.Q.~.).tX).~.).^.^.^.^.^.).).)._.tXtX~.^.tXyXeX^.eXgXeXtXeXyX/.).(.).).).).(.).).).^.^.).^.^.(.~.w.",
"e.Q.^.E.eXqXB.B.,X,X,X,X^.-XW.W.,.W.R.R.eX^.F.H.H.H.H.:Xx.m.6X3.7XW.W.W.W.).W.W.^.^.^.E.^.^.^.^.(.w.",
"#.R.-XN.B.#X#X#X=X-X*X*X*X-X-X#XsXsX#XrXrXq   < 1 # & &XaXuX'.'.XX#X#X#X#X#X-X-X#X-X*X-X-X-X-X,X(./ ",
"#.,XqXN.oXOXOXOX=X;X;X;X=X$X#XOXm.`.2.$XsXC 2 3 a t d 1X1X&X@X{.OXOXOXOXOXOX@X$X$X$X$X-X-X-X-X^.Y._ ",
"I *XqX+X.XOXOXOX@X@X=X=X$X$XOX#X$X$XuX.X.X2X%.i p k y k , j 1X1X@XOXOXOXOX$XOX#XOX$X$X#X$X@X=X-X(.7.",
"I *X<X#XOX8X$X$XOX=X$X=X=X#X#XOXuX2.uXuX2.aX&X+ r t y t t d 5X1X=X@XOX@XOX@XOXoX#X@X#X=X#X#X#X-X).w.",
"#.^.-XW.#XoX#X$X$X=X*X*X-X#X#X#XR.=XOXoX.X+XJ.G.v l c l c v g J.>XoX.X.X#X=X#X#X+X.X#XB.#X#X#XW.(.8.",
"#.^.R.#X-XB.#X#X*X-X*X-X*X+X-XR.rX<X*X#XoXqX<X<X3 @ - > - O $ F.<XrXwX,X;X-X-X-X-XW.#X-X-X-X-XW.(.w.",
"] ^.^.R.qXB.#X-X-X!.,X!.^.W.W.-X!.J.W.B.oX7X-X^.+.R M N M n b Q.x.x.R.^.R.R.R.R.qX-X#XqXW.-XqX).(.w.",
"{ ^.~.W.W.B.qX-X-X*X,X-X*X-XW.W.!.,X,XqX7X/./.(.).Q.A.( A.~.' G J c.Q.).tX^.).tX).^.).#XW.W.-XW.(.w.",
"0.^.^.W.-XB.qX-X-X*X*X!.-XW.W.W.rXrX-XW.M.M.V.V.E.z.e.9.r.r.:.q.' C.U.Q.Q.T.^.eXW.W.-XW.-X#X-XB.(.9.",
"#.^.W.W.-XN.#X-X-X*X,XR.*X-X-XB.N.B.-XqXB.x.>.H e.F / t.7.:.:.r.9.{ e.] ' q.T.).W.W.-XqX-X$X7X).(.t.",
"#.^.-XR.7X#X#X#X-X-X*X*X-XR.#XoX3.}.8XqX,XT.#.' [ p.p.p.i.h.h.M r.w.r.] 0.z.E.eXR.W.-XqX;X8XOX-X(.w.",
"I ^.W.-X-XM.$X#X+X=X=X-X-X+X#X#X7XM.1.,.K ] o.f.f.f.y.h.y.8.j.8._ X.a.e.e.] ] ] V.B.B.-X-X$X#XW.~.9.",
",.B.W.B.-XqX-X-X+X+X-X;X;X;X#X+XeXE.x.0.>.0.9.0.9.p.7.w.7.7.7.7.) u.( a.e.l.S K z.T.^.,X,X-X=X*X~.9.",
">.W.eXR.W.W.#X-X*X-XN.m.m.+X$X;XeXQ.e.0.9.0.9.9.w.w.p.p.w.9.9.w.g.g.f.f.{ ] ] x.] Z.~.^.^.-X*X-X~.9.",
">.E.eXE.-X,X-X-XqXqX;X;X=X-X-XW.~.Z.0.J ' r.w.[ X.d.d.p.h.y.w.7.~ G F 9.L L #.L K l.T.^.,X-X.X#X~.9.",
"] E.eXW.,X-Xv.1.-X+Xm.+X<XrX*X^.z.q.9./ 9.p.r.y.d.d.d.u.u.d.p.p.h.w.C.z.x.R.eXK K ] x.R.;X-XOX#X~.w.",
"l.^.^.E.,XN.U P v.Y A U v.,X,X,X0.9.9.w.r.y.X.O.O. . . .u.u.y.y.6.:.6.H n.jXjX).K H >.x.B..X'.oXE.9.",
"$.Q.^.:XqX-X1.U m.<.U Y R.,X!.Z./ 9.w.r.p.X.X.O.O. . . .u.u.u.p.:.t.>.:./.NXn.q.k.J K x.B.6X.X7X(.9.",
"{ !.,X,XqXqX#XoX7XoX.X;XrXeXZ.' 9.w.8.p.p.O.d.O.d.d.O.p.p.y.u.7.8.t.>.F L.).o w D.] 9.P.^.qX#X7X~.9.",
"#.^.eXR.N.#XOX8X$X#X#X-X,X^.Z.l.s.8.y.X.d.d.f.X.p.w.e.w.w.r.p.w.8.8.:.9.(.gX. b s.[ ' C.).W.B.B.(.9.",
"l.!.,XR.#X.X3.OX.X8XM.v.E.c.J e.s.7.p.f.f.X.a.A.l.Z >.q.z.:.C.9._ y.h.6.s.e.U.[ g.| 7.f.s.0.x.tX(.9.",
"K R.-XR.qXpX$XoX8X+X#XyX/.z.J F / / [ a.a.} L Z H A <.V A H G r.p.p.j./ / a.G f.X.d.d.p.[ [ Z.~.(.9.",
"I ,XyX-X-X;X+X.X;X1.N.,Xq.H q.t.r.s.{ { D.!.yXyX3.9X9X6XgXsX,Xo.( O.a.D.l.Q.S a.( h.g.d.| p.C.S.(.9.",
"K W.yX,X*X-X>XpX<X*XtX^.J G 9.q.F 0./ S L W.hXBXCXCXkXBXBXhXBXF.S.A.} ] D L L ] J [ e.p.X.[ [ { (.6.",
"c.T.^.,X:X:X%X<XK.<X!.a.0.9.:.t.H P.,XT.b.pXfXlX[. X[.nXvX&X%.T T C %X:Xb.+X;XB.B.>.:.0.e.{ { Z.~.9.",
"x.T.:X,XaXpX>X2X:X<XF.S e.s./ 9.0.yXNXBXBXCXCXzXxXxXZXmXZXG.+ # X o MXAXMXCXVXNXqX<.Z H ] ] #.D.(.9.",
"K :X<XK.F.-.G.G.F.F.*.o.f.7.8.C.>.M.pXuXiXcXlX X X[.lX5X1X-.i g 2 B nXnX5XzX|.xX}.4.4.<.x.k.$.l.(.9.",
"K rX>Xm < $ & & $ & m *.o.( I._.qXwXwX$XXX[.[.{.lXxXmXmXq % s % Q ZX3XmXZXlXxXzXVXVXNXNXNXNXsX,X)./ ",
"c.K.pXW 6 i i p u i T &.+.} P./.#XoXoXOX'.'.'.'.vXvXnXnXW t p , Q ZXnXlXcXVXcX0XcXfXhXhXhXfXuX-X~.w.",
"I %Xj i 6 u c k z u n F.&.F.P.B.#X#XOXoX'.'.XXOX=X3X&X7 , , v s B AXnXmXvXcX0X'.XX'.XX8X6XOXXX#X^.w.",
"K rX< $ & & e e e > m &.*.<X,XB.-X#X#X#XoXOX$X=X.X3X&X3 5 , , O Y mXvXMXAXvX0XXXXX`..X`..XoXoX7X(.w.",
"L yX*.A.:X>Xx v z d h n 8 F.rXqX#X-X#X#X#X#X#X;X1X;.0 9 j d a -.;.0XXXXX3XXX`.`.0XOX.XOXOXOX#XqX(.w.",
"c.!.<X<X:X<X4 % : = ; ; # %.,XN.-X-XB.-X;X*X=X,XpXm   X   * + -.1XiX$XOXiX$X$XuX$X$X#X#X7X#XoXB.Y.w.",
"Z.!.^.,XK.<X*.W %.z d g 9 H.<X+X-X-X-X-X,X*X*X:X2X$.C ! @.W T 2X=XXX@X2.@X`..X.X#X+XoX#X$X#X#XB.(.w.",
"G Q.eXtX-XrX<X1XG.t : ; & ! *X#X-X-XW.#X-X,X,X:X<X<XpXaXaX<X2X%X2X$XpX.XpX+X;X-X#X#X#X#X-X7X#X).~.7.",
"C.~.eX<.oXyXK.&X&Xd v a 9 =.pX+XB.#X#XW.-X,X*X:X:X:XK.:XK.J.dXK.*Xm.=Xv.#X+X$X+X;X#X#XB.#X#XB.W.(.w.",
"w.(././.6XoX<X>X3Xt , , & 1X.X.XM.#X#X7X-XW.-X,X;X,X,X;X;X-X;X-X-X-X-X-X=X-X-X-X-X-XqX-X-X-X-X).(.8.",
"[ (.V./.}.3.$X:X&X5 d i & $.=X;XoXoXM.#XB.#XW.#X*X-X-X#X#X#X#X#X+X#X=X+X#X-X+X-X-X-X-XW.B.qX#XW.(.w.",
"a.~.M.5.6X3.$X>X5Xj , g 3XdXY @XoXoXoXoX#X#X#X#X#X#X#X#X#XoXoX#X#X-XW.#XW.#X-XB.#X-X-X#XW.#X#X).~.7.",
"o.^././.6XoX;X=X1X1 * f >XK.hXiX#XoX#X#X#XoX#X#X#X#X#X#X#X6XoX#XB.-X-X-X#XW.-X-XqX-X-X-X-XqX-XW.~.w.",
"o.^.B./.7X.X$X@X2X=.E j aXN.;X<.#X#XOX#X$XOXoX#X#XoX#X#X+X#X+X#X#X-X#X-X-X#X#X#X-X#X=X#X#X#X#XW.~.w.",
"o.!.B.M.7XN.$XoX=XMX0 X dXwX2.vX#X=X=X+X+X.X#X#XoX#X+X.X+X+X+X+X-XN.#XB.+X#X+X-X+X#XN.#X#X+X+XR.~.[ ",
"$.^.B.7X<X=X$XOX@X&X! D wX2.1.#X;X=X=X=X=X#X$X#XOX#X+X=X-X,X,X-X-X#X#X-X#X-X-X#X+X#X#X#X-X#X+X-X(.r.",
"f.).).).eX,XrXqX,XpX<XrXqXyXyXW.,X,XeX,XrX,X,XqX,XeX,X,XeX,X^._.,XeXeX,X,XeXeXeX^.,X,X,X,X,XeX^.(.p.",
"h.h.h.I.I.I.j.C.I.I.A.A.I.I.I.I.I.U.Y.L.L.I.I.I.j.j.I.j.I.I.I.I.I.I.I.I.I.I.U.I.I.I.I.A.I.U.A.I.h.u.",
") i.y.i.i.y.y.i.) ) ) ) ) ) ) ) ) ) M ) ) ^ ) 8.8.M 8.^ ^ ) ) ) ~ ~ ~ ) ) ) ) ) ) ) ) ) ) ~ ^ ) i.i."
};
