/* XPM */
static char *result[] = {
/* columns rows colors chars-per-pixel */
"50 50 179 2 ",
"   c #575E7E",
".  c #595D7D",
"X  c #5C6382",
"o  c #5C627C",
"O  c #5E5673",
"+  c #64536B",
"@  c #68536B",
"#  c #63647D",
"$  c #625973",
"%  c #5C5B74",
"&  c #73758A",
"*  c #957E81",
"=  c #7C3133",
"-  c #85221C",
";  c #762D34",
":  c #6C6D84",
">  c #837E85",
",  c #7C3A3D",
"<  c #851F21",
"1  c #852423",
"2  c #8A2222",
"3  c #6E465B",
"4  c #565E81",
"5  c #646A84",
"6  c #6D7489",
"7  c #6E7485",
"8  c #737585",
"9  c #835E64",
"0  c #924442",
"q  c #8E1F1B",
"w  c #92170B",
"e  c #8E180B",
"r  c #813237",
"t  c #6E4555",
"y  c #616581",
"u  c #90453E",
"i  c #8B1B12",
"p  c #931710",
"a  c #8F1710",
"s  c #832C30",
"d  c #733B43",
"f  c #654C5D",
"g  c #706F83",
"h  c #8D7575",
"j  c #937472",
"k  c #8C423E",
"l  c #757A8B",
"z  c #856F77",
"x  c #911910",
"c  c #91180B",
"v  c #6A5166",
"b  c #615B7A",
"n  c #84838C",
"m  c #8C5D5C",
"M  c #872015",
"N  c #8C2116",
"B  c #565D81",
"V  c #686781",
"C  c #8C7B82",
"Z  c #884742",
"A  c #724C5D",
"S  c #807382",
"D  c #864B4D",
"F  c #8B332B",
"G  c #6F3E4C",
"H  c #8D8A8C",
"J  c #8B4C48",
"K  c #8D170A",
"L  c #911707",
"P  c #822C2A",
"I  c #7A353B",
"U  c #6A4B5D",
"Y  c #7B727C",
"T  c #926562",
"R  c #861A0E",
"E  c #7C2B2A",
"W  c #827F88",
"Q  c #855456",
"!  c #8C2C23",
"~  c #645264",
"^  c #565D75",
"/  c #5E6275",
"(  c #9B7772",
")  c #851C14",
"_  c #80252A",
"`  c #6B4C63",
"'  c #918489",
"]  c #8B3B33",
"[  c #5A5D81",
"{  c #95807E",
"}  c #8C2D29",
"|  c #842924",
" . c #786C76",
".. c #946B69",
"X. c #8E1607",
"o. c #78768C",
"O. c #685575",
"+. c #7F808C",
"@. c #876365",
"#. c #787784",
"$. c #957E7C",
"%. c #89211C",
"&. c #576077",
"*. c #6D505A",
"=. c #995D58",
"-. c #934A44",
";. c #92625F",
":. c #8B2A1F",
">. c #736579",
",. c #863931",
"<. c #94544E",
"1. c #831F19",
"2. c #6B6179",
"3. c #8E8486",
"4. c #654B62",
"5. c #7D2423",
"6. c #8D5856",
"7. c #977B77",
"8. c #87332D",
"9. c #695E74",
"0. c #85888D",
"q. c #8C5553",
"w. c #843C3C",
"e. c #866A6B",
"r. c #8A504D",
"t. c #714655",
"y. c #745C6C",
"u. c #766B7C",
"i. c #8E6C6E",
"p. c #8A3D39",
"a. c #764447",
"s. c #837C7E",
"d. c #902C28",
"f. c #8C8489",
"g. c #8E797E",
"h. c #88666A",
"j. c #797B8C",
"k. c #8C6D74",
"l. c #8C6463",
"z. c #796A74",
"x. c #634F57",
"c. c #848392",
"v. c #91888E",
"b. c #79444D",
"n. c #924D48",
"m. c #706A88",
"M. c #903227",
"N. c #787B95",
"B. c #883632",
"V. c #935852",
"C. c #98807F",
"Z. c #695D7A",
"A. c #6C6C7C",
"S. c #945752",
"D. c #987F81",
"F. c #7E2E30",
"G. c #723337",
"H. c #948081",
"J. c #71455C",
"K. c #7D5159",
"L. c #713D4C",
"P. c #B52B1E",
"I. c #B21807",
"U. c #BB1A09",
"Y. c #A9190B",
"T. c #E32E20",
"R. c #DA1A08",
"E. c #EA1A09",
"W. c #C91B0C",
"Q. c #A02B21",
"!. c #A3180A",
"~. c #85504D",
"^. c #8E392F",
"/. c #7F8691",
"(. c #807275",
"). c #92352D",
"_. c #6F404B",
"`. c #7B252C",
"'. c #7F201F",
/* pixels */
"                                                                                                    ",
"                            .                                                                       ",
"                          X o O + @ @ O . o # $ @ @ @ + @ @ @ %                                     ",
"                          & * = - - - ; $ : > , < 1 1 2 2 2 1 3   4                                 ",
"                5 6 7 8 8 9 0 q w e r t % y 7 9 u i p p w w a s d d f                               ",
"              y g h h h j k i a w i 3 4     o l z r 2 x c c x x a i = v b   4                       ",
"            # n m M N N N x c a c i 3 B         V C Z p p p x e e w x 1 A .                         ",
"          6 S D F e e e w w c e - G + 4         # H J K c x x e L L K e P I I U .                   ",
"        o Y T i K L c x x p x R E %   4   .     o W Q ! i c c e L L L L e w K I ~ %                 ",
"    . 5 n Z M e L L L c K K e R = %   4         ^ / Y ( ! L c e e L L L e e e ) _ `                 ",
"    . : ' ] K K e L L L K K K K = % 4 4 [ .       . l { } e c e L L e e e e e L a | t .             ",
"    #  ...F K X.X.L L L K K i | d % B 4 [ .         o.* } L L e e K e K e e e e e X.P ` O.          ",
"  o +.@.M c c e e w L e e e M A %   4 4             #.$.} c c e e e e K e K K e K K a < 3           ",
"  o n T K w w w w w e e K K %.v o   4 X l :     . &.*.k =.-.L L e e e e e e e e K K w i t           ",
"  o n ;.R - | F :.K e e K K q v . B X : z >.    O f d ,.T <.e e e e K e e e w w w e w i t           ",
"  o n T 1.t 2.3.<.K e e K K q v . . #.h E G     4.5.6.7.8.i x x c e e e e c x a x e w i t           ",
"    5 9.4.O y 0.q.K K e e K %.` V > Q w.t +     9.e.r.] M i x x c e L e K } ;.T ;.2 w i t.          ",
"        B   # 0.q.K e R K K - y.u...F 5.O     # >.i.p.K R e e c K e w x 1 a.s.> C D d.) t.          ",
"            o f.q.) i K K K M g.h.) i E %   . j.k.- e w K e L L L K w i 3 % % . # n l.i t.          ",
"            X : z.l.P K e K M $.l.) , x.. . . c.j ) w K e e e e K c w ) 4.  .     5 u.i.>.          ",
"              B 7 v.b.1 R :.p.T n.) t..   y m.k.<.a w K e w e M.F a w ) 4.          5 N.5           ",
"              B 6 c.5 U ) <.7.} K R t.  [ : f.B.i K e K K e 1.T j | e ) 4.            B             ",
"            B B X 5 X U ) V.C.! K R t.  B : f.8.K e w K K P ` Z.A.i.-.) f             B             ",
"            B B B   o U ) S.D.! X.R t.  4 : f.8.K K w w X.F.b   # 3.@.G.+ B                         ",
"              B       ` - V.* } K R t.[   g ' 8.K e w c i = .   o c.#.%   4                         ",
"                      % 4. .* } K ) t.[ . 8 ' F K e e N b.~ .   o 5 X                               ",
"                      B B 8 H.! K e , J.t.K.m ! K e 1 d +   .                                       ",
"                        . & H.! X.w L e i e c L w e L.                                              ",
"                          & H.! X.L w L e L L L L e L.                                              ",
"                          8 { P.I.L L w U.Y.w L w i L.                                              ",
"                          7 C.T.R.w e Y.E.W.w w w i G                                               ",
"                          & $.Q.!.L L w Y.!.w L w i G                                               ",
"                        4 5 Y ~.^.e L L w w w w w i G                                               ",
"                            o n T e e e L w L w w R L.                                              ",
"                            o /.@.e e e e K L w w e L.                                              ",
"                            X 6 z.n.! R e K w w M I ` B                                             ",
"                                5 3.Z - e e c w E $                                                 ",
"                                . # (.T i w c w E $                                                 ",
"                                  [ : Y q.).c P _.$ .                                               ",
"                                      X c.9 `.U . % %                                               ",
"                                        # b $ .   .                                                 ",
"                                                                                                    ",
"                                                                                                    ",
"                                                                                                    ",
"                                                                                                    ",
"                                                                                                    ",
"                                                                                                    ",
"                                                                                                    ",
"                                                                                                    ",
"                                                                                                    "
};
