/* XPM */
static char *result[] = {
/* columns rows colors chars-per-pixel */
"50 50 157 2 ",
"   c #575E7E",
".  c #595E7D",
"X  c #686B87",
"o  c #757891",
"O  c #5D6280",
"+  c #74788C",
"@  c #626581",
"#  c #5A5E81",
"$  c #656A7C",
"%  c #6A6B7B",
"&  c #5C617D",
"*  c #6A6C73",
"=  c #61657D",
"-  c #808492",
";  c #4B4D53",
":  c #13151B",
">  c #4D5371",
",  c #3E415A",
"<  c #757788",
"1  c #3C4046",
"2  c #353845",
"3  c #3E4154",
"4  c #535975",
"5  c #757C8F",
"6  c #4C505E",
"7  c #333543",
"8  c #3A3D54",
"9  c #53546D",
"0  c #5F6169",
"q  c #0B0C13",
"w  c #2B2C3B",
"e  c #666A75",
"r  c #26292E",
"t  c #131420",
"y  c #80818E",
"u  c #4D5056",
"i  c #04050A",
"p  c #010001",
"a  c #2E3144",
"s  c #757787",
"d  c #6D7175",
"f  c #121215",
"g  c #171925",
"h  c #83858E",
"j  c #4D4F6B",
"k  c #777885",
"l  c #747375",
"z  c #0A0A0C",
"x  c #242633",
"c  c #454B64",
"v  c #6A6A6C",
"b  c #3A3A3D",
"n  c #4C4D64",
"m  c #68667F",
"M  c #515252",
"N  c #36394D",
"B  c #6B6F8A",
"V  c #838385",
"C  c #232424",
"Z  c #838394",
"A  c #434449",
"S  c #393B4C",
"D  c #5A5E75",
"F  c #6C708A",
"G  c #818289",
"H  c #1C1D1F",
"J  c #868694",
"K  c #3E3E41",
"L  c #6C7086",
"P  c #868490",
"I  c #6A6C85",
"U  c #6A6D83",
"Y  c #666A84",
"T  c #858888",
"R  c #727684",
"E  c #616162",
"W  c #1B1C23",
"Q  c #888892",
"!  c #424243",
"~  c #52525B",
"^  c #7E8288",
"/  c #65696B",
"(  c #2A2B2C",
")  c #4A4A4D",
"_  c #7D818C",
"`  c #7D8290",
"'  c #353638",
"]  c #32354A",
"[  c #404357",
"{  c #5A5C62",
"}  c #5F6162",
"|  c #5E5F6B",
" . c #636674",
".. c #86868B",
"X. c #858284",
"o. c #271D1E",
"O. c #0C0203",
"+. c #5C6070",
"@. c #7A7C8B",
"#. c #8E8285",
"$. c #722927",
"%. c #3B0B0A",
"&. c #360B09",
"*. c #59110C",
"=. c #17181C",
"-. c #88888E",
";. c #2C2D33",
":. c #958285",
">. c #B32D22",
",. c #831107",
"<. c #330805",
"1. c #650F0A",
"2. c #A7180B",
"3. c #430B06",
"4. c #1A0504",
"5. c #42455A",
"6. c #7F7F83",
"7. c #DB3324",
"8. c #C81908",
"9. c #73130B",
"0. c #7D120B",
"q. c #E01C0B",
"w. c #8D1A0F",
"e. c #6D7486",
"r. c #24252A",
"t. c #A42E26",
"y. c #270605",
"u. c #9A190F",
"i. c #3A0906",
"p. c #100303",
"a. c #747A8A",
"s. c #6C706E",
"d. c #615557",
"f. c #844B4F",
"g. c #4D2729",
"h. c #2E0907",
"j. c #4A0F0E",
"k. c #777876",
"l. c #4C5264",
"z. c #757887",
"x. c #4E4E5D",
"c. c #070811",
"v. c #78787D",
"b. c #1F2021",
"n. c #4D516C",
"m. c #47495E",
"M. c #0D0E19",
"N. c #0F111A",
"B. c #515573",
"V. c #333436",
"C. c #6A7089",
"Z. c #6D707D",
"A. c #585B5F",
"S. c #2B2E42",
"D. c #514F69",
"F. c #272835",
"G. c #2E323C",
/* pixels */
"                                                                                                    ",
"                                                                                                    ",
"                                                                                                    ",
"                                                                                                    ",
"                                                                                                    ",
"                                                                                                    ",
"                                                                                                    ",
"                                                                                                    ",
"                                                                                                    ",
"                                  . . . .           . . . .                                         ",
"                                . . . X o O       . O + @ # .                                       ",
"                              . . . @ $ % &       & $ * = # .                                       ",
"                              . . = - ; : > .   . + * : , # .                                       ",
"                                X < 1 2 3 4   O 5 6 7 8 9 . .                                       ",
"                          . . @ $ 0 q w . . O $ e r t 4 . . .                                       ",
"                          . O y u i p a # . s d f i g 4 . .                                         ",
"                          . @ h ; i 2 j # . k l z x c                                               ",
"                          O % v b z n # . m * M z N &                                               ",
"                        . B V C i q n . @ Z A p p S D .                                             ",
"                        . F G H p q j . @ J K p p S D D     . . . . . . .                           ",
"                      . # L G H p q j # @ P K p p S . . . O I U U U I = .                           ",
"            . . . . . 4 4 U G H p q j . @ P K p p S & D D Y h T T T h R D . . . . .                 ",
"            . . D s E W : A V H p q j # @ Q ! p p ~ h G ^ / ( C C C C ) V ^ ^ _ ` U D .             ",
"          . Y U U v ! p p ' V H p z ] 8 [ { ( p p K E } } ! p p p p p C E E } E |  .$ D .           ",
"        . D < ..V ( p p p ' X.o.O.p i i O.p p p p p p p p p p p p p p p p p p i p ) ^ +.D           ",
"        @ @.A C C z p p p ' #.$.%.p p &.*.O.p p p p p p p p p p p p p p p p p p p f C =.3 &         ",
"        @ -.;.p p p p p p ' :.>.,.<.O.1.2.3.4.p p p p p p p p p p p p p p p p p p p p p x 5.D       ",
"    . . $ 6.( p p p p p p ' :.7.8.9.4.0.q.w.%.p p p p p p p p p p p p p p p p p p p p p p : 4       ",
"    . e.* r.z p p p p p p ' :.t.9.y.O.*.u.i.p.p p p p p p p p p p p p p p p p p p p p p p : 4       ",
"      a.s.z p p p p p p p C d.f.g.p p h.j.O.p p p p p p p p p p p p p p p p p p p p p p p : 4       ",
"    . a.s.z p p p p p p p p z l M p p p p i p p p p p z z z p p p p p p p p p p p p p p i W 4       ",
"  . . a.s.z p p p p p p p p z k.M p p p p p p p p p f 5. .M i p p p p p p p p p p p p p ;.l.D       ",
"  . # a.s.z p p p p q r.z p i ! ) ' z p p p p z r.x ] . ` / i p p p W =.p p p p p p p p 2 &         ",
"    . z.d : i p p p W x.W c.c.p b v.b.i p p p f 9 . . & R { i p p q n S p p p p p p p p 2 &         ",
"    . & e l ( p p p i : 3 n.m.M.z r.v b p p p N.B.. @ _ 1 f p p g c 4 N i p p p p p p p 2 &         ",
"    D D $ -.V.p p p p i m.& . ] w 7 % | 7 z =.7 4 Y $ u 2 w w w 8 & C.5.i p p p p p i x m..         ",
"        = y b z p p p i 3 4 D D . . D R a.g 2 D . o $ t , . . . # @ @.; p p p p p i g 9 D D         ",
"        . = Z.A.i p p p q S.D D . . . & & n.B.. . O & n.4 . .   Y _ V.z p p p p p ;.D.. . D         ",
"        . . I e A f p p p : w w 5.O . . . # # . . . . . . . # I  .) f p p p p i F.m.# # . .         ",
"              $ _ G.q q q q c.c.a . . # # # # .   . . . . . = R M p p p p c.q g 9 O # # # . .       ",
"            . & & 4 > n.n.j j n.B.. # # # # # .   . . . . Y _ ' z p p p c.[ 9 9 D . # # . . .       ",
"                . . # . . . . . . . # # # # # .   . . . I @.h r.p p x a ] B.. . .                   ",
"                                  . . # # # # .   . . . + h ^ w q t j . . . . .                     ",
"                                    . . .           . . O & & B.n.B.4 . . . .                       ",
"                                                                . .                                 ",
"                                                                                                    ",
"                                                                                                    ",
"                                                                                                    ",
"                                                                                                    ",
"                                                                                                    "
};
