/* XPM */
static char *result[] = {
/* columns rows colors chars-per-pixel */
"50 50 186 2 ",
"   c #575E7E",
".  c #595D7D",
"X  c #656C85",
"o  c #72768A",
"O  c #67697D",
"+  c #5D6381",
"@  c #737690",
"#  c #6A6D8C",
"$  c #5D627C",
"%  c #766976",
"&  c #8A757A",
"*  c #6E667C",
"=  c #626582",
"-  c #6B6C7C",
";  c #7A6A80",
":  c #84888E",
">  c #855354",
",  c #742524",
"<  c #69465B",
"1  c #62637C",
"2  c #84838C",
"3  c #897375",
"4  c #7A2A25",
"5  c #75343D",
"6  c #7A7A85",
"7  c #84686E",
"8  c #8B423E",
"9  c #7A4348",
"0  c #654455",
"q  c #62546D",
"w  c #7E7277",
"e  c #864945",
"r  c #864340",
"t  c #6F414D",
"y  c #664C61",
"u  c #6A6D84",
"i  c #93524C",
"p  c #8C1711",
"a  c #723D4B",
"s  c #826F75",
"d  c #92635D",
"f  c #872217",
"g  c #625670",
"h  c #838394",
"j  c #936C6C",
"k  c #84231C",
"l  c #8B1B12",
"z  c #615B7B",
"x  c #5B5C82",
"c  c #78798E",
"v  c #917F81",
"b  c #7D3634",
"n  c #861E15",
"m  c #772C2D",
"M  c #8C8B94",
"N  c #832728",
"B  c #754456",
"V  c #664F6C",
"C  c #7A7C8B",
"Z  c #928584",
"A  c #86312C",
"S  c #841F1B",
"D  c #73404A",
"F  c #5F6883",
"G  c #85727D",
"H  c #925955",
"J  c #7B353A",
"K  c #7E6F78",
"L  c #916B67",
"P  c #8B2C23",
"I  c #69526F",
"U  c #7F8191",
"Y  c #822421",
"T  c #8D190B",
"R  c #8C858C",
"E  c #853A37",
"W  c #695370",
"Q  c #81848F",
"!  c #947474",
"~  c #8A2016",
"^  c #928885",
"/  c #8C3A33",
"(  c #8C170A",
")  c #8E1606",
"_  c #89211A",
"`  c #8D8584",
"'  c #777C8A",
"]  c #931607",
"[  c #91190C",
"{  c #868586",
"}  c #892F28",
"|  c #6D4553",
" . c #684857",
".. c #815B62",
"X. c #9B6461",
"o. c #933024",
"O. c #911A11",
"+. c #92170B",
"@. c #575D81",
"#. c #9C7672",
"$. c #B02319",
"%. c #AA170C",
"&. c #AA1808",
"*. c #BB180A",
"=. c #A5170B",
"-. c #8C2621",
";. c #766177",
":. c #666D89",
">. c #5D5973",
",. c #645972",
"<. c #B07471",
"1. c #E32722",
"2. c #D81914",
"3. c #9B160B",
"4. c #D11A08",
"5. c #F21C0B",
"6. c #937B7A",
"7. c #91848B",
"8. c #747485",
"9. c #6D3B43",
"0. c #7C2729",
"q. c #8D7D7E",
"w. c #A4231A",
"e. c #A91707",
"r. c #B71909",
"t. c #A21707",
"y. c #91342A",
"u. c #8D342B",
"i. c #8B6263",
"p. c #8D5954",
"a. c #8B5E5A",
"s. c #8C4542",
"d. c #92443C",
"f. c #936562",
"g. c #7C6D77",
"h. c #83403F",
"j. c #94827F",
"k. c #8D6F6E",
"l. c #646175",
"z. c #8C8A8B",
"x. c #92716D",
"c. c #793C3D",
"v. c #743641",
"b. c #665679",
"n. c #90241D",
"m. c #995650",
"M. c #8F5650",
"N. c #822C2B",
"B. c #933A31",
"V. c #924741",
"C. c #7A3A43",
"Z. c #67495E",
"A. c #78727D",
"S. c #6B4C5B",
"D. c #7C2B2C",
"F. c #615367",
"G. c #9A736C",
"H. c #6C3D4D",
"J. c #8C4D49",
"K. c #8D504B",
"L. c #743945",
"P. c #7D4951",
"I. c #7C2422",
"U. c #694F65",
"Y. c #783541",
"T. c #947976",
"R. c #901711",
"E. c #743235",
"W. c #90382D",
"Q. c #5A5673",
"!. c #737987",
"~. c #8F8B87",
"^. c #7D666B",
"/. c #6F7888",
"(. c #8D3F39",
"). c #6E5163",
"_. c #8C1C18",
"`. c #822824",
"'. c #866364",
"]. c #6D7282",
"[. c #7B808D",
"{. c #714D5E",
"}. c #5F556D",
"|. c #875E5D",
" X c #793F48",
".X c #6B5D71",
/* pixels */
"                                                                                                    ",
"                                                                                                    ",
"                                                                                                    ",
"                                                                                                    ",
"                                                                                                    ",
"                                                                                                    ",
"                                          . . .                                                     ",
"                                        X o O             + @ #                                     ",
"                                    $ $ % & *           = - & ;                                     ",
"                                  . X : > , <         1 2 3 4 5 .                                   ",
"                                = 6 7 8 9 0 q   .   o w e r t y .                                   ",
"                            . = u 3 i p a . .   = * s d f 4 g                                       ",
"                            + h j k l l a z . x c v b n n m g                                       ",
"                            = M j n N B V . .   C Z A S D y z                                       ",
"                        $ F u G H n J z x x = u K L P k I + .                                       ",
"                        + U & Y p T J z x   c R E n T k W x   .                                     ",
"                        + Q ! ~ T T J .     c ^ / ( ) k W x . .                                     ",
"                        + Q ! _ T T J .     c ` / T ) k W x   .                                     ",
"                        $ Q ! _ T T J .     ' ` / T ] k W x   .                                     ",
"                        $ Q ! _ [ T b .   $ ' ^ / T ] k W x   .                                     ",
"                        $ { ! ~ [ l } |  . ...X.o.[ [ Y W x . .                                     ",
"                        $ { ! _ T l l l p l l O.O.[ [ Y W x . .                                     ",
"                        $ { ! k T [ +.+.+.] ] ] ] ] ] k I x . .     @.@.                            ",
"                        $ 2 #.$.%.] +.] &.*.=.+.] ] ] -.;.# u u X X :.+                             ",
"                  >.g g ,.2 <.1.2.3.+.3.4.5.*.] ] ] T P 6.7.^ ^ ` R : 8.$ $ $                       ",
"                >.9.0.N b q.#.w.=.T [ ] e.r.t.] ] +.T l o.y.u.u.y.u.A i.2 2 C O   $                 ",
"              = - b ( ) l p.a.s.u.T +.+.] +.+.] +.+.T T ) ) ) ) ) ] T d.f.i.i.g.X + x               ",
"              o : h.( ) ) ( P j.L [ +.+.] +.T T T T T T ] ] ] ] ] ] T T T T f k.: l.z .             ",
"              o z.8 ( T T T P ^ L T ] +.T [ T T T T T T ] ] ] ] ] +.T ( [ ] n x.{ c.v.b.            ",
"              o z.8 ( ( p [ n.m.M.8 y.T T T T T T n N.J s.B.T T T T ( ( T ] T V.p.k Y C.Z..   . .   ",
"            $ A.q./ ( p T [ [ [ / j.a.k l T T +.T k S.1 R j n T ( ( T T T T T [ [ O.O.T D.F.>..     ",
"          X U > } O.[ T T ] T ] ~ P V.G.d.T ] [ [ S S.1 { j n ( T T T T T ( T [ [ O.O.] l 0.H..     ",
"        @.X z.J.( [ [ ] ] ] ] ] ] ] o.H K.V.P l N L.;.8.z.x.l ( ( ( T T ( ( T ] ] [ [ ] ] p v..     ",
"        . X z.J.T [ [ T ] ] ] ] +.T T S > 7.P.I. .z 2 z.Z f.l T T T ( T T T ( T ] +.[ +.] p v..     ",
"          u z.J.[ [ [ ] ] ] ] [ ] T D.U.z 1 >.F.>.z 2 6.E P T T ( T T ( ( T ( T T T T T ] p Y.z     ",
"          u z.J.[ [ [ ] ] ] ] ] _ J <   @.@.      + 2 T.k n b h.J./ ( ( T T ( T T T T T ] R.Y.z     ",
"        x u { > _ [ ] ] [ [ p S 5 z .           . $ c & 0.E.,.u M a.( T ( ( ( T T T T T +.R.Y.z     ",
"        x   1 K #.W.) ] [ ] I.S.Q.@.                $ $ F.F.. :.M p.) ( T ( ( T T T T T +.R.Y.z     ",
"          x   !.~./ ) ) T T S C.Z.                        . . = 8.^.J.u.T +.+.T +.+.] ] ] T 5 z     ",
"              /.z.(.) ) T T T T D.).>.                      $ 1 l.% 6.d.T [ [ [ [ [ +.[ l Y L.z     ",
"              !.z.(.) ] T T T [ _.Y 9..                   = U h R a.`.~ [ [ [ [ [ [ [ [ N ).,..     ",
"              O 8.'.i -.[ T T l l p -.Y.Z..           $ ].6 z.! K.W.T T [ [ [ [ [ [ [ +.N.z +       ",
"              . . 6 ` c.Y Y Y Y `.`.Y Y t z           $ [.{ { '.4 ~ ] ] [ [ [ [ [ [ O._ 5 z x       ",
"                  $ $ >.q q q q q q q q >.              + $ $ - q.i T ] T T T T l T N {.}.          ",
"                                                              X M p.T ] T T n J a a < .             ",
"                                                            $ 8.M a.T ] T k D.y x x x               ",
"                                                          = h : z.|.T ] l  Xg z x x x x x x         ",
"                                                        @.+ X u u .X| | | q x x x x x x x x         ",
"                                                                                                    ",
"                                                                                                    "
};
