/* XPM */
static char *_b5ad5027e6a4f52c365288c7a2f395df1RvIDaNg9qkML8F[] = {
/* columns rows colors chars-per-pixel */
"50 50 220 2 ",
"   c #060C10",
".  c #0F161B",
"X  c #141C1E",
"o  c #1B1D1D",
"O  c #171814",
"+  c #1D1E08",
"@  c #17201F",
"#  c #1A231F",
"$  c #151D22",
"%  c #191F22",
"&  c #172021",
"*  c #1A2225",
"=  c #1B2429",
"-  c #1F282E",
";  c #1D2730",
":  c #242425",
">  c #222729",
",  c #232A2C",
"<  c #2A2C2D",
"1  c #282A26",
"2  c #2A302C",
"3  c #33392E",
"4  c #33312B",
"5  c #252D32",
"6  c #2A2D31",
"7  c #273033",
"8  c #2C3234",
"9  c #2C353B",
"0  c #2F383D",
"q  c #333434",
"w  c #33363A",
"e  c #33393C",
"r  c #3A3B3C",
"t  c #353D34",
"y  c #3C4139",
"u  c #4C503D",
"i  c #484638",
"p  c #62653E",
"a  c #2D3942",
"s  c #273143",
"d  c #343C43",
"f  c #3A3E42",
"g  c #333E4A",
"h  c #3C4245",
"j  c #36424C",
"k  c #3C444C",
"l  c #3E484C",
"z  c #364045",
"x  c #3A4651",
"c  c #3D4954",
"v  c #3D4C5A",
"b  c #34455A",
"n  c #3C5059",
"m  c #3B4D63",
"M  c #3D5264",
"N  c #3E5269",
"B  c #3F6065",
"V  c #424344",
"C  c #42464B",
"Z  c #44494D",
"A  c #4B4C4E",
"S  c #444B41",
"D  c #4A5247",
"F  c #565F4E",
"G  c #444C54",
"H  c #4A4E53",
"J  c #424F59",
"K  c #4C5354",
"L  c #45525C",
"P  c #4B545B",
"I  c #495558",
"U  c #545554",
"Y  c #51565A",
"T  c #535A5D",
"R  c #5C5D5C",
"E  c #585855",
"W  c #605D5A",
"Q  c #5E6349",
"!  c #5B665A",
"~  c #6E6F46",
"^  c #61674F",
"/  c #777647",
"(  c #7C7D54",
")  c #666A59",
"_  c #455462",
"`  c #4A5762",
"'  c #4B5964",
"]  c #44566A",
"[  c #4C5D6B",
"{  c #47596A",
"}  c #535D63",
"|  c #545F69",
" . c #5B5E62",
".. c #465973",
"X. c #4B5E74",
"o. c #4F606F",
"O. c #43646A",
"+. c #52616D",
"@. c #5C646B",
"#. c #5B686B",
"$. c #4E6172",
"%. c #4A6677",
"&. c #536573",
"*. c #596673",
"=. c #546877",
"-. c #5D6973",
";. c #51667D",
":. c #556A7C",
">. c #5A6D7D",
",. c #4F707B",
"<. c #6A6966",
"1. c #65696D",
"2. c #686B6B",
"3. c #666564",
"4. c #716C67",
"5. c #75786D",
"6. c #646C74",
"7. c #616D78",
"8. c #6C7275",
"9. c #64727E",
"0. c #69727A",
"q. c #7A7773",
"w. c #7E7A74",
"e. c #75797B",
"r. c #837B3A",
"t. c #90893E",
"y. c #A59A49",
"u. c #85817B",
"i. c #838873",
"p. c #8D9673",
"a. c #556C85",
"s. c #5A6E81",
"d. c #546D8B",
"f. c #5C7284",
"g. c #5D748B",
"h. c #5F7A8C",
"j. c #567488",
"k. c #5F7891",
"l. c #5C7797",
"z. c #4C618A",
"x. c #647583",
"c. c #687680",
"v. c #657983",
"b. c #6D7A85",
"n. c #637A8B",
"m. c #6C7C8A",
"M. c #737C84",
"N. c #707E89",
"B. c #7A7F81",
"V. c #637C94",
"C. c #677E96",
"Z. c #627FA6",
"A. c #57808E",
"S. c #5F8E97",
"D. c #4B858D",
"F. c #6B808F",
"G. c #7F8487",
"H. c #73828B",
"J. c #7A838C",
"K. c #768484",
"L. c #6C8294",
"P. c #6C859D",
"I. c #6F899E",
"U. c #63879B",
"Y. c #7C8B96",
"T. c #75869A",
"R. c #758A9C",
"E. c #7B8E9E",
"W. c #738796",
"Q. c #6984A3",
"!. c #6D89A4",
"~. c #6B89AB",
"^. c #6583A3",
"/. c #738CA6",
"(. c #7B92A7",
"). c #7593B4",
"_. c #7C9BBC",
"`. c #7996B6",
"'. c #7FA4AF",
"]. c #848483",
"[. c #81898F",
"{. c #8A8B8B",
"}. c #8C8983",
"|. c #808D9B",
" X c #88929A",
".X c #94999E",
"XX c #99A991",
"oX c #B0BD9C",
"OX c #A8B288",
"+X c #8096AA",
"@X c #8999A6",
"#X c #939DA8",
"$X c #839CB8",
"%X c #9AA3AA",
"&X c #88A6B7",
"*X c #96A9B1",
"=X c #91AABB",
"-X c #99ACB9",
";X c #8EB3BC",
":X c #8EB0B7",
">X c #92B6BC",
",X c #8BA1A6",
"<X c #A3ADB6",
"1X c #AAB6BD",
"2X c #85A5C6",
"3X c #8AAAC6",
"4X c #96ACC6",
"5X c #9BB4C4",
"6X c #97B7C6",
"7X c #9EB7D1",
"8X c #8BB5CD",
"9X c #A6B9C5",
"0X c #AEBFD0",
"qX c #B7BDC1",
"wX c #A8C6CC",
"eX c #B8C5C9",
"rX c #BBC6D1",
"tX c #C5D6D8",
"yX c #C0DEF8",
"uX c #CEE5E7",
/* pixels */
"* = % = = = = $ = = = = = $ = = $ = $ = ; % % ; % % % ; % % ; % = % = = $ = $ ; % $ = = = = = = = $ ",
"= * = = $ = = = $ = $ = = = % ; = = = = % % ; % % ; % ; ; $ ; % = = % = = = = = = = $ = $ = $ = = = ",
"* = % % = $ $ ; = = = $ = = = $ = = = = = = ; % % 5 % % = = % ; = = = % $ = % $ = = = = % = $ = = = ",
"= % = = = = = % $ = = = $ = % = = $ . $ $ $ $ $ ; g.a $ $ $ $ $ . . % = = = = = % = $ = = = = = $ = ",
"= = = % = = = % = = = = = = = = $ ] X.j 5 a J , 5 |.L . g s > d | 9.= * = = = = = = $ = = = = % = = ",
"= $ = ; $ = = = $ = $ = $ = $ = * s Z.U.:.!.$XC.m C.s.:.8X2XC.4XyXn.X = = $ = $ = $ = = = $ = $ % % ",
"$ = = $ = = $ = = % = = = = $ = = O y ;.a.Q.m.$XX.C.+X)./.7X$X4X*.  $ = $ = = = = = = % = = = = = = ",
"= = = $ = $ = = = = $ = $ = = * $ ^ / K ..a.' !.] /.+XC.*.9X(.G.( ~ = = % = = $ = $ $ ; = % % = = $ ",
"% $ = = = = % % = = $ = = = * * 2 ! z.j.s X.d.l._ C.Z./.4X=Xm.-X4Xi.4 % = = * = % = = = = $ = % = = ",
"= = $ = % = = = = % = = * = $ $ $ u ~ j A.j.a.g.m g.C./.5XT.-X*Xp.^ = $ % = * = = = $ * * = * = = $ ",
"= $ = = $ = = * = = $ = * * > u = & + n 8XS._ j.] g.g.$XH.*XuX} + # $ 9 = = = % * = = * = * = * = * ",
"= = % = = * * = $ % = = * $ ^ OXD M %.'.:X9.S...m g.C.T.*X%XwX5X..] I oX) $ = * = $ $ = = % $ = $ = ",
"= % * * * $ = $ = = * = * $ D ^ o.^.g.` z H.&Xn m V.V.x.tXY.h -.(.3Xv.( ! $ = * * = % = = * * * = * ",
"= = = % = = * 5 = $ * = $ q p.D d.V.g w F.>X:XA.b (.V.(.tXeXn.0 x ).~.! i.6 $ * = * $ $ $ = = * $ = ",
"% % = = = $ 9 Y.0 $ * = $ D p.! l.g.v ;.3X:X6Xn.b V.k.@XtXeX6Xa.j k.).5.OXF $ = * X 9 E.7 $ = = = * ",
"= = % = = $ ; [ x 5 = * $ ; Q J g.%.;.~.).;X>Xf.b l.n.(.tX9X2X2X%.:.^.P Q 5 % * * 6 G T.d $ = % * = ",
"* = * * * = X a =.d 8 5 X y XX!.d.&.l.^.P.=XwXs.m h.h.(.uX*X`.2XQ.;.V.2XXX3 $ = e V X.j $ = * = * * ",
"= $ = = = * * * [ o.8 q 9 l P.d.s.&.g.d.Z.T.,Xa.M g.k.R.eXrX_.!.~.$.f.^.:Xy 9 Z d ' =.= $ = * * * * ",
"% = $ = % = = $ d :.L 0 x ;.f.f.| a.d.{ /.Z G ;.] :.k.W.T e.0X:.).g.[ V.!.$.a d x :.c $ = % $ = * * ",
"= * = = % * = $ = [ o.j ;.g.f.X.s.Z.a.f.H w 6 v { [ L.$.1 d J.#XC._.:.:.V.!.:.j { &., & * = = = = * ",
"$ = % = = % = = % g J { s.&.[ G [ ~.m.0.9 s C c ' ' n.X.K j w #X-X_.X.L &.=.I.$.` c $ = * * * % * * ",
"= * = * % = = % * % J f.&.{ L G  .T.Z  .J 9 Y c J ' >.| 1.d k Y G.5XH x ` [ f.I.G * * * = * * = * * ",
"= % $ = * * = * = = x.&.' _ Y b. .w 5 8.#XqX{.x v :.=.' J.<X1X0.r  .6.[.x L [ L.x.$ * * * * $ * * * ",
"* = * * = * * * & 5 >.{ _ L M.Y k 9 g  X#X1XqXP c =.&. .%X<XeX%Xj 9 f e.[.v ' :./., & = * = = * * * ",
"= $ * % = = = * % a *.{ _ Z Y ` ` 9 g R B.{.1.Z x [ &.P <.{.{.8.G 9 G ' 8.P ` o.L.0 $ * = = * * * * ",
"* = * = = $ * = . x *.' _ r _ &._ > 6 < 3.q.: w j _ *.d : u.3.q f 5 _ :.P C ` { L.j X = $ = $ * * * ",
"= = = * = % * = $ x *._ V f X.[ P o 6 6 r.t.< w g c *.d 1 y./ w 9 O L &.$.C G L v.J X = = * * * * * ",
"* % $ = * = % = % g | h r C [ [ ` | 6.6 q q % w x { *.e O S V w M.G v o.[ G q G n.k . = * * * * * * ",
"% = % * * $ = = % d P r f C ` ` [ b.N.H 1 4 < G g O.X.P O : < Y @Xx.v [ [ Z r f 9.d X = * * $ * * * ",
"= * = * * * * * % g A w V H G H ` c.N.6.< < 6 L j B | | % o q M.#X@.l H P Y V q #.z X = = * = * * * ",
"* % = * * * * * $ L A q V Y Y } ' *.M.b.} 8 = O.d j &.,.% e | Y.|.c G P P 3.V q 1.L X = * * * * * * ",
"* = % * * * * = $ C H 4 r H P ` J @.N.c.7.9 = J M D.*.| . d m.Y. Xx G ' Y U q q #.Z X & * * * * * * ",
"* % = * * * * * % 5 } q q V V q c G 0.b.-.7 = Z n %.+.+.* e c.Y.b.j j w U r 1 r @.> % * * * % = * * ",
"* * * * * * * * * $ d P q : < w e 5 J.b.*.q 4 d C d K A i e x.@Xe.- f q q : r T d $ * * * * * * * # ",
"* * $ = * * * * * * % > = 6 : > & q 8.b.-.7 @ C T K @.q # 9 v.|.6.> > > 1 t , 7 $ = * * * * * % * * ",
"* * * * = & * * * * * * % % = % X E 8.b.-.7 . e  .A @.- X 0 b.H.u.V X $ 1 > $ # = % * * * * * * * * ",
"* * * * * * * * * * * # * & * = X A q.7.-., @ 7 w & h = X e m.e.}.e X = & & * * # * * * * * * * * * ",
"% * & * * & * # * * * * * * * = $ y w.1.#., & 1 < * 3 = X d H.K.u.> # * * * * * * * * * * & * * * * ",
"* * * * = * * * * * * * * # * * @ 8 w.1.-., & = > * 1 = @ d H.].w.# * * * * * * * * # * * * * * * # ",
"* * * * * * * * * # * * * * * * & > 5.1.-., # * * * * = @ z b.}.<.X * * * * * * * * * * * * * * * * ",
"* # * * # * * * * * # * * * * # # * 4.! @.2 @ * * * * * X l H.i.! X = * # * * * * * * * # * * # # * ",
"# * # * * * # # * # * * * # * * * * 4.U @.9 # * * # * * @ I c.5.F @ # = = # * * # * * * * * * * * * ",
"= * * * # > * * * * # * # * * # * * ! K 6.2 @ * # * * * X Y 9.4.K . = # * * * # * * * * * * # * # * ",
"* # # * * # * # # * * # * * # * # * V I +.@ * # * * * * & e 9.I y @ # = # # * * * # * # # # * * * * ",
"# # = * # * # * * # * # # * # * * > 3 y 2 # * * # * # * * # l y 7 @ * * * > # # * * * # * * * # # * ",
"# * * # * # * # # * # * * # # # # = 8 X # * # # # * * # # * @ # 8 * * # * # # * # # * * * # # * * # ",
"* # # # # * # * # * * # * # * # @ * 2 # * # # * * # # * # * # - 2 # * # # * * * * # # * * * * # # * ",
"# # # * # * # # # # # # # # * # # # # * # # * # # * # # * # # # * # # * * # # # * # * # # # # * * # ",
"# # # # # # # # # # # # # # # # # # # # # # # # # # # = # # # * * # # * # * # * # * # * # * * # # # ",
"# # # # # # # # # # # # # # # # # # # # # # # # # # # # # # # # # # # * # # # # * # # @ # # # # * # "
};
