/* XPM */
static char *f608c99b96484dbfe908b06e949e4700oAH30Es432UfzZ7j[] = {
/* columns rows colors chars-per-pixel */
"50 50 86 1 ",
"  c None",
". c black",
"X c #0A0A1D",
"o c #0A0A1F",
"O c #131339",
"+ c #032526",
"@ c #191849",
"# c #0B2F47",
"$ c #323094",
"% c #4240C4",
"& c #4341C7",
"* c #5552FD",
"= c #5552FF",
"- c #5553FF",
"; c #5752FF",
": c #5653FF",
"> c #5753FF",
", c #5554FF",
"< c #5852FF",
"1 c #5853FF",
"2 c #5953FF",
"3 c #5A53FF",
"4 c #5D53FF",
"5 c #5E53FF",
"6 c #5F53FF",
"7 c #6052FF",
"8 c #6053FF",
"9 c #6352FF",
"0 c #6E53FF",
"q c #6D55FF",
"w c #7353FF",
"e c #7853FF",
"r c #7A53FF",
"t c #8453FF",
"y c #8653FF",
"u c #8B53FF",
"i c #8C53FF",
"p c #8F53FF",
"a c #9253FF",
"s c #9453FF",
"d c #9953FF",
"f c #9A53FF",
"g c #9B53FF",
"h c #9C53FF",
"j c #9E53FF",
"k c #9F53FF",
"l c #9E54FF",
"z c #9758FE",
"x c #9B59FE",
"c c #9C59FE",
"v c #9F59FE",
"b c #A053FF",
"n c #A153FF",
"m c #A252FF",
"M c #A253FF",
"N c #A453FF",
"B c #A653FF",
"V c #A853FF",
"C c #AB53FF",
"Z c #AF53FF",
"A c #A855FF",
"S c #A059FE",
"D c #B053FF",
"F c #B353FF",
"G c #B853FF",
"H c #BD53FF",
"J c #C053FF",
"K c #C252FF",
"L c #C453FF",
"P c #C653FF",
"I c #CB53FF",
"U c #CC53FF",
"Y c #CF53FF",
"T c #D053FF",
"R c #D153FF",
"E c #D352FF",
"W c #D353FF",
"Q c #D751FF",
"! c #D452FF",
"~ c #D453FF",
"^ c #D553FF",
"/ c #D652FF",
"( c #D653FF",
") c #D753FF",
"_ c #D957FE",
"` c #DB59FE",
/* pixels */
"##################################################",
"##################################################",
"##################################################",
"##################################################",
"##################################################",
"##################################################",
"######################~###B~######################",
"###################~#~-`)#c~d#####################",
"###################e#~kqxc1d+dd~##################",
"################E#Ef~ak--c-dddi###################",
"#################~+E-d-1--1yy1dHd#################",
"################M1~k1--....---1d+)################",
"#################M--1.......%-d-d#################",
"###############E----.........@-d))d# #############",
"#############kk6EM1-..........1-d~1L##############",
"############# +k6--............--1~###############",
"##############Mkk-.............1-iVM##############",
"###############6d-..............,9)###############",
"#############kYk1-..............-1a1~#############",
"############E+6--...............$-d~+d############",
"###########~~wkM-................1-dd#############",
"###########~#---1................--1F~############",
"#############Ek--................-ddd#############",
"############~M-1-................----#############",
"#############Cd--................1-dFE~###########",
"##########E~~r11-................--M,#############",
"############1~)-1................--kkk~###########",
"############~Vdd-................--F9#############",
"#############E-1-................----u~###########",
"#############Md-1................1Mk- ############",
"############f+~d-...............%--~~~############",
"############# --1-..............--kkk#~###########",
"##############~)0-..............11-###############",
"###############-1-X............---kk##############",
"###############)1-1............1-k++~#############",
"##############L-1d--..........--k+-k##############",
"############ ~)ddaa-.........&1--k~###############",
"###############~+Y-d-O......----L++~##############",
"################~)dd1--...X111w~-M~###############",
"#################ddd-61--1----~J~#################",
"################ ##)1dd----kMkk~#~################",
"##################~dd+d-Sc-kE~IM##################",
"#####################G)-`_S-~#~###################",
"######################)C# ########################",
"######################Y####~######################",
"##################################################",
"##################################################",
"##################################################",
"##################################################",
"##################################################"
};
