/* XPM */
static char *_57b31fada36460ae94ccd0100a41b25yMvLSynz1NxT9JWx[] = {
/* columns rows colors chars-per-pixel */
"50 50 240 2 ",
"   c #3B2624",
".  c #583C39",
"X  c #4A3330",
"o  c #57483A",
"O  c #69513F",
"+  c #0C3449",
"@  c #15354D",
"#  c #19384C",
"$  c #0E3E52",
"%  c #093C56",
"&  c #133C53",
"*  c #1B3C53",
"=  c #133750",
"-  c #1A2D47",
";  c #283949",
":  c #383B4A",
">  c #233C53",
",  c #283A52",
"<  c #3E3F51",
"1  c #463A43",
"2  c #0D434F",
"3  c #11454F",
"4  c #0D4351",
"5  c #0E455A",
"6  c #0E4A5B",
"7  c #0C4858",
"8  c #134354",
"9  c #1C4456",
"0  c #134A55",
"q  c #134559",
"w  c #1B455B",
"e  c #144C5B",
"r  c #1B4A5D",
"t  c #0D515D",
"y  c #15525C",
"u  c #19545E",
"i  c #27434D",
"p  c #36454D",
"a  c #244355",
"s  c #2A4453",
"d  c #23445B",
"f  c #2A445C",
"g  c #274A59",
"h  c #3A4453",
"j  c #374758",
"k  c #30575C",
"l  c #00615F",
"z  c #084C66",
"x  c #144C62",
"c  c #1B4B64",
"v  c #174C67",
"b  c #0C5363",
"n  c #0A5769",
"m  c #145464",
"M  c #195663",
"N  c #155B65",
"B  c #195A64",
"V  c #135B6B",
"C  c #195C6B",
"Z  c #16526A",
"A  c #1A5D72",
"S  c #284D65",
"D  c #364B63",
"F  c #275769",
"G  c #33536A",
"H  c #385466",
"J  c #295A74",
"K  c #355B73",
"L  c #0D616D",
"P  c #15636C",
"I  c #1A636C",
"U  c #1D6B6E",
"Y  c #18666B",
"T  c #156473",
"R  c #1B6672",
"E  c #146A75",
"W  c #1B6C73",
"Q  c #1B6D7A",
"!  c #1A6779",
"~  c #1D7473",
"^  c #1C747B",
"/  c #18787D",
"(  c #0C6F75",
")  c #28636C",
"_  c #226A74",
"`  c #23647B",
"'  c #266B7D",
"]  c #37667A",
"[  c #21767A",
"{  c #386C71",
"}  c #48474A",
"|  c #594948",
" . c #5C5547",
".. c #4B4952",
"X. c #464955",
"o. c #574B54",
"O. c #445356",
"+. c #585756",
"@. c #645949",
"#. c #694F51",
"$. c #72634B",
"%. c #686359",
"&. c #7B645A",
"*. c #777256",
"=. c #495768",
"-. c #525663",
";. c #415B72",
":. c #4B666B",
">. c #53666A",
",. c #5D7469",
"<. c #477479",
"1. c #526E77",
"2. c #787866",
"3. c #757A76",
"4. c #6C6F69",
"5. c #775965",
"6. c #867759",
"7. c #86724F",
"8. c #877A66",
"9. c #8A7473",
"0. c #90756C",
"q. c #13807D",
"w. c #768975",
"e. c #8D815B",
"r. c #918A73",
"t. c #A89571",
"y. c #B2A279",
"u. c #1C7C84",
"i. c #1C7789",
"p. c #167D8B",
"a. c #1B7C8B",
"s. c #177684",
"d. c #1B7E91",
"f. c #0D7085",
"g. c #276A82",
"h. c #346C85",
"j. c #237D8B",
"k. c #2B7C8B",
"l. c #277687",
"z. c #367789",
"x. c #377B92",
"c. c #2E7C92",
"v. c #4A778A",
"b. c #747780",
"n. c #9C7F81",
"m. c #15848B",
"M. c #1C848C",
"N. c #1C8A8D",
"B. c #1A8385",
"V. c #1C8593",
"C. c #158A94",
"Z. c #1C8B93",
"A. c #1D8D9A",
"S. c #168694",
"D. c #1D9395",
"F. c #1C949A",
"G. c #1B9A9C",
"H. c #169095",
"J. c #198C8C",
"K. c #23828D",
"L. c #228C8D",
"P. c #248386",
"I. c #238391",
"U. c #238C94",
"Y. c #238D9A",
"T. c #2B8797",
"R. c #338B9D",
"E. c #388697",
"W. c #249394",
"Q. c #249996",
"!. c #24949A",
"~. c #249C9B",
"^. c #299C9B",
"/. c #2A9395",
"(. c #369499",
"). c #2D8E8D",
"_. c #24A19E",
"`. c #2AA29D",
"'. c #39A09D",
"]. c #1D9CA3",
"[. c #378EA1",
"{. c #239BA2",
"}. c #2896A3",
"|. c #3C9CAB",
" X c #3897A6",
".X c #3C9FB2",
"XX c #1EA7A4",
"oX c #1FB0AB",
"OX c #23A5A2",
"+X c #29A5A2",
"@X c #2AABA6",
"#X c #25ADAA",
"$X c #2BADAB",
"%X c #25AAA6",
"&X c #34A5A3",
"*X c #36AAA8",
"=X c #24B2AC",
"-X c #2BB1AE",
";X c #36B1AC",
":X c #2BB4B2",
">X c #2AB8B5",
",X c #32B8B4",
"<X c #4A869B",
"1X c #568B99",
"2X c #4E8991",
"3X c #708F8E",
"4X c #75A397",
"5X c #4795A8",
"6X c #5598AD",
"7X c #429EB1",
"8X c #6399A7",
"9X c #749EB1",
"0X c #48A7B6",
"qX c #5CA7B5",
"wX c #49B4BB",
"eX c #54ACB2",
"rX c #74A8AD",
"tX c #54B8C8",
"yX c #47BFC0",
"uX c #66BDC7",
"iX c #73ADC7",
"pX c #39C0C3",
"aX c #71CAD4",
"sX c #9D9A84",
"dX c #8E938B",
"fX c #A29389",
"gX c #AFB094",
"hX c #93AFA8",
"jX c #B5B2A4",
"kX c #92A991",
"lX c #C1B39F",
"zX c #B0C5AD",
"xX c #BDC29A",
"cX c #C3C9B2",
"vX c #8DCED5",
"bX c #A8DDE6",
"nX c #8FE5E9",
"mX c #B1EEF3",
"MX c #AECECD",
"NX c #C9FFFF",
/* pixels */
"B.J.J.Q.Q.Q.~.G.D.D.W.D.Z.N.L.K.N.N.m.m.M.M.p.p.f.V.T.d.d.p.d.i.p.C.C.A.d.d.p.s.m.J.~._.`.`.;X&X).Q.",
"J.J.Q.Q._.`.`.`.~.~.!.W.U.U.U.L.U.N.N.B.N.m.M.p.p.I.T.V.d.i.d.d.S.S.].A.I.d.m.u.B.H.Q._.`.;X&X`.Q.).",
"J.J.Q.^.~.^.`.OX~.!.!.W.W.U.Y.U.W.Z.V.N.V.N.N.m.V.Z.Y.V.d.d.d.S.].].}.}.Y.V.V.m.D.D.~.+X@X;X+X`.).Q.",
"N.W.Q.Q.^.^.^.^.~.~.!.!.U.U.U.U.Z.D.Z.V.N.V.S.S.A.!.Y.V.d.d.S.A.].].].Y.Y.Z.N.V.D.~._.@X;X;X`.Q.Q.).",
"N.N.W.W.~.~.^.^.^.!.!./.U.U.U.U.U.Z.Z.D.Z.Z.Z.Z.}.A.A.Z.C.S.C.].].XX].].D.Z.Z.Z.~.OX`.-X,X;X`.Q.'.q.",
"L.N.W.W.W.!.!.^.!.!.!.W.Y.U.U.I.N.Z.Z.Z.Z.Z.V.A.!.A.Z.C.C.C.A.].].XX].].C.Z.Z.D._.XX%X,X,X-X_.Q.`.Q.",
"N.N.L.W.U.W.!./.U.W.Y.V.K.N.V.M.N.M.I.U.V.Z.A.Y.!.A.S.C.V.C.A.].].G.G.F.H.Z.H.G.OXXX#X,X,X@X_.Q.Q.Q.",
"u.B.M.K.L.I.U./.K.N.P.B.a.p.i.p.a.V.I.I.V.I.Y./.Y.V.V.C.V.S.A.}.G.G.G.F.H.C.D.~.XXXX#X,X,X%X_._.Q.`.",
"P.u.u.P.B.P.a.P.I.u.i.a.d.d.d.T.f.i.j.d.i.d.R.}.d.I.U.V.M.I.Y.U.H.F.F.H.J.D.G.G.XX=X>X>X=XXXOX`.`.`.",
"u.u./ u.j.j.j.j.K.j.j.I.c.d.d.T. X[.j.i.i.i.d.T.T.I.a.a.I.Y.U.Z.W.F.H.m.m.D.{.].XX=X>X>X=X%XXXOX`.`.",
"s.Q ! Q s.g.j.k.c.k.T.R.[.[.R.[.5X[.[.c.[.R.c.p.i.j.I.a.u.a.I.T.Z.m.m.N.D.!.~.~.%X=X>X=X=X#X#X@X`.%X",
"! E T T ! g.l.k.l.k.c.E.[.[.[.[.[.7X7X5X7X7X[.p.T.T.I.c.T.R.j./ V./ / /. XW.D.+X@X=X=X=X=X=X#X$X@X`.",
"! T V A ! g.l.z.g.g.g.i.c.c.c.[.7X.X.X7X7X|.[.R.K.0XtXeXK.E E I.P.s.s.P.R. X*X*X,X=X=X=X=X=X#X$X@X@X",
"A V L A ! g.g.z.A ! g.g.c.c.[.x.tX[. XtXtX|.[.0XtX0X7X|.7X(.u.n E T.E.j.R.eXyXOX;X=XoXoX=X:X:X#X@X@X",
"V V A A ` g.h.g.A g.g.g.c.[.5X.X.X}..XtXtXyX|.*XwX7X(.}.0XeX XL.l.E.<X).(.tXaX,X-X=XoXoX=X>X:X=X@X%X",
"V V A J g.h.h.h.Z J A g.h.x.5X5X7X.X.X X7XeX0X X0X5X(.5XqXaXaXuXqX6XE.k.E.qXaXnX&X`._.XX:X>X>X>X=X@X",
"n A A Z f h.h.h.* g.c g.h.x.8Xx.c.E.<X6X8XeX5X2XE.' ).1X1X2X1X8XiXiXx.v.x.x.vXmXiXK.7X_.-XpX,X>X#X+X",
"z A Z v c h.h.h.c S f G h.v.v.h.g.h.v.2X8X6X2X2X{ ) ) [ F 9 = = iX9Xg.v.S v.vXmXmXeX).'.yX,X>XpX@X`.",
"x Z v v c g.h.G * S S g.G h.v.K K <.<.2XrX4X4X4XhX4X4X1Xv.;.D - K <.v.+ v.bXhXbXNXvXP./ J.@X,X-X_.`.",
"x m v w c D D h.= d S G G G h.S G ;.1.4XzXzXhXzXhXkXw.w.3.1.=.- # g H g NXvX8XbXmXvX).( l Q.,X@X_.~.",
"e r r w d S G G d d G G D ;.K D j >.w.jXzXzXgXzXgXsXr.3.3.dXb.=.-.:.k 3X4X1XrXmXnX5X(.'.( `.`.`.Q.W.",
"q q q w c S S G f , D D =.;.=.: +.*.sXcXjXsX2.*.w.w.3.3.9.fXhXdX3.w.dX:.1.4XrXnXeX~ (.^.q.;X*X`.W.W.",
"& & * w f f D D , , D D , =.X.X.2.e.gXgXr.@.X    .@.&.8.t.lXlXjXr.3X3.3XrX<.iXrXq.j.(.s.q.;X'.q.L.N.",
"@ @ * > d f f D , , D < < -.=.o.7.7.y.y.$.X X   X . &.0.sXgXxXgXkX4.hXMX{ 8X6Xs.[ (.(./.0Xq.).).L.L.",
"* # @ @ * > > > > - j ; 1 -.< o.7.e.y.7.#.fXjX@.| #.X 5.9.sXzXr.,.,.kX1.{ 5XQ i.d.A.}.}.~.W.B.L.L.P.",
"# * * # @ # > > > ; j : < o.1 #.7.7.0.6.7.t.lXr.. 0.7.X | 2.w.w.,.,.2X{ { z.i.s.d.A.}.}.!.L.B.L.P.P.",
"@ * w = @ = = = > ; h ; : 1 1 o.0.0.9.8.$.6.e.e.0.. 7.5.o O.i k 1.<.{ ) _ T i.f.A.A.A.A.V.M.P.P./ P.",
"# * * & = = * = > , h ; : 1 1 #.0.n.r.r.6.8.e.e.t.O O #.kXO.p u ) ) F _ ^ E s.f.A.d.A.V.B.B.P.q.[ [ ",
"= * = = = w w & 9 > j : X.o.1 o.9.n.n.9.w.e.t.t.t.0.. o.3XhXh.J F C _ W ! f.E M.d.V.V.a.q.[ q.[ [ [ ",
"& * % % 5 c v c d g , p X.o.1 | #.9.9.&.O w.e.e.7.6.&.9.O.hXh.Z ` T ' R V E E K.j.a.j./ q.~ [ [ [ [ ",
"= % % & q c J J F S ; ; X...| | | #.#.o @.$.6.0.$.6.9.| kXk 0 ) ! ' T L L L [ [ q./ ~ ~ ~ U ~ ~ [ [ ",
"% q 5 % % v J J J G ; ; X...... &.o  . .@.o %.%.5.9.1 >.>.i B C n l.b T E n P.U [ ~ ~ ~ ~ U U U _ _ ",
"% z z z v v c d K , - ; : } X...+.%.%.%.%.+.+.+.X.=.>.:.k k u B C V V V P E Q ^ Q ~ W U U W R _ Y U ",
"z z z z x v c S > > ; j h : p p O.p k O.O.p h h p j k G S u u N C V V n P E E ^ E E W W Y W _ U _ Y ",
"f.z z v v x r d @ # s j j ; ; : p p p p i ; p i g a g r u M N N N n n N P T E W Y P P P Y Y I I ) Y ",
"z z Z Z x 8 = + * > f s s ; ; s i i a i i i a a g g r e M N m n N N b V P P R R L P P Y C C C N I I ",
"v v m x x 8 $ + d d a a a a a g 9 9 9 r 9 8 w w r r x m m b b t b m m N V T P I L u N Y I I u u B I ",
"v x q 7 % 8 8 9 9 9 9 9 g 9 9 8 4 q q e q w q q e e x V b b b b b m m N N C V N u P u N u B u P I B ",
"x q 4 $ 8 & w r 8 9 w 9 9 8 3 8 5 6 e x e x x e x x m m m b n t m m m Z M N m y y N y L u N u P B B ",
"$ 4 4 8 $ 8 8 8 & 8 0 8 4 7 0 q 5 z 6 6 6 5 e e x y y 6 6 t t t m m Z m Z M m y N t y y y y u u M M ",
"8 3 3 8 3 & 3 8 8 4 0 q e e 6 7 7 6 6 e 6 7 0 7 y y y y 0 t y y y e x M x u 0 y y y u y u u u u B M ",
"3 3 8 3 8 3 8 8 8 4 q q 6 6 z 7 6 q q e e 0 0 7 0 0 0 0 0 0 0 y e y x m u u y y y y r y y u u u u M ",
"3 3 3 & 3 8 3 & 4 4 8 7 e 6 5 5 0 7 0 0 0 0 7 0 0 0 0 0 0 0 0 0 e m y y e y 0 u 0 y y y y y y y M M ",
"2 & 3 3 & 3 8 2 & 8 5 q 5 6 7 5 8 0 8 9 0 9 0 3 0 0 0 3 0 0 8 e e b x y y r r 0 r 0 0 y y y y y y y ",
"2 2 2 2 8 3 & 8 8 & 8 8 q 5 5 q 8 8 w e 0 9 8 8 0 0 8 0 8 q q e e y 6 e 0 y 0 u 0 u 0 y 0 y y y y y ",
"2 2 4 2 4 4 8 & & 8 8 8 8 q 5 9 8 9 9 8 q 8 q 5 0 0 8 0 q q e e e t t 6 y 0 u 0 0 0 y 0 y y y y y y ",
"2 4 2 4 4 & & 8 8 8 8 & 9 8 8 9 8 q q q q q 5 5 x 7 5 5 x 5 x x t t e 0 0 0 0 0 u 0 3 y y y y l y N ",
"7 2 4 4 4 4 4 $ 8 & $ 8 8 8 8 q 8 w q q q q 5 5 5 5 5 x q x x x 6 t 6 0 0 0 0 u 0 u y u 0 y y y y y ",
"4 % 2 % $ $ $ $ 3 $ & & 8 8 q & q w q q q q q 5 5 4 q q q x x e e e 7 0 6 e 0 6 e e y e y y y y m y ",
"$ 2 $ % $ $ $ 2 $ $ 4 8 5 8 8 8 5 5 q q q 8 q 8 8 7 5 8 q q q x e 6 0 0 6 e y 6 0 e e y y y r y u u "
};
