/* XPM */
static char *a1a4c65cb3cd4ecfbff6d07bfa5629f01b4UkKZBtIGynlQb[] = {
/* columns rows colors chars-per-pixel */
"50 50 147 2 ",
"   c #010203",
".  c gray1",
"X  c #040000",
"o  c #0A0000",
"O  c #01020A",
"+  c #04050C",
"@  c #0B0B0C",
"#  c #110302",
"$  c #150100",
"%  c #1F0101",
"&  c #050611",
"*  c #060713",
"=  c #0A0C14",
"-  c #0B0E1C",
";  c #101115",
":  c #141417",
">  c #15171F",
",  c #1E1E1F",
"<  c #230000",
"1  c #300201",
"2  c #370201",
"3  c #3E0302",
"4  c #141524",
"5  c #181A24",
"6  c #1C1E29",
"7  c #1E2031",
"8  c #1F2235",
"9  c #232527",
"0  c #25252E",
"q  c #202433",
"w  c #212437",
"e  c #2D2E31",
"r  c #272A39",
"t  c #2A2C3D",
"y  c #2E3139",
"u  c #333637",
"i  c #373838",
"p  c #470603",
"a  c #490301",
"s  c #5B0904",
"d  c #620B06",
"f  c #7A0B06",
"g  c #6F110A",
"h  c #7B3A37",
"j  c #0B2F47",
"k  c #292D40",
"l  c #2E3144",
"z  c #2D3149",
"x  c #373A44",
"c  c #3D3E42",
"v  c #33374A",
"b  c #35394D",
"n  c #393F51",
"m  c #393C52",
"M  c #3E435A",
"N  c #424343",
"B  c #444749",
"V  c #4B4B54",
"C  c #4E4F55",
"Z  c #44465E",
"A  c #4A505D",
"S  c #535456",
"D  c #52545B",
"F  c #555A58",
"G  c #5B5D5E",
"H  c #7B4C4A",
"J  c #444A66",
"K  c #484B64",
"L  c #4A4D68",
"P  c #4A5067",
"I  c #4D516C",
"U  c #545863",
"Y  c #5E5E63",
"T  c #52546A",
"R  c #54576B",
"E  c #4E5473",
"W  c #525474",
"Q  c #5A5770",
"!  c #545A75",
"~  c #5A5D75",
"^  c #585E7E",
"/  c #5B617D",
"(  c #626263",
")  c #63656A",
"_  c #68676A",
"`  c #69696C",
"'  c #646675",
"]  c #666B74",
"[  c #696B77",
"{  c #62657E",
"}  c #68677E",
"|  c #656B7D",
" . c #6B6C7C",
".. c #6E7375",
"X. c #727070",
"o. c #727072",
"O. c #74757B",
"+. c #70707E",
"@. c #777B7C",
"#. c #7C7D7E",
"$. c #850A03",
"%. c #9A0C03",
"&. c #901209",
"*. c #96130B",
"=. c #A71003",
"-. c #C61407",
";. c #CD1204",
":. c #E31404",
">. c #9C504B",
",. c #A44E46",
"<. c #845F68",
"1. c #C55144",
"2. c #81807C",
"3. c #565D81",
"4. c #5A5C82",
"5. c #5C6282",
"6. c #626582",
"7. c #686583",
"8. c #656A84",
"9. c #6A6C85",
"0. c #6C7385",
"q. c #6A728A",
"w. c #6F7089",
"e. c #737586",
"r. c #777C84",
"t. c #7D7E84",
"y. c #74758B",
"u. c #767C8B",
"i. c #747B8E",
"p. c #7A7888",
"a. c #7B7C8A",
"s. c #767791",
"d. c #767C92",
"f. c #7F838D",
"g. c #7B8296",
"h. c #808281",
"j. c #838286",
"k. c #868587",
"l. c #82808B",
"z. c #82838B",
"x. c #88878B",
"c. c #858B8E",
"v. c #898988",
"b. c #8A898D",
"n. c #858593",
"m. c #868C93",
"M. c #8B8A95",
/* pixels */
"j j j j j j j j j j j j j j j j j j j j j j j j j j j j j j j j j j j j j j j j j j j j j j j j j j ",
"j j j j j j j j j j j j j j j j j j j j j j j j j j j j j j j j j j j j j j j j j j j j j j j j j j ",
"j j j j j j j j j j j j j j j j j j j j j j j j j j j j j j j j j j j j j j j j j j j j j j j j j j ",
"j j j j j j j j j j j j j j j j j j j j j j j j j j j j j j j j j j j j j j j j j j j j j j j j j j ",
"j j j j j j j j j j / u.A 7 w M j j j j j j j j j j j j 5.q.0.0.5.j j j j j j j j j j j j j j j j j ",
"j j j j j j j / 6.{ | O.u . & v j j j j j j j j j j j j 5.i.c.c.0.~ K K L j j j j j j j j j j j j j ",
"j j j j j j j 6.n.M.O.; . & K ! j j j j j j j j j j j j j / 0.m.M.Y + O 7 j j j j j j j j j j j j j ",
"j j j j j j 9. .c i e . > b ! j j j j j j j j j j j j j j j 5.0.n.Y . . + 7 7 v j j j j j j j j j j ",
"j j j j / 6.u.... . . . t j j j j j j j j j j j j j j j j j j j t._ > X . . . - Z W j j j j j j j j ",
"j j j j 6.f.c.... . . . t j j j j j j j j j j j j j j j j j j j t.x.h., . . . . + M j j j j j j j j ",
"j j j j 7.c.S 9 . . . k K j j j j j j 4.y.9.j j j j j 6.i.5.j j | a.v., . . . . . - z j j j j j j j ",
"j j j j 7.b.i . . . + W j j j j j j | 8.[ ' j 5./ / 6.| | / j j j  .k., . . . . . . & M W / j j j j ",
"j j j j } x.u . . . + T j j j j j ~ e.r.> t j 5.^ / g.U = J j j j  .k., . . . . . . . . m j j j j j ",
"j j j w. .u @ . . . . 4 m j j j / i.G e x K j j 8.r.M y b W j j e.z.v., . . . . . . . . * t ! j j j ",
"j j j a.o.. . . . . . . r j j 5.| [ u . L j j 6.| ) = 7 j j j j p.h._ ; . . . . . . . . . + M E j j ",
"j j j a.o.. . . . . . . r j j y.@.; . + L 4./ z.A . . 8 j 4.j j f.Y . . . . . . . . . . . . . v j j ",
"j j j p.` . . . . . . . y j j 0.#.@ > M ! ^ ^ x.S X l K j 4.8.a.N : . . . . . . . . . . . . . v j j ",
"j j j p.X.. . . . . . . 6 Z ' ] F . r 3.4.6.} _ i . J 4.j 8. .) = . . . . . . . . . . . . . . v j j ",
"j j j r.X.. . . . . . . . ; 2.B . . r 3.4.y.z.4 . . K 4./ p.U . . . . . . . . . . . . . . . . v j j ",
"j j j f.X.. . . . . . . . @ h.N . . t ^ 4.y.z.: . . K 8.a.x > . . . . . . . . . . . . . . . . v j j ",
"j j j p.X.. . . . . . . . @ h.N . . t ^ ^ e.z.; . O Q [ Y @ . . . . . . . . , 4 . . . . . . . v / j ",
"j j j p.X.. . . . . . . . @ 2.M . . t ^ ^ e.j.: . . o.S . . . . . . . . . X ( _ . . . . . . . v j j ",
"j j j p.X.. . . . M F . . @ <.N . . r ^ ^ e.j.: . . , = . . . . . . . . . . V  .` , . . . . . v j j ",
"j j j a.` . . . : ) #.. . ; f.B . . 4 m m V S @ . . . . . . & 5 0 , . . + 5 L 7.a.V 4 . . . 4 Z j j ",
"j j j u...@ . - T a.@.. . @ c.B . . . . . . . . . . . . . . 6 ~ j.G X . 4 R j j j u.] @ . > U j j j ",
"j j j } | ' T K ~ u.@.. . @ <.H s . . o d 3 . . . . . . . t P / z.Y . . 4 ! j j j / | ] A K j j j j ",
"j j j j / d.8.j j 9.O.i 0 e j.,.=.a $ < %.$.1 o . . . + 8 I 5./ e.' y 0 l ! j j j j / d.8.j j j j j ",
"j j j j j / / j j j { z.y.{ x.1.:.*.p < ;.-.g o . . . 8 j j j j j 9.n.9.4.j j j j j j j j j j j j j ",
"j j j j j j 5.j j j j { 6.{ b.>.%.2 X $ &.f % . . . m W j j j j j / | / j j j j j j j j j j j j j j ",
"j j j j j j j j j j j j j 4.s.<.h $ . . p 1 . . . . L j j j j j j j j j j j j j j j j j j j j j j j ",
"j j j j j j j j j j j j j j j y.@.@ . . . . . . . . K j j j j j j j j j j j j j j j j j j j j j j j ",
"j j j j j j j j j j j j j j j y.#.@ . . . . . . . . L j j j j j j j j j j j j j j j j j j j j j j j ",
"j j j j j j j j j j j j j j j 9.+.N 4 . . . . . @ w I j j j j j j j j j j j j j j j j j j j j j j j ",
"j j j j j j j j j j j j j j j j j n.S . . . . . 0 j j j j j j j j j j j j j j j j j j j j j j j j j ",
"j j j j j j j j j j j j j j j j j {  .` @ . . . q j j j j j j j j j j j j j j j j j j j j j j j j j ",
"j j j j j j j j j j j j j j j j j j 8.e.V 4 . 5 M j j j j j j j j j j j j j j j j j j j j j j j j j ",
"j j j j j j j j j j j j j j j j j j j / z.D - P j j j j j j j j j j j j j j j j j j j j j j j j j j ",
"j j j j j j j j j j j j j j j j j j j j { ~ P j j j j j j j j j j j j j j j j j j j j j j j j j j j ",
"j j j j j j j j j j j j j j j j j j j j j j j j j j j j j j j j j j j j j j j j j j j j j j j j j j ",
"j j j j j j j j j j j j j j j j j j j j j j j j j j j j j j j j j j j j j j j j j j j j j j j j j j ",
"j j j j j j j j j j j j j j j j j j j j j j j j j j j j j j j j j j j j j j j j j j j j j j j j j j ",
"j j j j j j j j j j j j j j j j j j j j j j j j j j j j j j j j j j j j j j j j j j j j j j j j j j ",
"j j j j j j j j j j j j j j j j j j j j j j j j j j j j j j j j j j j j j j j j j j j j j j j j j j ",
"j j j j j j j j j j j j j j j j j j j j j j j j j j j j j j j j j j j j j j j j j j j j j j j j j j ",
"j j j j j j j j j j j j j j j j j j j j j j j j j j j j j j j j j j j j j j j j j j j j j j j j j j ",
"j j j j j j j j j j j j j j j j j j j j j j j j j j j j j j j j j j j j j j j j j j j j j j j j j j ",
"j j j j j j j j j j j j j j j j j j j j j j j j j j j j j j j j j j j j j j j j j j j j j j j j j j ",
"j j j j j j j j j j j j j j j j j j j j j j j j j j j j j j j j j j j j j j j j j j j j j j j j j j ",
"j j j j j j j j j j j j j j j j j j j j j j j j j j j j j j j j j j j j j j j j j j j j j j j j j j ",
"j j j j j j j j j j j j j j j j j j j j j j j j j j j j j j j j j j j j j j j j j j j j j j j j j j "
};
