/* XPM */
static char *result[] = {
/* columns rows colors chars-per-pixel */
"50 50 179 2 ",
"   c #7E1F1E",
".  c #7D2725",
"X  c #7C2028",
"o  c #7F2A2C",
"O  c #772931",
"+  c #7D2D30",
"@  c #733034",
"#  c #7B3238",
"$  c #7D373A",
"%  c #0B2F47",
"&  c #6F3C4B",
"*  c #6F3E4A",
"=  c #743841",
"-  c #723A4B",
";  c #774245",
":  c #7A424C",
">  c #6E4354",
",  c #634E56",
"<  c #6E445B",
"1  c #654B5D",
"2  c #6D4F5A",
"3  c #6A4A5D",
"4  c #724454",
"5  c #72435C",
"6  c #734B5D",
"7  c #7E5058",
"8  c #5E5574",
"9  c #555D76",
"0  c #5C5B75",
"q  c #565E7F",
"w  c #585D7E",
"e  c #654A62",
"r  c #6B4B63",
"t  c #645164",
"y  c #6A5066",
"u  c #64526B",
"i  c #68526B",
"p  c #755C6C",
"a  c #685476",
"s  c #625874",
"d  c #695E75",
"f  c #615B7B",
"g  c #695D7B",
"h  c #5E6276",
"j  c #566078",
"k  c #5C627D",
"l  c #63647E",
"z  c #6B617A",
"x  c #6C6C7D",
"c  c #7A6A75",
"v  c #796C77",
"b  c #74657A",
"n  c #776B7D",
"m  c #7C737D",
"M  c #8F0E01",
"N  c #871306",
"B  c #8E1003",
"V  c #8F1103",
"C  c #86150C",
"Z  c #8C140A",
"A  c #881A0D",
"S  c #8D1B0E",
"D  c #921001",
"F  c #931003",
"G  c #921103",
"H  c #901007",
"J  c #921207",
"K  c #941007",
"L  c #841912",
"P  c #861C15",
"I  c #8A1B15",
"U  c #8F1914",
"Y  c #86191B",
"T  c #861F1E",
"R  c #8B1C1C",
"E  c #A41103",
"W  c #AA1203",
"Q  c #B31101",
"!  c #BC1302",
"~  c #85241F",
"^  c #8C2519",
"/  c #8D281E",
"(  c #A1271B",
")  c #B62718",
"_  c #812025",
"`  c #832825",
"'  c #8D2924",
"]  c #84282C",
"[  c #912823",
"{  c #912E22",
"}  c #8C3027",
"|  c #87362D",
" . c #883029",
".. c #8F362B",
"X. c #89332E",
"o. c #933229",
"O. c #822E34",
"+. c #8C3830",
"@. c #8B3A36",
"#. c #853939",
"$. c #CA1404",
"%. c #DB1302",
"&. c #EB1302",
"*. c #E42A1A",
"=. c #8D403C",
"-. c #91433C",
";. c #894540",
":. c #8C4B46",
">. c #874A4C",
",. c #864F4C",
"<. c #8B4F4C",
"1. c #934240",
"2. c #944942",
"3. c #934C46",
"4. c #95534D",
"5. c #865355",
"6. c #8D5452",
"7. c #8E5755",
"8. c #8D5D5C",
"9. c #955651",
"0. c #945751",
"q. c #9A5D57",
"w. c #93625F",
"e. c #845E64",
"r. c #8D6463",
"t. c #886365",
"y. c #89666A",
"u. c #876A6B",
"i. c #8F6C6E",
"p. c #936562",
"a. c #956B69",
"s. c #8D6D75",
"d. c #817376",
"f. c #8E7676",
"g. c #867078",
"h. c #847D7F",
"j. c #8F7A7F",
"k. c #947573",
"l. c #9C7873",
"z. c #967F7D",
"x. c #987C78",
"c. c #96817F",
"v. c #555D82",
"b. c #555E82",
"n. c #5A5D82",
"m. c #5C6383",
"M. c #616582",
"N. c #686782",
"B. c #646A85",
"V. c #6C6D85",
"C. c #706A89",
"Z. c #6E7586",
"A. c #6D758A",
"S. c #707084",
"D. c #747686",
"F. c #797885",
"G. c #74768B",
"H. c #79778D",
"J. c #767B8C",
"K. c #7A7C8D",
"L. c #797C96",
"P. c #817483",
"I. c #847F86",
"U. c #8D7C83",
"Y. c #967F82",
"T. c #8F8587",
"R. c #838089",
"E. c #80818D",
"W. c #85848D",
"Q. c #8D858A",
"!. c #86898E",
"~. c #8E8B8D",
"^. c #958182",
"/. c #998180",
"(. c #998082",
"). c #92858A",
"_. c #92898F",
"`. c #808792",
"'. c #858493",
/* pixels */
"% % % % % % % % % % % % % % % % % % % % % % % % % % % % % % % % % % % % % % % % % % % % % % % % % % ",
"% % % % % % % % % % % % % % % % % % % % % % % % % % % % % % % % % % % % % % % % % % % % % % % % % % ",
"% % % % % % % % % % % % % m.k 8 u i i 8 % k l s i i i u i i i 0 % % % % % % % % % % % % % % % % % % ",
"% % % % % % % % % % % % % G.Y.+ P P P O s V.I.$ Y T T R R R T < % b.% % % % % % % % % % % % % % % % ",
"% % % % % % % % B.A.Z.D.D.e.1.U F V O.> 0 M.Z.e.-.Z K K F F H ] = = 1 % % % % % % % % % % % % % % % ",
"% % % % % % % M.S.f.f.f.k.=.Z H F Z < b.q q k J.g.O.R J G G J J H Z + y f % b.% % % % % % % % % % % ",
"% % % % % % l W.8.A S S S J G H G Z < v.q q q q N.U.;.K K K J V V F J T 6 % % % % % % % % % % % % % ",
"% % % % % A.P.>.} V V V F F G V P & u b.q q q q l ~.:.B G J J V D D B V ` # # 3 % % % % % % % % % % ",
"% % % % k m p.Z B D G J J K J N . 0 q b.q w q q k R.5./ Z G G V D D D D V F B # t 0 % % % % % % % % ",
"% % % B.W.;.A V D D D G B B V N + 0 q b.q q q q 9 h m l./ D G V V D D D V V V C _ r % % % % % % % % ",
"% % % V.).+.B B V D D D B B B B + 0 b.b.n.w q q q w J.c.' V G V D D V V V V V D H ~ > % % % % % % % ",
"% % l v a.} B M M D D D B B Z ~ = 0 v.b.n.w q q q q H.Y.' D D V V B V B V V V V V M ` r a % % % % % ",
"% k E.t.A G G V V F D V V V A 6 0 q b.b.q q q q q q F.z.' G G V V V V B V B B V B B H Y < % % % % % ",
"% k W.p.B F F F F F V V B B I y k q b.m.J.V.q q w j 2 =.q.2.D D V V V V V V V V B B F Z > % % % % % ",
"% k W.w.N P ~ } ^ B V V B B U y w v.m.V.g.b q q 8 1 = | p.4.V V V V B V V V F F F V F Z > % % % % % ",
"% k W.p.L > z T.4.B V V B B U y w w F.f.. & q q e   7.x. .Z J J G V V V V G J H J V F Z > % % % % % ",
"% % B.d e 8 M.!.6.B B V V B I r N.I.5.#.> u q q d u.<.+.A Z J J G V D V B ' w.p.w.R F Z 4 % % % % % ",
"% % % % v.% l !.6.B V N B B P p n a.}   8 q q l b i.@.B N V V G B V F J T ; h.I.U.>.[ C 4 % % % % % ",
"% % % % % % k Q.6.C Z B B B A j.y.C Z . 0 q w K.s.P V F B V D D D B F Z < 0 0 % l W.r.Z 4 % % % % % ",
"% % % % % % m.V.c r.` B V B A z.r.C $ , w w w '.k.C F B V V V V B G F C e % % % % B.n i.b % % % % % ",
"% % % % % % % v.Z._.: T N ^ @.p.3.C 4 w q M.C.s.4.H F B V F V { } H F C e % % % % % B.L.B.% % % % % ",
"% % % % % % % v.A.'.B.3 C 4.x.' B N 4 q n.V.Q.X.Z B V B B V L p.k.~ V C e % % % % % % v.% % % % % % ",
"% % % % % % v.v.m.B.m.3 C 0././ B N 4 q v.V.Q. .B V F B B ` r g x i.2.C 1 % % % % % % v.% % % % % % ",
"% % % % % % v.v.v.% k 3 C 9.(./ M N 4 q b.V.Q. .B B F F M o f % l T.t.@ u v.% % % % % % % % % % % % ",
"% % % % % % % v.% % % r P 0.Y.' B N 4 n.q S.). .B V F G Z + % % k '.F.0 % b.% % % % % % % % % % % % ",
"% % % % % % % % % % % 0 e v Y.' B C 4 n.w D.).} B V V S : t % % k B.m.% % % % % % % % % % % % % % % ",
"% % % % % % % % % % % v.v.D.^./ B V $ 5 4 7 8./ B V T = u % % % % % % % % % % % % % % % % % % % % % ",
"% % % % % % % % % % % % % G.^./ M F D V Z V G D F V - % % % % % % % % % % % % % % % % % % % % % % % ",
"% % % % % % % % % % % % % G.^./ M D F D V D D D D V - % % % % % % % % % % % % % % % % % % % % % % % ",
"% % % % % % % % % % % % % D.c.) Q D D F ! W F D F Z - % % % % % % % % % % % % % % % % % % % % % % % ",
"% % % % % % % % % % % % % Z./.*.%.F V W &.$.F F F Z & % % % % % % % % % % % % % % % % % % % % % % % ",
"% % % % % % % % % % % % % G.z.( E D D F W E F D F Z & % % % % % % % % % % % % % % % % % % % % % % % ",
"% % % % % % % % % % % % b.B.m ,...V D D F F F F F Z & % % % % % % % % % % % % % % % % % % % % % % % ",
"% % % % % % % % % % % % % % k W.p.V V V D F D F F N - % % % % % % % % % % % % % % % % % % % % % % % ",
"% % % % % % % % % % % % % % k `.t.V V V V B D F F V - % % % % % % % % % % % % % % % % % % % % % % % ",
"% % % % % % % % % % % % % % m.A.c 3./ N V B F F A # r v.% % % % % % % % % % % % % % % % % % % % % % ",
"% % % % % % % % % % % % % % % % B.T.;.P V V G F . s % % % % % % % % % % % % % % % % % % % % % % % % ",
"% % % % % % % % % % % % % % % % % l d.p.Z F G F . s % % % % % % % % % % % % % % % % % % % % % % % % ",
"% % % % % % % % % % % % % % % % % n.V.m 6.o.G ` * s % % % % % % % % % % % % % % % % % % % % % % % % ",
"% % % % % % % % % % % % % % % % % % % m.'.e.X 3 % 0 0 % % % % % % % % % % % % % % % % % % % % % % % ",
"% % % % % % % % % % % % % % % % % % % % l f s % % % % % % % % % % % % % % % % % % % % % % % % % % % ",
"% % % % % % % % % % % % % % % % % % % % % % % % % % % % % % % % % % % % % % % % % % % % % % % % % % ",
"% % % % % % % % % % % % % % % % % % % % % % % % % % % % % % % % % % % % % % % % % % % % % % % % % % ",
"% % % % % % % % % % % % % % % % % % % % % % % % % % % % % % % % % % % % % % % % % % % % % % % % % % ",
"% % % % % % % % % % % % % % % % % % % % % % % % % % % % % % % % % % % % % % % % % % % % % % % % % % ",
"% % % % % % % % % % % % % % % % % % % % % % % % % % % % % % % % % % % % % % % % % % % % % % % % % % ",
"% % % % % % % % % % % % % % % % % % % % % % % % % % % % % % % % % % % % % % % % % % % % % % % % % % ",
"% % % % % % % % % % % % % % % % % % % % % % % % % % % % % % % % % % % % % % % % % % % % % % % % % % ",
"% % % % % % % % % % % % % % % % % % % % % % % % % % % % % % % % % % % % % % % % % % % % % % % % % % ",
"% % % % % % % % % % % % % % % % % % % % % % % % % % % % % % % % % % % % % % % % % % % % % % % % % % "
};
