/* XPM */
static char *result[] = {
/* columns rows colors chars-per-pixel */
"50 50 157 2 ",
"   c black",
".  c #000103",
"X  c #040000",
"o  c #070000",
"O  c #030304",
"+  c #010209",
"@  c #03040B",
"#  c #0A0A0D",
"$  c #130100",
"%  c #050612",
"&  c #060913",
"*  c #0B0D14",
"=  c #0B0C1A",
"-  c #101115",
";  c #151719",
":  c #14151E",
">  c #191A1B",
",  c #1E1F1F",
"<  c #220101",
"1  c #2A0201",
"2  c #300201",
"3  c #330302",
"4  c #370201",
"5  c #380303",
"6  c #221718",
"7  c #101220",
"8  c #1F2025",
"9  c #1F2130",
"0  c #21242A",
"q  c #252728",
"w  c #222332",
"e  c #282930",
"r  c #272838",
"t  c #2A2E39",
"y  c #2F3133",
"u  c #323335",
"i  c #37373A",
"p  c #3C3C3F",
"a  c #410301",
"s  c #490606",
"d  c #580904",
"f  c #650603",
"g  c #740B03",
"h  c #7E0A03",
"j  c #4C2224",
"k  c #732422",
"l  c #0B2F47",
"z  c #272A40",
"x  c #2A2D42",
"c  c #2F3241",
"v  c #2E3249",
"b  c #323543",
"n  c #393E44",
"m  c #33364C",
"M  c #36384B",
"N  c #373A53",
"B  c #3C3F53",
"V  c #3C3F5A",
"C  c #3E4156",
"Z  c #404041",
"A  c #414247",
"S  c #49494C",
"D  c #4A4C52",
"F  c #4C4F55",
"G  c #40435A",
"H  c #45475E",
"J  c #4B4F5E",
"K  c #4D4D5D",
"L  c #505151",
"P  c #51515B",
"I  c #575B5F",
"U  c #615456",
"Y  c #434A64",
"T  c #4B4C64",
"R  c #4C4E6B",
"E  c #504E69",
"W  c #4B5164",
"Q  c #4C506C",
"!  c #5A5C62",
"~  c #52536D",
"^  c #5E5F6B",
"/  c #4C5272",
"(  c #505474",
")  c #525876",
"_  c #5A5E76",
"`  c #585E7E",
"'  c #5F6162",
"]  c #5F6169",
"[  c #5C6071",
"{  c #5C617E",
"}  c #616162",
"|  c #65696B",
" . c #6A6A6C",
".. c #6C716E",
"X. c #636675",
"o. c #666A76",
"O. c #6A6C74",
"+. c #61657E",
"@. c #656A7D",
"#. c #6A6B7C",
"$. c #6D7276",
"%. c #6D717E",
"&. c #757476",
"*. c #787977",
"=. c #79797E",
"-. c #840901",
";. c #8E1306",
":. c #9B1206",
">. c #A81103",
",. c #B4291C",
"<. c #A52A21",
"1. c #C91202",
"2. c #E11603",
"3. c #DC301F",
"4. c #854A4E",
"5. c #5A5E82",
"6. c #5D6281",
"7. c #626582",
"8. c #686680",
"9. c #666A85",
"0. c #6A6D84",
"q. c #6A6C86",
"w. c #686B88",
"e. c #6B6F8B",
"r. c #6C7187",
"t. c #6D7587",
"y. c #6A718A",
"u. c #6C718B",
"i. c #737785",
"p. c #787986",
"a. c #767888",
"s. c #767988",
"d. c #767889",
"f. c #757B8B",
"g. c #75798D",
"h. c #7B7D8C",
"j. c #767992",
"k. c #767D90",
"l. c #7F8389",
"z. c #7E828D",
"x. c #7E8391",
"c. c #808084",
"v. c #868385",
"b. c #848486",
"n. c #8F8386",
"m. c #82838A",
"M. c #81828F",
"N. c #87878C",
"B. c #84868F",
"V. c #868989",
"C. c #89898F",
"Z. c #968386",
"A. c #818593",
"S. c #878591",
"D. c #848495",
"F. c #878795",
"G. c #898993",
/* pixels */
"l l l l l l l l l l l l l l l l l l l l l l l l l l l l l l l l l l l l l l l l l l l l l l l l l l ",
"l l l l l l l l l l l l l l l l l l l l l l l l l l l l l l l l l l l l l l l l l l l l l l l l l l ",
"l l l l l l l l l l l l l l l l l l l l l l l l l l l l l l l l l l l l l l l l l l l l l l l l l l ",
"l l l l l l l l l l l l l l l l l l l l l l l l l l l l l l l l l l l l l l l l l l l l l l l l l l ",
"l l l l l l l l l l l l l l l l l l l l l l l l l l l l l l l l l l l l l l l l l l l l l l l l l l ",
"l l l l l l l l l l l l l l l l l l l l l l l l l l l l l l l l l l l l l l l l l l l l l l l l l l ",
"l l l l l l l l l l l l l l l l l l l l l l l l l l l l l l l l l l l l l l l l l l l l l l l l l l ",
"l l l l l l l l l l l l l l l l l l l l l l l l l l l l l l l l l l l l l l l l l l l l l l l l l l ",
"l l l l l l l l l l l l l l l l l l l l l l l l l l l l l l l l l l l l l l l l l l l l l l l l l l ",
"l l l l l l l l l l l l l l l l l l l l l l l l l l l l l l l l l l l l l l l l l l l l l l l l l l ",
"l l l l l l l l l l l l l l l l l l l w.j.6.l l l l 6.g.7.5.l l l l l l l l l l l l l l l l l l l l ",
"l l l l l l l l l l l l l l l l l l 7.@.#.{ l l l { @.O.+.5.l l l l l l l l l l l l l l l l l l l l ",
"l l l l l l l l l l l l l l l l l +.A.D * / l l l g.O.* V 5.l l l l l l l l l l l l l l l l l l l l ",
"l l l l l l l l l l l l l l l l w.d.n b B ) l 6.k.J c N ~ l l l l l l l l l l l l l l l l l l l l l ",
"l l l l l l l l l l l l l l l 7.@.] @ r ` ` 6.@.o.0 = ) l l l l l l l l l l l l l l l l l l l l l l ",
"l l l l l l l l l l l l l l 6.M.F .   x 5.` a.$.# . 7 ) l l l l l l l l l l l l l l l l l l l l l l ",
"l l l l l l l l l l l l l l 7.B.D . b R 5.` p.&.O 9 Y l l l l l l l l l l l l l l l l l l l l l l l ",
"l l l l l l l l l l l l l 6.#. .i O T 5.` 8.O.L O m { l l l l l l l l l l l l l l l l l l l l l l l ",
"l l l l l l l l l l l l l e.b., . @ T ` 7.D.A     M _ l l l l l l l l l l l l l l l l l l l l l l l ",
"l l l l l l l l l l l l l u.m.;   @ R ` 7.F.p     M _ _ l l l l l l l l l l l l l l l l l l l l l l ",
"l l l l l l l l l l l l 5.r.m.;   @ R 5.7.S.p     M l l l 6.q.0.0.0.q.+.l l l l l l l l l l l l l l ",
"l l l l l l l l l l l ) ) 0.m.;   @ R ` 7.S.p     M { _ _ 9.B.V.V.V.B.i._ l l l l l l l l l l l l l ",
"l l l l l l l l _ a.} : * A b.;   @ R 5.7.G.Z     P B.m.l.| q , , , , S b.l.l.z.x.0._ l l l l l l l ",
"l l l l l l 9.0.0. .Z     u b.;   O v N C ! q     p } ' ' Z           , } } ' } ^ X.@._ l l l l l l ",
"l l l l l _ d.N.b.q       u v.6 X   . . X                                     .   S l.[ _ l l l l l ",
"l l l l 7.h.A , , O       u n.k 5     3 d X                                       # , - B { l l l l ",
"l l l l 7.C.e             u Z.,.-.2 X f >.a $                                           9 G _ l l l ",
"l l l l @.c.q             u Z.3.1.g $ h 2.;.5                                             * ) l l l ",
"l l l t.O.8 O             u Z.<.g < X d :.4 o                                             * ) l l l ",
"l l l f...O               , U 4.j     1 s X                                               * ) l l l ",
"l l l f...O                 O &.L         .           O O O                             . : ) l l l ",
"l l l f...O                 O *.L                   # G X.L .                           e W _ l l l ",
"l l 5.f...O         @ 8 O   . Z S u O         O 8 9 v ` x.| .       : -                 b { l l l l ",
"l l l s.$.* .       : K : + +   i =.> .       # ~ ` ` { i.! .     @ T M                 b { l l l l ",
"l l l { o.&.q       . * B Q H % O 8  .i       & ( ` 7.z.n #     7 Y ) m .               b { l l l l ",
"l l _ _ @.C.y         . H { ` v r c #.^ c O - c ) 9.@.F b r r r N { y.G .           . 9 H l l l l l ",
"l l l l +.M.i O       . B ) _ _ l l _ i.f.7 b _ l j.@.= V l l l 5.7.h.D           . 7 ~ _ _ l l l l ",
"l l l l l +.%.I .       @ z _ _ l l l { { Q ( l l 6.{ Q ) l l l 9.z.y O           e E l l _ l l l l ",
"l l l l l l q.o.A #       * r r G 6.l l l 5.5.l l l l l l l 5.q.X.S #         . w H 5.5.l l l l l l ",
"l l l l l l l @.z.t @ @ @ @ + + x l l 5.5.5.5.l l l l l l l +.i.L         + @ 7 ~ 6.5.5.5.l l l l l ",
"l l l l l l l { { ) / Q Q R R Q ( l 5.5.5.5.5.l l l l l l 9.z.u O       + C ~ ~ _ l 5.5.l l l l l l ",
"l l l l l l l l l l 5.l l l l l l l 5.5.5.5.5.l l l l l q.h.B.8     9 x v ( l l l l l l l l l l l l ",
"l l l l l l l l l l l l l l l l l l l 5.5.5.5.l l l l l g.B.l.r @ = R l l l l l l l l l l l l l l l ",
"l l l l l l l l l l l l l l l l l l l l l l l l l l l l 6.{ { ( Q ( ) l l l l l l l l l l l l l l l ",
"l l l l l l l l l l l l l l l l l l l l l l l l l l l l l l l l l l l l l l l l l l l l l l l l l l ",
"l l l l l l l l l l l l l l l l l l l l l l l l l l l l l l l l l l l l l l l l l l l l l l l l l l ",
"l l l l l l l l l l l l l l l l l l l l l l l l l l l l l l l l l l l l l l l l l l l l l l l l l l ",
"l l l l l l l l l l l l l l l l l l l l l l l l l l l l l l l l l l l l l l l l l l l l l l l l l l ",
"l l l l l l l l l l l l l l l l l l l l l l l l l l l l l l l l l l l l l l l l l l l l l l l l l l ",
"l l l l l l l l l l l l l l l l l l l l l l l l l l l l l l l l l l l l l l l l l l l l l l l l l l "
};
