/* XPM */
static char *result[] = {
/* columns rows colors chars-per-pixel */
"50 50 187 2 ",
"   c #7D1F1C",
".  c #75201F",
"X  c #7B2520",
"o  c #7D2224",
"O  c #7D2728",
"+  c #782829",
"@  c #752E32",
"#  c #7E3331",
"$  c #7C3237",
"%  c #76313A",
"&  c #75333F",
"*  c #79323F",
"=  c #7A393A",
"-  c #0B2F47",
";  c #6D3841",
":  c #6C3A4C",
">  c #6F3F4C",
",  c #753643",
"<  c #7B3741",
"1  c #7A3D46",
"2  c #733A4A",
"3  c #743E49",
"4  c #7B4146",
"5  c #654254",
"6  c #6D4352",
"7  c #684656",
"8  c #67475E",
"9  c #69445B",
"0  c #6B4B5B",
"q  c #764255",
"w  c #7E4750",
"e  c #724C5E",
"r  c #5F546D",
"t  c #5A5574",
"y  c #5D5874",
"u  c #565E7F",
"i  c #585D7E",
"p  c #664B61",
"a  c #694E65",
"s  c #664E6C",
"d  c #615267",
"f  c #6E5063",
"g  c #62536D",
"h  c #69516F",
"j  c #625571",
"k  c #695271",
"l  c #645873",
"z  c #6B5D72",
"x  c #66557A",
"c  c #615B7C",
"v  c #5D627D",
"b  c #7E666B",
"n  c #646176",
"m  c #62637D",
"M  c #6E667D",
"N  c #67697E",
"B  c #6B6C7D",
"V  c #776977",
"C  c #776178",
"Z  c #7D6D78",
"A  c #7F6F79",
"S  c #7F7378",
"D  c #79737E",
"F  c #8F0E01",
"G  c #940E01",
"H  c #9C0E03",
"J  c #8D1003",
"K  c #8E1203",
"L  c #8D1009",
"P  c #8C140A",
"I  c #87180D",
"U  c #8B1A0E",
"Y  c #931003",
"T  c #921204",
"R  c #911009",
"E  c #921309",
"W  c #8D1611",
"Q  c #851914",
"!  c #851E15",
"~  c #8A1B13",
"^  c #881C10",
"/  c #831F1B",
"(  c #911F17",
")  c #A31001",
"_  c #A61003",
"`  c #AA1001",
"'  c #AB1102",
"]  c #AB1004",
"[  c #B81202",
"{  c #BC1103",
"}  c #A51E13",
"|  c #B11E12",
" . c #83231F",
".. c #8D211B",
"X. c #8C281E",
"o. c #942C1F",
"O. c #842223",
"+. c #832827",
"@. c #8A2B23",
"#. c #872D28",
"$. c #8E3127",
"%. c #923125",
"&. c #913529",
"*. c #94372D",
"=. c #863734",
"-. c #8D3730",
";. c #8E3D36",
":. c #843E3D",
">. c #D21302",
",. c #D9120C",
"<. c #F21603",
"1. c #E4221C",
"2. c #87413E",
"3. c #8C403C",
"4. c #934239",
"5. c #93453F",
"6. c #874743",
"7. c #8D4340",
"8. c #8D4C47",
"9. c #8E4F4A",
"0. c #94514B",
"q. c #90554F",
"w. c #9A554F",
"e. c #865253",
"r. c #8E5853",
"t. c #8C5E5A",
"y. c #885E5D",
"u. c #935854",
"i. c #93635D",
"p. c #825B62",
"a. c #876364",
"s. c #8C6263",
"d. c #85686E",
"f. c #8E6F6E",
"g. c #946562",
"h. c #9C6461",
"j. c #926B67",
"k. c #946C6C",
"l. c #93726D",
"z. c #9B746C",
"x. c #836F76",
"c. c #8A7476",
"v. c #86737E",
"b. c #8B767B",
"n. c #8E7E7F",
"m. c #957575",
"M. c #9D7773",
"N. c #957A77",
"B. c #947C7B",
"V. c #B17572",
"C. c #565D82",
"Z. c #5B5C83",
"A. c #5D6382",
"S. c #5F6884",
"D. c #626583",
"F. c #656C86",
"G. c #6A6D85",
"H. c #666D8A",
"J. c #6A6D8D",
"K. c #7B6A81",
"L. c #6D7383",
"P. c #6F7989",
"I. c #757586",
"U. c #7B7B86",
"Y. c #73778B",
"T. c #747A88",
"R. c #787D8B",
"E. c #797A8F",
"W. c #7B7D8C",
"Q. c #747791",
"!. c #7C818E",
"~. c #878687",
"^. c #8E8685",
"/. c #85848D",
"(. c #8D868D",
"). c #85898F",
"_. c #8D8B8C",
"`. c #928082",
"'. c #958380",
"]. c #938685",
"[. c #938986",
"{. c #92858C",
"}. c #908C88",
"|. c #808292",
" X c #828590",
".X c #848495",
"XX c #8D8C95",
/* pixels */
"- - - - - - - - - - - - - - - - - - - - - - - - - - - - - - - - - - - - - - - - - - - - - - - - - - ",
"- - - - - - - - - - - - - - - - - - - - - - - - - - - - - - - - - - - - - - - - - - - - - - - - - - ",
"- - - - - - - - - - - - - - - - - - - - - - - - - - - - - - - - - - - - - - - - - - - - - - - - - - ",
"- - - - - - - - - - - - - - - - - - - - - - - - - - - - - - - - - - - - - - - - - - - - - - - - - - ",
"- - - - - - - - - - - - - - - - - - - - - - - - - - - - - - - - - - - - - - - - - - - - - - - - - - ",
"- - - - - - - - - - - - - - - - - - - - - - - - - - - - - - - - - - - - - - - - - - - - - - - - - - ",
"- - - - - - - - - - - - - - - - - - - - - - - - - - - - - - - - - - - - - - - - - - - - - - - - - - ",
"- - - - - - - - - - - - - - - - - - - - F.Y.N - - - - - - A.Q.J.- - - - - - - - - - - - - - - - - - ",
"- - - - - - - - - - - - - - - - - - v v V b.M - - - - - D.B b.K.- - - - - - - - - - - - - - - - - - ",
"- - - - - - - - - - - - - - - - - - F.).e.. 9 - - - - m /.c.X % - - - - - - - - - - - - - - - - - - ",
"- - - - - - - - - - - - - - - - D.U.d.3.4 5 g - - - Y.S 6.2.> p - - - - - - - - - - - - - - - - - - ",
"- - - - - - - - - - - - - - - D.G.c.0.L 2 - - - D.M x.i.^ X j - - - - - - - - - - - - - - - - - - - ",
"- - - - - - - - - - - - - - A..Xk.! P P 2 c - Z.E.`.# I I + j - - - - - - - - - - - - - - - - - - - ",
"- - - - - - - - - - - - - - D.XXk.I O.q s - - - W.].#.Q 3 p c - - - - - - - - - - - - - - - - - - - ",
"- - - - - - - - - - - - v S.G.v.u.I $ c Z.Z.D.G.A j.X.! h A.- - - - - - - - - - - - - - - - - - - - ",
"- - - - - - - - - - - - A.|.b./ L K $ c Z.u E.(.=.I K ! k Z.- - - - - - - - - - - - - - - - - - - - ",
"- - - - - - - - - - - - A. Xm.U K K $ i u u E.[.-.J F ! k Z.- - - - - - - - - - - - - - - - - - - - ",
"- - - - - - - - - - - - A. Xm.~ K K $ i u u E.^.-.K F ! k Z.- - - - - - - - - - - - - - - - - - - - ",
"- - - - - - - - - - - - v  Xm.~ K K $ i u u R.^.-.K G ! k Z.- - - - - - - - - - - - - - - - - - - - ",
"- - - - - - - - - - - - v  Xm.~ T K # i u v R.[.-.K G ! k Z.- - - - - - - - - - - - - - - - - - - - ",
"- - - - - - - - - - - - v ~.m.U T P @.6 7 7 p.h.o.T T / k Z.- - - - - - - - - - - - - - - - - - - - ",
"- - - - - - - - - - - - v ~.m.~ K P P P L P P E E T T / k Z.- - - - - - - - - - - - - - - - - - - - ",
"- - - - - - - - - - - - v ~.m.! K T Y Y Y G G G G G G ! h Z.- - - - C.C.- - - - - - - - - - - - - - ",
"- - - - - - - - - - - - v /.M.| ] G Y G ' { _ Y G G G ..C J.G.G.F.F.H.A.- - - - - - - - - - - - - - ",
"- - - - - - - - - y j j l /.V.1.,.H Y H >.<.{ G G G K X.B.{.[.[.^.(.).I.v v v - - - - - - - - - - - ",
"- - - - - - - - y ; o O.# n.M.} _ K T G ` [ ) G G Y K P o.%.$.$.%.$.#.s././.W.N - v - - - - - - - - ",
"- - - - - - - D.B # J F P r.t.7.$.K Y Y G Y Y G Y Y K K F F F F F G K 4.g.s.s.Z F.A.Z.- - - - - - - ",
"- - - - - - - Y.).:.J F F J X.'.j.T Y Y G Y K K K K K K G G G G G G K K K K ^ f.).n c - - - - - - - ",
"- - - - - - - Y._.3.J K K K X.[.j.K G Y K T K K K K K K G G G G G Y K J T G I l.~.= & x - - - - - - ",
"- - - - - - - Y._.3.J J L T ( w.q.3.%.K K K K K K I +.$ 7.*.K K K K J J K G K 5.r.! / < 8 - - - - - ",
"- - - - - - v D n.-.J L K T T T -.'.t.! P K K Y K ! 0 m (.k.I K J J K K K K K T T E E K O d y - - - ",
"- - - - - F.|.e.@.E T K K G K G U X.5.z.4.K G T T Q 0 m ~.k.I J K K K K K J K T T E E G P o : - - - ",
"- - - - C.F._.8.J T T G G G G G G G o.u.9.5.X.P O., C I._.l.P J J J K K J J K G G T T G G L & - - - ",
"- - - - - F._.8.K T T K G G G G Y K K Q e.{.w   7 c /._.].g.P K K K J K K K J K G Y T Y G L & - - - ",
"- - - - - G._.8.T T T G G G G T G K O a c m y d y c /.B.=.X.K K J K K J J K J K K K K K G L * c - - ",
"- - - - - G._.8.T T T G G G G G ~ $ 9 - C.C.- - - A./.N.! I # :.8.-.J J K K J K K K K K G R * c - - ",
"- - - - Z.G.~.e.~ T G G T T L Q % c - - - - - - - v E.b.o @ l G.XXt.J K J J J K K K K K Y R * c - - ",
"- - - - Z.u m A M.&.F G T G   0 t C.- - - - - - - - v v d d - H.XXr.F J K J J K K K K K Y R * c - - ",
"- - - - - Z.- T.}.-.F F K K Q < 8 - - - - - - - - - - - - - - D.I.b 8.$.K Y Y K Y Y G G G K % c - - ",
"- - - - - - - P._.;.F F K K K K O f y - - - - - - - - - - - v m n V B.4.K T T T T T Y T P / , c - - ",
"- - - - - - - T._.;.F G K K K T W / ; - - - - - - - - - - D.|..X(.t. .U T T T T T T T T O.f l - - - ",
"- - - - - - - N I.a.0...T K K P P L ..* 8 - - - - - - v L.U._.m.9.&.K K T T T T T T T Y +.c A.- - - ",
"- - - - - - - - - U.^.= / / / /  . ./ / > c - - - - - v !.~.~.a.X U G G T T T T T T E ~ % c Z.- - - ",
"- - - - - - - - - v v y g g g g g g g g y - - - - - - - A.v v B n.0.K G K K K K P K O.e r - - - - - ",
"- - - - - - - - - - - - - - - - - - - - - - - - - - - - - - - F.XXr.K G K K I $ 2 2 9 - - - - - - - ",
"- - - - - - - - - - - - - - - - - - - - - - - - - - - - - - v I.XXt.K G K ! O p - - - - - - - - - - ",
"- - - - - - - - - - - - - - - - - - - - - - - - - - - - - D..X)._.y.K G P 1 j c - - - - - - - - - - ",
"- - - - - - - - - - - - - - - - - - - - - - - - - - - - C.A.F.G.G.z 6 6 6 g - - - - - - - - - - - - ",
"- - - - - - - - - - - - - - - - - - - - - - - - - - - - - - - - - - - - - - - - - - - - - - - - - - ",
"- - - - - - - - - - - - - - - - - - - - - - - - - - - - - - - - - - - - - - - - - - - - - - - - - - "
};
