/* XPM */
static char *_e4bd9b038d442e8c4e986816114d331oFuIT9NMeVqnxQe7[] = {
/* columns rows colors chars-per-pixel */
"50 50 184 2 ",
"   c None",
".  c #030504",
"X  c #0B0501",
"o  c #010B04",
"O  c #0B0903",
"+  c #00050B",
"@  c #0C0609",
"#  c #02090B",
"$  c #0C0C0B",
"%  c #120A03",
"&  c #1A0B03",
"*  c #14050B",
"=  c #130E0E",
"-  c #100206",
";  c #0A120C",
":  c #1B1602",
">  c #151209",
",  c #000A10",
"<  c #090812",
"1  c #091414",
"2  c #0E1A1D",
"3  c #041319",
"4  c #171515",
"5  c #14171E",
"6  c #1A1D1C",
"7  c #1B1811",
"8  c #280A05",
"9  c #370A04",
"0  c #251406",
"q  c #2A1203",
"w  c #24150A",
"e  c #321D0C",
"r  c #381B06",
"t  c #241918",
"y  c #3C230C",
"u  c #23221E",
"i  c #352313",
"p  c #3B2313",
"a  c #352717",
"s  c #081B26",
"d  c #151421",
"f  c #151A29",
"g  c #092933",
"h  c #1E2932",
"j  c #1C3034",
"k  c #2A2524",
"l  c #2F2F2E",
"z  c #202226",
"x  c #362C20",
"c  c #222532",
"v  c #20253A",
"b  c #253337",
"n  c #3C3D3A",
"m  c #400402",
"M  c #411C0C",
"N  c #400815",
"B  c #501012",
"V  c #6B1116",
"C  c #7E1A1A",
"Z  c #7A1419",
"A  c #422206",
"S  c #42230A",
"D  c #4C2E13",
"F  c #472A11",
"G  c #4C311A",
"H  c #58351A",
"J  c #6B182A",
"K  c #5C2325",
"L  c #423B2E",
"P  c #413A3C",
"I  c #7F262D",
"U  c #5B432F",
"Y  c #5E5720",
"T  c #4A463A",
"R  c #694222",
"E  c #744B29",
"W  c #694A34",
"Q  c #7C5433",
"!  c #7F5A35",
"~  c #7A593C",
"^  c #775638",
"/  c #0B2F47",
"(  c #3A4A4F",
")  c #3B545B",
"_  c #4A4B48",
"`  c #524D44",
"'  c #4C524E",
"]  c #495355",
"[  c #7E5B40",
"{  c #625D55",
"}  c #7C734E",
"|  c #646155",
" . c #686259",
".. c #716B5E",
"X. c #445A61",
"o. c #566462",
"O. c #6A6666",
"+. c #75736F",
"@. c #627A79",
"#. c #7C7C79",
"$. c #85190D",
"%. c #8B1B15",
"&. c #83191B",
"*. c #89191C",
"=. c #931D1C",
"-. c #9C1D13",
";. c #A60E1D",
":. c #B7191C",
">. c #801A29",
",. c #9F1F21",
"<. c #A61C27",
"1. c #BA1B27",
"2. c #832631",
"3. c #CA1E1B",
"4. c #D21D20",
"5. c #C22121",
"6. c #D22023",
"7. c #855A36",
"8. c #825C3C",
"9. c #855834",
"0. c #8A7C58",
"q. c #897373",
"w. c #9D8F3D",
"e. c #C1A82F",
"r. c #F8D536",
"t. c #949462",
"y. c #89867F",
"u. c #B6A16D",
"i. c #FFD05A",
"p. c #DFD86E",
"a. c #EFD77E",
"s. c #F3E86A",
"d. c #F3E278",
"f. c #667D81",
"g. c #7A7E80",
"h. c #788D8D",
"j. c #7D9494",
"k. c #958E86",
"l. c #96938C",
"z. c #9A968B",
"x. c #809194",
"c. c #949B93",
"v. c #A7A39C",
"b. c #909DA0",
"n. c #89A7A8",
"m. c #86A8B3",
"M. c #8DBEB9",
"N. c #93B3B5",
"B. c #93BABD",
"V. c #98B6BA",
"C. c #ECE689",
"Z. c #F6E792",
"A. c #C3C1B8",
"S. c #8EBDC3",
"D. c #8AB7C1",
"F. c #92BCC3",
"G. c #9CBDC1",
"H. c #89C0C0",
"J. c #9FC3C9",
"K. c #9DC2C7",
"L. c #A5C4CD",
"P. c #AECBCD",
"I. c #ABC2C9",
"U. c #B3CACE",
"Y. c #B8CFCF",
"T. c #B3CBD0",
"R. c #B5C6D8",
"E. c #ADD0D1",
"W. c #B4D1D2",
"Q. c #BBD3D4",
"!. c #BDD7D8",
"~. c #D2CBC7",
"^. c #D9D4CC",
"/. c #C4C9DF",
"(. c #C2D5D6",
"). c #C3DBDB",
"_. c #C9DCDD",
"`. c #C0D6DA",
"'. c #D8D8D8",
"]. c #C5DAE0",
"[. c #C6E5E4",
"{. c #CBE3E3",
"}. c #CFE8E7",
"|. c #D3EAEA",
/* pixels */
"/ / / / / / / / / / / / / / / / / / / / / / / / / / / / / / / / / / / / / / / / / / / / / / / / / / ",
"/ / / / / / / / / / / / / / / / / / / / / / / / / / / / / / / / / / / / / / / / / / / / / / / / / / ",
"/ / / / / / / / / / / / / / / / / / / / / / / / / / / / / / / / / / / / / / / / / / / / / / / / / / ",
"/ / / / / / / / / / / / / / / / / / / / / / / / / / / / / / / / / / / / / / / / / / / / / / / / / / ",
"/ / / / / / / / / / / / / / / / / / / / / / / / / / / / / / / / / / / / / / / / / / / / / / / / / / ",
"/ / / / / / / / / / / / / / / / / / / / / / / / / / / / / / / / / / / / / / / / / / / / / / / / / / ",
"/ / / / / / / / / / / / / / / / / / / / / / / / / / / / / / / / / / / / / / / / / / / / / / / / / / ",
"/ / / / / / / / / / / / / / / / / / / / / / / / / / / / / / / / / / / / / / / / / / / / / / / / / / ",
"/ / / / / / / / / / / / / / / / / / / / / / / / / / / / / / / / / / / / / / / / / / / / / / / / / / ",
"/ / / / / / / / / / / / / / / / / / / / / / / / / / / / / / / / / / / / / / / / / / / / / / / / / / ",
"/ / / / / / / / / / / / / / / / / / / / / /   , + , / / / / / / / / / / / / / / / / / / / / / / / / ",
"/ / / / / / / / / / / / / / / / / / /   X R F S D p y w # / / / / / / / / / / / / / / / / / / / / / ",
"/ / / / / / / / / / / / / / / / / / . y ~ Q S 7.8.9.i y y O / / / / / / / / / / / / / / / / / / / / ",
"/ / / / / / / / / / / / / / / / / O 9.! 9.R r 7.H D 9.y M A O / / / / / / / / / / / / / / / / / / / ",
"/ / / / / / / / / / / / / / / / / U y 9.p S D S y p y 8.8.7.F O / / / / / / / / / / / / / / / / / / ",
"/ / / / / / / / / / / / / / / / t y p y L q q q q q q r S 9.! W / / / / / / / / / / / / / / / / / / ",
"/ / / / / / / / / / / / / / / / S 7.^ p w # F.F.F.F.o 0 y W p q X / / / / / / / / / / / / / / / / / ",
"/ / / / / / / / / / / / / / / . i ~ E p n.B.U.U.U.U.L.N.w % 0 #   / / / / / / / / / / / / / / / / / ",
"/ / / / / / / / / / / / / / / X p ! p y m.U.T.T.T.T.U.E.F.# % @ ! / / / / / / / / / / / / / / / / / ",
"/ / / / / / / / / / / / / / / a ! E ^ y . T.T.T.T.T.T.T.U.P.U.6 e / / / / / / / / / / / / / / / / / ",
"/ / / / / / / / / / / /   n.  p e y W e b T.U.1 W.U.U.U.U.T.U.P.6 X / / / / / / / / / / / / / / / / ",
"/ / / / / / / / / / / / / N.D.j.X 0 e . V.8 r : r 7 U.Y.U.U.T.7 h.i / / / / / / / / / / / / / / / / ",
"/ / / / / / / / / / / / / ( , ) B.# 0 B.K.W.w.u.t.= i Q.K.K.a > @ & / / / / / / / / / / / / / / / / ",
"/ / / / / / / / / / / / / f.m.F.] S.0 F.Q.Q.p.d.#.s 0.i W.( } g     / / / / / / / / / / / / / / / / ",
"/ / / / / / / / / / / / / / N.H.] F.O F.Q.).].s.Z.s.a./.!.!.d.C./ / / / / / n l / / / / / / / / / / ",
"/ / / / / / / / / / / / / / . F.B.H.s F.Q.).].}.(.j.}._._.(.W.T./ / / /   l.y./ / / / / / / / / / / ",
"/ / / / / / / / / / / / / / / # @.) S.F.Q.!.).{.|.|.|.{.).(.(.U.$ / / % v. .^./ / / / / / / / / / / ",
"/ / / / / / / / / / / / / / / / / 3 F.F.W.Q.).[._.[._.{.).Q.Q.U.o / / v. .z./ / / / / / / / / / / / ",
"/ / / / / / / / / / / / / / / / / / G.F.F.W.(.).2 _._.1 b.b h.U./ / A.{ { ~./ / / / / / / / / / / / ",
"/ / / / / / / / / / / / / / / / / / / b.F.K.Q.!.`.(.`.(.P.W.Y.. /   ` { './ / / / / / / / / / / / / ",
"/ / / / / / / / / / / / / / / / / / / n d F.K.V.Q.Q.W.Q.U.U.  / / k. ._ / / / / / / / / / / / / / / ",
"/ / / / / / / / / / / / / / / / / / O.'  .@ 5 , j f.X.+   / / / l.| $ / / / / / / / / / / / / / / / ",
"/ / / / / / / / / / / / / / / / / . 4 $ d ; + 3.5.- 7 4 / / / k.T O / / / / / / / / / / / / / / / / ",
"/ / / / / / / / / / / / / / / / / 7 k d h <.<.q.~.,.k k   / k.n #./ / / / / / / / / / / / / / / / / ",
"/ / / / / / / / / / / / / / / / / k # c I B ;.4 8 *.u k r.| x ../ / / / / / / / / / / / / / / / / / ",
"/ / / / / / / / / / / / / / / / z k 5 c 9 >.5.K & 3.h = e.: x   / / / / / / / / / / / / / / / / / / ",
"/ / / / / / / / / / / / / / / / l k I., Z s - 8 V . b n.i.r.Y . / / / / / / / / / / / / / / / / / / ",
"/ / / / / / / / / / / / / / / / . k E.[.+.$ 5 J 2.o.].(.L.  : / / / / / / / / / / / / / / / / / / / ",
"/ / / / / / / / / / / / / / / /   k J.R.c.& ' X 9 *.< Q.. / / / / / / / / / / / / / / / / / / / / / ",
"/ / / / / / / / / / / / / / / / / k $   &.C c / f * 9   . / / / / / / / / / / / / / / / / / / / / / ",
"/ / / / / / / / / / / / / / / / / $   / f c c / 5 c 3 / / / / / / / / / / / / / / / / / / / / / / / ",
"/ / / / / / / / / / / / / / / / / $ / / $.:.<./ I ;.,./ / / / / / / / / / / / / / / / / / / / / / / ",
"/ / / / / / / / / / / / / / / / / / / . *.=.-./ &.%.4./ / / / / / / / / / / / / / / / / / / / / / / ",
"/ / / / / / / / / / / / / / / / / / / . C =.4./ &.=.%./ / / / / / / / / / / / / / / / / / / / / / / ",
"/ / / / / / / / / / / / / / / / / / / / / / / / / / / / / / / / / / / / / / / / / / / / / / / / / / ",
"/ / / / / / / / / / / / / / / / / / / / / / / / / / / / / / / / / / / / / / / / / / / / / / / / / / ",
"/ / / / / / / / / / / / / / / / / / / / / / / / / / / / / / / / / / / / / / / / / / / / / / / / / / ",
"/ / / / / / / / / / / / / / / / / / / / / / / / / / / / / / / / / / / / / / / / / / / / / / / / / / ",
"/ / / / / / / / / / / / / / / / / / / / / / / / / / / / / / / / / / / / / / / / / / / / / / / / / / ",
"/ / / / / / / / / / / / / / / / / / / / / / / / / / / / / / / / / / / / / / / / / / / / / / / / / / "
};
