/* XPM */
static char *_c26fdddef114ea4a3d1df9a31045b6dOCrJRxIUU3thy9ii[] = {
/* columns rows colors chars-per-pixel */
"50 50 192 2 ",
"   c #273718",
".  c #2F2E2A",
"X  c #34332E",
"o  c #363633",
"O  c #383635",
"+  c #373833",
"@  c #3B3B35",
"#  c #3C3C3A",
"$  c #403F3C",
"%  c #314221",
"&  c #37432F",
"*  c #3D4336",
"=  c #3F4B33",
"-  c #3E423C",
";  c #424C35",
":  c #43423D",
">  c #48463F",
",  c #444B3D",
"<  c #494C3D",
"1  c #435335",
"2  c #4B553D",
"3  c #4E5A3D",
"4  c #515B3E",
"5  c #51623D",
"6  c #3F3F40",
"7  c #3F4141",
"8  c #444442",
"9  c #494743",
"0  c #464A44",
"q  c #4B4A45",
"w  c #454748",
"e  c #494749",
"r  c #464A49",
"t  c #4C4C4B",
"y  c #504E46",
"u  c #504F4A",
"i  c #465143",
"p  c #4C5144",
"a  c #4D5B42",
"s  c #4E524B",
"d  c #4E5F4D",
"f  c #515346",
"g  c #525C44",
"h  c #53534C",
"j  c #555C4B",
"k  c #595C4E",
"l  c #4D4E52",
"z  c #504F51",
"x  c #4E5051",
"c  c #545553",
"v  c #595755",
"b  c #545A52",
"n  c #5A5A55",
"m  c #555D5A",
"M  c #5B5C5A",
"N  c #615F5D",
"B  c #566547",
"V  c #53614C",
"C  c #5A654D",
"Z  c #5B6B4C",
"A  c #5B744F",
"S  c #5A6354",
"D  c #576E52",
"F  c #5B6D54",
"G  c #5B625D",
"H  c #5C6C5D",
"J  c #5D7254",
"K  c #5F7951",
"L  c #5E725C",
"P  c #61734F",
"I  c #61625E",
"U  c #646D5C",
"Y  c #617452",
"T  c #62735C",
"R  c #6A755C",
"E  c #657A5C",
"W  c #68795D",
"Q  c #5D5F64",
"!  c #5C5C6C",
"~  c #615F62",
"^  c #5C6562",
"/  c #5E6965",
"(  c #5E636A",
")  c #5F6B6A",
"_  c #5E7063",
"`  c #5F6370",
"'  c #636463",
"]  c #6A6764",
"[  c #626B65",
"{  c #6A6C65",
"}  c #62656C",
"|  c #69676C",
" . c #646C6B",
".. c #6A6B6B",
"X. c #637464",
"o. c #6A7366",
"O. c #677A66",
"+. c #6A7D65",
"@. c #66726C",
"#. c #6A736E",
"$. c #67786A",
"%. c #6C7C6B",
"&. c #71706D",
"*. c #727B6E",
"=. c #646472",
"-. c #686773",
";. c #656C71",
":. c #6A6D74",
">. c #686578",
",. c #6D6F78",
"<. c #716F77",
"1. c #667271",
"2. c #6B7473",
"3. c #6E7A75",
"4. c #6E747A",
"5. c #6F7979",
"6. c #717574",
"7. c #717B75",
"8. c #7A7E75",
"9. c #72747C",
"0. c #737B7B",
"q. c #7A7D7C",
"w. c #798B67",
"e. c #72856C",
"r. c #778B68",
"t. c #7F916E",
"y. c #748173",
"u. c #7A8177",
"i. c #7A8876",
"p. c #76817D",
"a. c #7B827D",
"s. c #7F887B",
"d. c #88976A",
"f. c #8F9A6E",
"g. c #83857F",
"h. c #80887F",
"j. c #8C8D78",
"k. c #84927C",
"l. c #8B957E",
"z. c #8F987D",
"x. c #919C78",
"c. c #9B9C7E",
"v. c #9DA17D",
"b. c #747783",
"n. c #797783",
"m. c #767B82",
"M. c #797D83",
"N. c #778380",
"B. c #7C8383",
"V. c #7D8884",
"C. c #7E838A",
"Z. c #7F8888",
"A. c #828683",
"S. c #848A85",
"D. c #8A8D85",
"F. c #828589",
"G. c #858B8A",
"H. c #8A8E8B",
"J. c #839281",
"K. c #8C9485",
"L. c #8F9980",
"P. c #8D928C",
"I. c #929685",
"U. c #939A83",
"Y. c #9C9E86",
"T. c #92948D",
"R. c #95998C",
"E. c #9B9C8C",
"W. c #838692",
"Q. c #898790",
"!. c #8D8E93",
"~. c #8F9392",
"^. c #939592",
"/. c #949692",
"(. c #999795",
"). c #969894",
"_. c #969995",
"`. c #9A9B94",
"'. c #959598",
"]. c #9B9C9A",
"[. c #A09F8F",
"{. c #A09F90",
"}. c #A09F99",
"|. c #9FA09E",
" X c #A5A487",
".X c #ABAA82",
"XX c #A4A38D",
"oX c #A7A58D",
"OX c #AAA78C",
"+X c #ADA98E",
"@X c #A2A192",
"#X c #A0A09A",
/* pixels */
"w t e e w & % 8 - i i 0 0 , s t 8 $ # O @ $ @ @ O $ 8 # $ $ $ @ = # * > # # > 8 @ # 7 7 0 8 w 8 8 8 ",
"^ H.^.XXOXoX`.c G $.%.e.w.w.G 8 G 8.@X+XoX@X{.# o H.H.H.I.^.K.a r.[.Y.@XoXOXOX].- ]._._._.@X|.`.|.7 ",
"].'.!.!.F.t.S.9 |.O.L T J K 3.s q.).H.n.Q.<.q.M ' G.A.0.;.q.7.h P.s.J.S.%.5.A.3.8 e.e.y.C.^.^.G.p.r ",
"_.1.4.4.>. .d 9 R.D X.X.L $.o.: #.q.M.b.=.;.| C t 3...,.:.5.1.n _.[  .;.2.) ) ..i A A 2.3.1.@.)  .0 ",
"G.4.M.n.n...| > W X.p.e.%.3...> #.9.n.-.} =.;.u 8 ) 4.,.( ^ ) c V./ ^ O.M. .) ..- ) @.;.=.` 1.1. .x ",
"1. .9.<.9.6...: a...#.{ ..1.] 9 @.....| ..| ' t 7  .| ;.:.| ..y m / ( /  . .....7  .) ( ` ` } #...r ",
"w 8 8 q $ > : : c c c h v N v t 8 $ 9 q M u v e 8 # # # # @ # # 6 8 8 O # - 7 7 7 8 t w x l r 7 0 7 ",
"`.E.I.7.$ c P.T.).).].].v c ^ M I D.[.(.v M ).oXOX|..X|./ # t.E.l.T.~.S./ 8 G._._.G.G.P.].l |.P.XX@X",
"G.H.F.1.$ }.^.T.P.`.OXH.' [ S.4.F.P.~.p.c |.1.1.2.1.@.1. .7 ) 5.5.N.G.y.1.' i.Z.2.0.p.1.1.r /.H.~.W.",
"}  .1. .8 3...2.2.5.3. .s G 2.:.9.6.5.2.c ].1.1.4.4.b.4.M 0 / 0.W.M.4.) ' U y.G.4.M.B.p.1.r _.1.2.;.",
"9...2...q 3.q.0.9.9.:...% *.:.,.:.;. ...s F.@.:.n.b.2.5.n 7 ) 3.5.M.5.) h , $.2.9.>.!  . .r B.@.4.>.",
"..| | { t p.9.6.2.2.D a < u.#.9.6.-...' a H @.1.>.b.:.6.v 7 H A J | { { 2 2 X.) ( ! ! } | w 0. . ...",
"8 8 9 8 q q 9 q k g A C % j ] I v c v h d a h b x s s i r i 7 8 : 0 p p 2 b q 9 q q q q 9 8 t 0 q 0 ",
"o o 8 9 c v m c G k B C h U *.g.8.g.p U y.V.^._.s.A i i s 7 x 7 p s 9 i p p q 0 w c 8 z 9 8 8 8 8 # ",
"..].].]._._.).H.A.Z B R.I.l.Y.`.E.P.0 _.G.Z.3.p.e.E a x.U.E.|.|.z.R.n j  Xv.oXOX@X).l '.H.H.P.@XXX].",
"9 _.q.7.y.m.B.0.7.g 2 8.#.7.[ #.2.| 9 X.X.N.3.$.O.Z = _ y.V.N.p.@.@.c s ~.K.!.G.p.B.u #X .0.6.B.A.M.",
"9 p.^ 1.M.0.9.9.G j h 0.3.#.*.a.X...b #.#.5./ / H Z < J _ B.B.m.3.#.q h 0.5.C.B.0.2.t ).#.S.H.B.A.M.",
"> T [ @.0.0.0...[ t v 7.X.Y T [ ..1.M 2.........{ 3 1 J @.3.b.4.:...q | 2.5.C.M.2.@.t q.6.0.q.B.q.#.",
"q c M n I n n j M t t n n S k I h f t n b h v h f < < q I [ G m f u t h G M n M | ..t M ' [ j 4 g 5 ",
"* s 8 @ ; : 9 8 s 8 u f 0 9 u G ~ ..I q q > > ] ] M n I c M t 8 9 8 9 x l t z q t t 8 $ # > ; 1 ; * ",
"k.J.S.S.: T.@XXXXXoX.XU.E.9 @X|.].).E.T.8.t {.`.).).'._.'.c ] E.XXR.).^._.s |.oXR.}.|.`.^.q g z.l.l.",
"a.p.a.#.h g.^ ^ } ( 1.$.@.0 2.3.M.9.3.O.' t q.H.H.B.0.N.0.t ^.3.V.V.N.N.1.t S.3.V.9.;.@.2.t 0 s.i.h.",
"#. .#...@ 7./ G ;.} ;.@.#.M 5.5.F.S.G.9.f q a.A.5.0.B.B.6.q (.M.p.B.m.0.2.t G.3.A.M.=.;.#.h s L F H ",
"X.X./ ..: b H / d ;.4.$.{ n 3.@.@.@.@.X.y n #.3. .9.9.9.| u H.2.b.5.5.5...x S.@.2.=.;./ [ h d O.E E ",
"o.6.P P + p 1 X...G .. .@.t ;.| N I [ ' M h #.....| } | n t 3.2.5.5.:.....9 @.@.2.:.| .. .8 s $.#.X.",
"o O * @ # O   @ : c s - : M t 9 9 9 q @ q 9 t 9 : h h h c h c 8 : r t x s x 9 t z e e # O # - 8 * * ",
"O _.`.].`.).R.).- S.'.'.'.'./.3.> ^.@X).R.^.^.^.S < [.Y.6.@.6.a.b G.~.H.e.R.H.^.).e }.).oXOXE.^. XE.",
"# I.P.A.q.B.B.6.: P.K.H.H.G./.6.9 /.A.6.' } ^ [ j f 7.9.[  .2.[ x V.V.F.V.F.B.2. .6 _.2.4.4.M.m.7.@.",
"8 y.#.^  . .9.^ - P.B.@. .4.3...9 G.{ ^ ;.} ../ h b 0.2.^ 1.3.) 0 q.a.A.5.4.5.( } 8 ~.2.} 4.b.2. .| ",
"t 6.1.6.7.q.b.5.# H.7.:...9.2...9  .[ ^ [ ..) / h t $.[ ^  .1. .0 o.^  .>.` ( / ..s B.^ ! | } } ) ..",
"t  .^ G G E 6.I 8  .@. . .;.| ..$ G [ [ ] ' k k : $ ^ M ..{ ....s 9 s Q M M c M h x 1. .| | } ' G m ",
"t e e # : 8 8 : 8 8 t q t 9 y y $ @ : : $ o # O $ 9 9 # O O : $ : o . # 8 7 0 7 i w w # # 8 8 8 8 t ",
"@X`.).(.^.9 6.H.H.H.).`./.q 9 `.E.`.@X@XS.O s `.`.XX@X)./.S.$ T.E. X.XoXE.K., J.P.K.P.^._._.t F.OX{.",
"2...| &.' 8 ^.6.9.~ [ '  .n G g.{ 7.S.D.[ $ g.0.p.5.N.V.p. .@ S.S.G. .p.p.9.0 e.e./ 3.5.p.p.v ]. ...",
"..:.2.' ] 9 S.M.M.,.} ^ ' u I p.|  . .....* 8.%.#.3.3.3.X.c @ @.0.H { 1.@.H 7 e.p.y.e.1.B.0.c S.[ 1.",
"6. .| ' ..q ..| :.} Q ! M y #.0.A.7.0. .U 1 J G 2.M.B.9.7.n O  ./ @.2.2.T V = H D ) / 2./ ^ s D.| ..",
"....| | ..q G M ! ~ Q ' ..y ' 1.#.:...U T 1 a S O.3.0.9.7.j $  ./ 3.6.7.T S = H L _ _ ) ^ ' t [ | ..",
"t u 9 8 9 9 9 9 9 q y u 0 > : q : > 9 3 4 1 1 = * 9 $ : o # : : : : * : - ; * + = i w 7 O 8 t t e t ",
"t e 9 ' ' ] 2.....q.h 9 G I 6.[ G ..7.8 I.f.v.c.@X].G + b j.g.8...] : X * 8 * * - r 7 7 @ # t x z e ",
"^.u ].(.H.S.P.A.g.6.| : g.H.G.a.o.[ ..w K.D.H.F.D.a...# ].B.A.D.j.c.#.G , L.J.R.E._._.7 _.XX~.R.Y. X",
"' u ].T.' ' } ^ M ] f q q.i.s.V.1.[ ..9 a.1.| @.V.F.<.: A.;.( 2.} } ^ q 8 B.N.5.1.5.3.9 P.) p.p.0. .",
"' q (.q.0.n.:.^ ^ | y 0 ..%.%.o.X. ...$ ..G 1.m.~.F.{ $ ^ ^ 2.F.:. .[ , 8 X.C.n.:.G  .9 5.#...X.F ' ",
"} q P.B.2...' =.@...y j P U F [ [ { ..:  . .^  .5. .| 8 ^ G ' :.4. .[ @ G H 0.M.:./ ) q  ./ / J J F ",
"f h t g p t y q q f q j f V V 2 p q : 8 s 8 : - : > u : $ $ > 0 < 0 q * 1 ^ ..| } ' M t l 0 4 V g i ",
"c { 6.o.M : 8 8 s q q j k C 2 a J 3. . .^ 8 6 0 ^ G [ G  .m ; 8 , o . . + X + O O 7 8 8 7 @ = i s G ",
"S.P.P.M.2.8 ..@X+X+X Xv.d.K.2 l.E.I.XX0.9.^ O @XE.h.g.K.A.0.# M R.R.H.'.).T.O |.`.@X_.`.`.U.R 4 K.P.",
"e.0.9. .1.: q.h.A.3.a.e.+.$.q y.y.p.9.} ( y @ [  .X.9.0.#.#.: ..3.2.0.F.2./ : F.p.2.) :.3./ b j y.5.",
"1.1.;.;. .> ^ 5.#. .9.3.1...0 2.2. .4.(  .y O G  .0.9.7.U ..: 0.2.5.m.0.2.[ , / 4.:.:.n.2.2.h b p.$.",
";. . .1.| q q #. .6.6.2.| ..t @.@.=.;.} ..y 9 ^ 2.0.9.#.0...: [ G / 0.C.@.| #  .} 4.b...J A 9 M 2.1.",
"f M M ] ' 0 t ] [ ] ....{ I c 2.2.^ m b h : @ ^ ] N ' I k f $ ^ [ H / { [ ' - @. .....| P ' 9 8 M v "
};
