/* XPM */
static char *_7439a03fce74797cb32fcb9f1a71e0f0oH3TtT8rncf00Ex[] = {
/* columns rows colors chars-per-pixel */
"50 50 141 2 ",
"   c #0E86C6",
".  c #0F88C7",
"X  c #1088C7",
"o  c #148CCA",
"O  c #198FCB",
"+  c #1B92CE",
"@  c #1E95D0",
"#  c #1F98D3",
"$  c #2495CE",
"%  c #2996CE",
"&  c #2B98CF",
"*  c #2197D1",
"=  c #249BD4",
"-  c #299ED6",
";  c #279FD8",
":  c #299FD8",
">  c #339DD1",
",  c #3C9FD2",
"<  c #2DA0D7",
"1  c #2CA2D9",
"2  c #34A1D6",
"3  c #3AA3D6",
"4  c #33A5DA",
"5  c #3AA6D9",
"6  c #37A8DB",
"7  c #3CA9DC",
"8  c #43A5D6",
"9  c #4CA8D6",
"0  c #42A7D8",
"q  c #44ACDD",
"w  c #4AADDC",
"e  c #52ADDA",
"r  c #4BB1DF",
"t  c #54B2DE",
"y  c #5BB4DE",
"u  c #63B6DD",
"i  c #65B9DF",
"p  c #68B9DF",
"a  c #4EB3E0",
"s  c #54B5E1",
"d  c #5AB7E1",
"f  c #57B8E2",
"g  c #5CB9E2",
"h  c #63BCE3",
"j  c #6BBEE3",
"k  c #72BFE2",
"l  c #67C0E5",
"z  c #6DC1E6",
"x  c #73C3E6",
"c  c #7BC6E6",
"v  c #7FC8E7",
"b  c #73C5E8",
"n  c #75C6E8",
"m  c #76C7E8",
"M  c #75C6E8",
"N  c #7AC7E8",
"B  c #79C7E8",
"V  c #77C8E9",
"C  c #78C8E9",
"Z  c #7AC9E9",
"A  c #7CC8E8",
"S  c #7CC9E9",
"D  c #7DCAE9",
"F  c #7FCAE9",
"G  c #7ECAEA",
"H  c #7ECBEA",
"J  c #7CC9E9",
"K  c #80C7E6",
"L  c #83C8E6",
"P  c #82C9E7",
"I  c #80C9E8",
"U  c #86CBE8",
"Y  c #81CCEB",
"T  c #83CEEB",
"R  c #85CDEA",
"E  c #84CDEB",
"W  c #85CEEB",
"Q  c #85CEEC",
"!  c #86CFEC",
"~  c #84CDEB",
"^  c #89CDE9",
"/  c #8ACCE8",
"(  c #8ACFEB",
")  c #8ACEEA",
"_  c #87D0EC",
"`  c #8BD0EB",
"'  c #89D0EC",
"]  c #8BD1ED",
"[  c #8FD1EC",
"{  c #8FD3ED",
"}  c #8DD2EC",
"|  c #90D2EC",
" . c #95D6EF",
".. c #96D7EF",
"X. c #97D7EF",
"o. c #93D4EE",
"O. c #99D6ED",
"+. c #99D8EF",
"@. c #9AD9F0",
"#. c #9BD9F0",
"$. c #9CD9F0",
"%. c #9EDAF0",
"&. c #9FDBF1",
"*. c #9CDAF0",
"=. c #9BD9F0",
"-. c #A3DBEF",
";. c #A0DBF0",
":. c #A2DCF1",
">. c #A4DDF1",
",. c #A4DDF1",
"<. c #ACDFF1",
"1. c #A8E0F3",
"2. c #A9E0F3",
"3. c #ABE1F3",
"4. c #B3E4F4",
"5. c #B2E5F5",
"6. c #B4E6F5",
"7. c #B5E6F5",
"8. c #B3E5F5",
"9. c #B7E8F6",
"0. c #B7E8F6",
"q. c #B9E9F7",
"w. c #BBE9F7",
"e. c #BEEBF7",
"r. c #BBE9F6",
"t. c #BFEBF8",
"y. c #BFECF8",
"u. c #BFEBF8",
"i. c #C2EBF7",
"p. c #C2EDF9",
"a. c #C4EEF9",
"s. c #C7F0FA",
"d. c #CFF4FB",
"f. c #CCF2FB",
"g. c #D3F6FC",
"h. c #D7F8FD",
"j. c #DBF9FD",
"k. c #DAFAFE",
"l. c #DCFAFE",
"z. c #E4FEFF",
"x. c #E4FEFF",
/* pixels */
"1 1 1 1 * + 4 x +.2 1 1 - * t T 1 1 1 1 1 4 h 7 1 @ e 5.g q 5 = h v * 6 x 7 1 1 4 F q 1 1 + * n z 1 ",
"1 1 1 1 1 * O + j 2 - * @ O 7 ] 1 1 1 1 1 1 q f 1 4 h y 8 8 c U h 4 * * q z 4 1 1 C @.s g j x g 1 1 ",
"1 4 1 1 1 1 *   j w O @ : = q >.7 1 4 1 1 4 1 z ( ] 7 @ O ; h N 1 1 - + = w a 1 a g q 6 4 ' w = - * ",
"1 1 1 1 1 1 = X q G 7 z $.! 4.$.1 1 1 1 1 1 1 4 g J 1 * @ 1 h h 1 1 * = : 2 j [ z 1 1 : # N q 1 < < ",
"1 1 1 1 4 1 < + - Y ;.C b <.k.<.* = = 1 1 1 1 1 7 z 1 = o - ! g * @ - 1 1 1 - h r = * + q +.7 1 1 1 ",
"g 1 1 1 1 1 1 @ @ h f 1 1 6 w [ N 1 ; * 1 1 1 1 q G - y x ( w.7 = * * : 1 1 1 h y * i ^ p.4.6 1 1 1 ",
"F h 7 1 1 4 4 + $ j : ; * @ O q 2.7 1 - = = - - 1 ! K N ! q.p.f 1 1 * = 1 1 1 q o.z h y C X._ 1 1 1 ",
"= r j x F ^ P P O.;.1 1 1 = * 2 e.h 1 1 1 1 = @ O y q 1 1 2 h $.4 1 * + 1 1 1 5 z 4 1 + = r u.s 1 1 ",
"7 = * % > $ - ! z.5.4 1 1 1 1 f k.@.4 1 1 1 1 ; q e * - 4 1 r 0.w ; O . # * * g 7 * + o = h d.[ f t ",
"_ 7 1 * + O * w s.3.4 1 1 1 1 g O.h x s s z M M ,.s @ = - 1 z g.T 7 $ > f z o.5.7 1 * o ; h _ 5 q 7 ",
"k.w.g 1 1 : * = { b 1 1 1 1 1 w u X 5 s h w q p.g.7 o + 1 1 n b s h h z a g h.3.4 1 1 + # 2 N 7 * o ",
"i.>.:.q = 1 - + C s 1 1 1 1 1 1 i $ @ * * = 1  .3.1 o O 1 1 f h = * * 1 1 1 o.z 1 1 1 = o . v i.| q ",
"5 - q h 2 * +   j g 1 1 1 1 1 1 ( ( q 1 1 1 1 b g 1 = @ * # 2 | t = * 1 1 1 T a 1 1 1 1 O q o.M s y ",
"1 < 1 q x 6 = X > C 1 : 1 1 1 q e.s.W 1 1 1 1 G s 1 1 : O X e a.4.l * - 1 1 h M 6 4 7 2 q b q 1 < * ",
"1 1 1 1 a f 1 - + O.F q q - 3 U y 2 h s 1 1 1 f z 1 1 1 o q ! s 7 g u * = 1 7 @.m s a o.C 6 1 1 = = ",
"1 1 1 1 1 g 7 1 t j 9 , y | x w = * 1 h a 1 1 q ,.b a j j j 7 1 1 = q g 2 4 g q 1 1 = g h = * @ = 1 ",
"1 1 1 1 1 q T o.h - X * 1 { 7 1 1 @ @ < g 4 7 g r 7 4 s U - = = @ * 1 s n O.w 1 1 # @ b F 1 1 @ = 1 ",
"1 4 1 1 1 1 6 ( a 1 + - 4 T 6 1 1 * < = w v o.q 1 1 * q N = 1 1 * * 1 4 1 z q O > y T d.] 1 1 = @ 1 ",
"= - 1 1 1 1 1 h q 1 + + a o.< # @ 1 1 1 < 5 x - = + @ C M 1 1 1 1 + - 1 1 f F t k z ! F  . .6 = @ 1 ",
"- = : 1 1 1 1 x s 4 x N 4.H ; = @ = 1 1 1 4 v = 8 c +.h.z 1 1 1 1 + - 1 1 4 ( g - # 1 1 7 p.@.2 * 1 ",
"1 1 - * = 1 1 w o.x N $.p.@.4 1 - + 1 1 1 1 m T z s z H 1.a 1 1 * X * - = 5 g ; - @ 1 1 q p.:.y t g ",
"1 1 1 1 - * O - i 4 1 1 7 ..h 1 : O - 1 1 1 g s : * @ ; { @.1 1 + o > q t +.N @ O + 1 1 1 ! h X O $ ",
"a 1 1 1 1 1 = h - = 1 1 1 [ o.1 *   O * * 3 g = * O + 4 3.q.z s w h z g >.z.T ; X * 1 4 1 6 G j y 7 ",
"M h s g m C [ o.- + < 1 7 4.9.s - % w j N 5.m 1 1 O @ 4 ..a 7 q q 7 1 ; a 4.s 1 @ * 1 1 1 1 m g.3.[ ",
"* q g g 3 v z.( + X = 1 7 X.a h f j g q ..l.h 1 1 * O * g j - + * 1 1 1 4 o.s 1 * O @ = = q { g 4 4 ",
"@ * * = : a a.h @ X - 1 4 F 4 * @ 1 1 1 f :.6 1 1 1 @   - r.<.z - 1 1 1 1 a _ l w > , e j z 3 1 1 1 ",
"f 1 1 1 1 7 [ 6 1 @ @ * @ j A 7 @ = 1 1 a T 1 1 1 1 @ @ n | g f y g 4 1 1 1 z _ s > 4 f <.7 * - 1 1 ",
"9.a 1 1 1 q T 1 1 1 @ X @ O.a.@.5 * 1 1 7 T s 4 6 q 2 h h 4 1 = + q g a q z a 1 * @ 1 1 _ x * - 1 1 ",
"q z 7 1 1 4 G r 1 4 * * z b 7 q h 8 * - 1 z o.h a h +.a 1 1 - = - * 7 g z @.6 1 = * 4 7 <.o.+ $ 1 1 ",
"* q z 4 1 1 m ..f f j k f 1 1 ; - h w - r s 6 1 : - ^ 2 - * + 1 1 1 * 1 1 b j - 7 P ..5.g.r.i - * 1 ",
"@ * w a 1 a f q 6 4 ( w = ; * @ 1 6 j Y U < 1 = @ 4 :.q 1 = $ 1 1 1 < * 1 7 F ( j t 5 q 8 q T 2.q = ",
"= : 1 j [ b 1 1 : * A q = 1 : @ = 1 1 q n + $ w j 3.s.a 1 1 * = 1 1 1 = @ @ 2 N 1 1 1 = + # 4 5.p.i ",
"1 1 1 1 g e = * + 7 @.7 1 1 1 : @ 1 1 4 T h p k M ! F >.h - * = 4 1 1 1 + X p z - 1 1 4 1 @ 1 o.k.X.",
"1 1 1 1 h f * p ^ p.0.6 1 1 1 * @ 1 1 1 s ! 6 @ - : ; F s.h + - 4 4 s j z o.g.:.4 1 1 1 1 @ * a *.s ",
"= 1 1 1 q ..z g y x o.] 1 1 1 O O ; : * g 7 - * = 1 1 F s.c e t h z h q 7 F g.t.5 1 1 1 1 * ; 1 q _ ",
"@ 1 1 1 6 z 4 1 @ # r q.g 1 = o $ 3 w z <.5 + o = 1 1 a | - X + * @ @ # = - h :.1 1 1 1 1 + * 1 1 6 ",
"X @ * * h 7 = @ o * h d.{ f a t z g b g.f.q @ O 1 1 1 1 f U g s 1 : 1 1 @ + $ X.g 1 1 1 1 X + < < 1 ",
"3 h k | 3.7 1 * O = h ! 6 q 7 q 4 1 1 T @.1 = + 1 1 1 1 4 t.p.;.b a 7 1 1 X O 6 b F s 7 1 $ + = 4 z ",
"h a g g.5.4 1 1 O # 2 N q * + : 1 1 1 s [ 1 - O @ = : - x W 7 2 4 a h g 6 + + 1 6 1.] z t 8 y U X.x ",
"1 : 1 ..z 1 1 1 = o X v i.o.0 - 1 1 1 6 z T t 7 > 8 y k y = 1 1 1 1 1 q g w 2 r M s 1 1 - + < h :.< ",
"1 1 1 T a 1 1 1 < o q X.x a t h a 1 1 1 7 { z 0 - 7 ( T ; * 1 4 1 1 1 1 4 s y v :.1 1 4 = = 1 1 { h ",
"1 1 1 h m 7 6 7 5 q b q 1 1 + - y s q s l 6 1 + - 1 w :.6 * 1 1 1 4 1 1 1 1 * o y h = = O # 1 1 b 9.",
"* = 1 5 @.C s r ' F 4 1 < - = < = r h o.z 1 1 @ 1 4 j a.q O = 1 1 1 1 1 1 1 < X % ( 3 + 5 x C b q.d.",
"g 4 4 g q 1 1 = y z * = + = 1 1 : = 1 7 ] 7 : y [ $.a.d.| q * = 1 1 1 1 1 1 = O = 7 ^ o.[ ' P 3.g.k.",
"s x o.t - < # @ x T < 1 * = 1 1 1 * 1 1 g o.n g 7 5 8 3 s 3.C = 1 1 1 1 1 1 - + 1 1 a  .6 - + 4 a z ",
"1 1 z q + > y W d.{ 1 1 < + 1 1 1 1 @ * O k r 1 < < = O 1 h k.O.7 1 1 1 1 1 1 + = 1 s z < 1 * * 1 1 ",
"1 1 g T t x z H F { X.6 - * 1 1 1 1 = X $ [ 7 1 1 1 1 * * a d.e.x h s r r f n k z l :.@.1 1 * + @ * ",
"1 1 1 W g - @ 1 1 7 p.&.2 + 4 6 q h z v 7.h.g 1 1 1 1 1 @ 1 N T 4 2 w f h i e 7 w -.x.f.a * * < < = ",
"1 = 7 h = - @ 1 1 7 t.+.y e g l h s 6 a 3.l.M 1 1 1 1 - + 1 1 z b 1 + + + X = 1 1 q 5.l.y o = 1 1 4 ",
"> q | N + O + 1 1 4 ] h X o $ $ + @ = 1 2 >.g 1 1 1 1 - + 1 1 1 F :.h $   + 1 1 1 1 s p.s # * 1 1 1 "
};
