/* XPM */
static char *cf9ba1c974fc43a7d552f832e7346c1fvyN1Dqy5TpJtEdAe[] = {
/* columns rows colors chars-per-pixel */
"50 50 128 2 ",
"   c #2A4600",
".  c #2E4A00",
"X  c #314E00",
"o  c #3A4F00",
"O  c #2D5200",
"+  c #245C01",
"@  c #285F02",
"#  c #2E5C08",
"$  c #365400",
"%  c #3C5402",
"&  c #345C05",
"*  c #3C5B03",
"=  c #3A5609",
"-  c #325C0C",
";  c #3E5C09",
":  c #365F10",
">  c #266000",
",  c #2D6306",
"<  c #2D6209",
"1  c #336207",
"2  c #3C6304",
"3  c #336B05",
"4  c #3C6807",
"5  c #34630B",
"6  c #3C650B",
"7  c #36690C",
"8  c #3C6B0C",
"9  c #3F710F",
"0  c #366112",
"q  c #3B6512",
"w  c #3D6A11",
"e  c #3D7311",
"r  c #415604",
"t  c #425C06",
"y  c #485D03",
"u  c #42560A",
"i  c #445D0B",
"p  c #495F0E",
"a  c #4A5F12",
"s  c #426505",
"d  c #4B6305",
"f  c #436B06",
"g  c #4A6A07",
"h  c #44630B",
"j  c #4A640D",
"k  c #456A0C",
"l  c #4B6C0E",
"z  c #51660B",
"x  c #536C0D",
"c  c #5B6D0F",
"v  c #457005",
"b  c #4E7206",
"n  c #43730D",
"m  c #4C720C",
"M  c #467A0E",
"N  c #4C7A0E",
"B  c #53740D",
"V  c #59710F",
"C  c #547A0E",
"Z  c #456411",
"A  c #4B6512",
"S  c #446C12",
"D  c #4C6C12",
"F  c #4E6D18",
"G  c #516514",
"H  c #536C14",
"J  c #5A6E14",
"K  c #546D1A",
"L  c #5A6D1B",
"P  c #447412",
"I  c #4D7214",
"U  c #447A13",
"Y  c #4C7914",
"T  c #4C7419",
"R  c #467D18",
"E  c #4C7C1A",
"W  c #537315",
"Q  c #5B7415",
"!  c #557B14",
"~  c #5A7C15",
"^  c #54741A",
"/  c #5B751B",
"(  c #557A1B",
")  c #5C7B1B",
"_  c #606F10",
"`  c #617414",
"'  c #637B16",
"]  c #687D16",
"[  c #61761C",
"{  c #627B1C",
"}  c #6A7D19",
"|  c #567221",
" . c #5C7521",
".. c #557C21",
"X. c #5B7D21",
"o. c #627421",
"O. c #637D22",
"+. c #6A7F22",
"@. c #4D8017",
"#. c #568216",
"$. c #5C8116",
"%. c #55831D",
"&. c #5C831B",
"*. c #618317",
"=. c #63831C",
"-. c #69821C",
";. c #638A1D",
":. c #68881D",
">. c #578722",
",. c #5C8322",
"<. c #588A27",
"1. c #5C872B",
"2. c #5E8B29",
"3. c #638424",
"4. c #6A8425",
"5. c #638A25",
"6. c #6B8D24",
"7. c #668528",
"8. c #6A8629",
"9. c #648B2B",
"0. c #6A8C2B",
"q. c #728C27",
"w. c #718C29",
"e. c #6A922B",
"r. c #709126",
"t. c #74922B",
"y. c #78972F",
"u. c #649031",
/* pixels */
"% r y z H J K H G A D K K F K | ,.%.Y P n n n R %.%.%.%.,.,.I s K L o.o.o.L _ L G L L G D h h 2 ; ; ",
"r r y z L / K G A j Z i Z F | ..X.( ( Y Y U Y #.%.>.%.,.5.5.! j H H K G G a G a G L K D D h h k h i ",
"y y d J [ O./ H H A i % % Z ^  .) %.&.( ( @.E %.>.%.>.>.2.5.&.Q G G G a a z G z G K G A A S A S j h ",
"Q J Q O.4.+.O./ / / j % % A K K ( ) &.,.,.>.%.%.%.>.,.&.,.,.) W G G j A G G G G K H G D h k D D I ^ ",
"8.4.3.4.8.0.8.+.O.O.K t r A K j ^ ( X.,.,.,.,.,.,.,.&.( W ^ W I A H A H G K G H K H G j h Z S F ^ ..",
"6.8.4.7.8.8.8.8.O.O./ j d H J x W W ) &.,.,.,.,.,.,.X.( I m l l D H K K K H L K L G j i i h D F ..X.",
") 3.3.=.3.3.7.4.4.O./ J Q J H z H Q / ) X.X.X.,.1.3.,.W l l D m H ^ ^ H A j G ^ K G p t * h G ^ X.) ",
"m W ) ) ) ) X.O.4.) Q Q Q H z d Q W / ) ) { O.3.7.0.3.) I l I W T F ^ l r r i A G A i r * i F | ..^ ",
"I g l I l l ) ) [ ) Q W W H x d d l H Q ) X.3.7.,.3.,.X.( I k k S S h * . $ i H K j r % = A K K ^ W ",
"k 2 2 s * 2 g s / Q W c c x x V H x H H Q / / ^ ^ / ) ( ^ I l l 2 4 s 2 * i A / L G p i a G A F D D ",
"s * * s t s l g x H Q ) Q d H { / Q ^ ^ L Q Q H W W ^ ^ I P n k 2 2 2 k k H ^  ./ K A p a A G A D D ",
"h t h h * * j W s h Q 3.3.W B ) W ^ / ) / / / / Q W W I m k k 4 4 f S I I ^ ^ ^ | K p u = a a G D D ",
"j h A i .   $ s j s l &.3.Q W W H H ^ ^ / ^ / ^ ^ ^ W T S 8 4 4 8 P Y E I I ^ ^  .K a u = u a a D A ",
"Z h A A $ . ; A D k h D ^ I I W D W Q ^ / ^ J H ^ W I T k 8 8 8 n P E I T D ^  .L K G p a u u u i i ",
"a i K | D A | | ^ D k k I I I l D D ^ ^ / / / ^ H ^ E I P S 9 9 P U I E I ^ .. .K K G a u u u = i t ",
"p i K  .| ^ | ^ F ^ ^ I I W m k k l I ^ / ( ) ( ^ ^ W I P n n 9 Y P Y E ( ) / ^ L H p % o o u u p p ",
"G A A A A A F F S F I m I #.! v k f l W ( ( ~ ! ) ! Y I m m P n P W W W ! ) { / c x t t A i u A G G ",
"A A A Z Z A Z A i S D I &.5.&.N k 4 k W ! ! $.&.$.! C N Y I I P D m I W Q ~ ~ ' Q Q x G K D F K K K ",
"a A a Z Z a i ; $ 6 k W 3.6.5.! m k k m W ! ~ $.! ! ! ! ( ! ! P l H l W W Q ' Q { { W H K F A ^ K K ",
"i i a A Z a ; * $ h I ( ,.5.5.&.W m m l m m b ! $.! #.~ #.) ! ! W H H H / ) { ) =.{ Q B ^ D D T H H ",
"i i i i h Z i $ * h ^ ( %.>.,.5.W ( W W l f b $.$.$.~ $.&.&.~ ! / J H H / [ { ' 3.} Q W ) ( ( X./ H ",
"i i t h A j 6 * 6 k T ( ( ,.5.e.! ( ~ ! C b ! ;.$.$.$.$.$.&.~ ) ) L D G J Q [ / [ ) W m ,.5.3.5./ Q ",
"j h i h A D A h h h I T ..,.>.1.( I W ! ( ~ $.*.;.*.$.$.' *.*.) O.L H H J [ [ / Q Q g g &.e.9.5.) W ",
"H j h h D T I S k 6 2 I ( ( ( T W l l I &.$.#.#.;.*.$.$.$.*.~ ' 3.o.J L Q [ [ ) ~ Q g g =.e.5.&.,.) ",
"^ H l D J ^ W D l I S D S S S S l k l W %.&.$.#.$.#.$.C *.:.:.] O.O.[ Q [ o.{ [ Q Q W C ! &.5.e.5.6.",
"/ H l D T ^ I I D I P S S S w S h k k I &.&.#.#.#.#.C C *.*.-.-.4.O.[ J J [ [ / ~ Q W W ! #.&.;.5.5.",
"( H D D I ( ^ I T S S S S w w S S S D T ( #.Y N #.N C #.~ ~ ' :.w.4.~ c H [ [ [ { / ~ ! ! ! $.$.=.=.",
") W l l I W W ( k k S w w w q q q Z S P E R U M N v b #.C C ' q.y.w.{ c x Q [ O.{ { ) ~ ~ ! ! ~ ~ ( ",
") W l l m W W W 4 2 6 6 q w q q q q Z S P U e U M M M C B B } t.y.t.:.~ x Q [ { ) o.) ) ~ ~ ~ ~ ~ / ",
"/ W W m I m N I k 6 2 6 q q 0 0 - q q 7 7 e e U M N m v b V } 6.r.r.6.~ B x Q [ Q / ) { ) { ) &.) ) ",
"( W I l l m m m k 4 4 6 q q 0 - - - 5 5 7 e e e U @.N f s W ) ' *.6.6.~ g d z Q / / [ ) ~ ) ~ ) ) { ",
"^ ! W I I l D l D k 6 6 q q - # # - # < 7 e R R @.%.Y 2 2 l ! C #.;.6.~ g s j H ) / / Q ) ) ) ) Q W ",
"W D ^ H K K K G ^ D 6 6 6 7 , > @ < < < 5 7 P T 1.>.I P n f v M #.$.C k * $ $ t H Q H ^ ) ) ( ( m W ",
"F ^ K ^ | L K G A D F ....R 3 > + @ @ < 7 w S T S S P I #.#.#.#.#.N v 2 2 * s H D D ^ ^ I I I I D m ",
"D H ^ /  .o.L G A H | 9.u.<.U 3 > > 1 5 q w S D 2 2 k ! $.#.C #.Y m f f f h D / K | / I l h s f m D ",
"H H H / L o.L G K K | 2.9.2.>.U 7 7 8 6 6 q S k s h D ! $.#.b N ! C b W W W H W / ^ ^ H I I l l S D ",
"Q W H Q Q [ [ L / K ^ X.9.9.2.>.E T w 8 k h S k H W W ) ;.*.*.$.#.! W ! ( W D D H D A H ( ,.,.X.D A ",
") / Q J J [ [ o.[ / ^ X.9.u.9.2.X.E T k S D H Q O.) { =.-.*.*.*.=.~ B m I H H H ^ I D D ) ,.,.3.^ ..",
"} ) c c J J [ o.[ K J / 5.0.9.9.) ( I D ^ Q ^ / O.O.{ { -.] ' ' *.~ W x x l W W  .^ ^ ^ ^ ( ) ,.3.3.",
"' Q x d z c [ [ [ L D H ) 7.7.5.,.) ^ Q ^ ^ / Q Q Q [ } 4.-.-.] ' ~ ~ ~ W H G W ^  .) ( ^ ^ ,.0.7.5.",
"' ` c c J Q [ o./ G j j Q ,.O.X.O.=.) ) / ) / / Q Q Q ` ] } ] ' V ~ Q ! ^ W W F ^ ^ ( ^ ) X.3.0.r.6.",
"' ' ` Q [ [ [ { H z y j H Q / ) ) ) ) / / / ^ Q Q J J ` [ } } ] ' ' Q Q Q Q ^ ^ T ^ ..^ ^ ) ,.3.=.*.",
"' ' { { [ Q Q Q j j y j l D W H ) ~ ) Q ^ ^ ^ Q H H x J ' } } } ] ` Q Q Q ^ / / F | X.X.( ( ) ) C B ",
"V ' ' { Q J G A p j A j j j D H W W W ( ^ ( ^ ^ Q D x H _ ` ] ' ` ' [ ` ) / X.X.D ^ X.X.X.) ) ( m b ",
"V ~ ' } / H G A i A A A h A A D W I W ( ^ ^ | ..T D D G J Q ` ` _ ` ' [ o.{ / ^ F ^ ( 1.3.X.) ) ~ ! ",
"V ~ { O.[ ^ H D Z A D Z h i h A W I I I ^ E ( ..I D A l H Q J c _ _ [ } O.) / ^ I ^ ..X.X.X.) W W ! ",
"W ~ =.{ ) ^ F K Z F A Z a i A A ^ ^ I T P T T | S k k l H J H c _ _ ` [ [ ) ^ W F T ^ ^ ( ^ W l D D ",
"x Q ) / K H D F F G F A Z h S A ( ^ I D P S P F S 8 h l I W Q G _ _ _ ' Q ^ Q W D W I W I I l j Z S ",
"A A D x G c H H J K K G A F K W ( #.( E 6 & 1 8 P T I I I D l d J o.+.{ [ ) Q ~ ( W W I k k * O ; q ",
"= * t i g x x c H ^ K G A D ^ ^ $.( ( I q # 1 w E ( ( #.) ! I A L } 4.O.' Q ~ W W W W T S 6 1 O = ; "
};
